<?xml version="1.0" standalone="no"?>
<!DOCTYPE svg PUBLIC "-//W3C//DTD SVG 1.1//EN" "http://www.w3.org/Graphics/SVG/1.1/DTD/svg11.dtd" >
<svg xmlns="http://www.w3.org/2000/svg" xmlns:xlink="http://www.w3.org/1999/xlink" version="1.1">
<metadata>
Created by FontForge 20170731 at Sun Oct 25 13:48:58 2020
 By Aleksey,,,
Copyright (c) Robert Pfeffer, Hessen, 2010.
</metadata>
<defs>
<font id="PfefferMediaeval" horiz-adv-x="886" >
  <font-face 
    font-family="Pfeffer Medival"
    font-weight="400"
    font-stretch="normal"
    units-per-em="2048"
    panose-1="2 0 5 3 7 0 0 2 0 3"
    ascent="1638"
    descent="-410"
    x-height="872"
    cap-height="1288"
    bbox="-1325 -874.037 2859 4450"
    underline-thickness="102"
    underline-position="-204"
    unicode-range="U+0020-1034A"
  />
<missing-glyph horiz-adv-x="839" 
d="M223 1288h541q14 0 14 -4v-1253q0 -9 -26 -24t-62 -27q-49 -17 -74 -17h-540q-13 0 -13 6v1254q-1 5 11 13.5t32.5 18t43.5 17.5q41 16 73 16zM604 1217h-366v-1182h366v1182z" />
    <glyph glyph-name="Agrave" unicode="A&#x300;" horiz-adv-x="1347" 
d="M469 1167q-19 0 14 38q10 12 23 24q28 25 56 43t38 18h148q6 0 6 -4l467 -1251h92q29 0 1 -19q-11 -7 -28 -16q-69 -34 -115 -37h-202q-26 0 -8 16q11 10 34 21q21 9 45 18l-200 535h-377l-187 -502q-2 -4 -10 -16h111q30 0 0 -21l-25 -14q-76 -37 -121 -37h-196
q-27 0 -7 18q11 9 31 19q63 29 107 35l424 1132h-121zM813 625l-162 434l-162 -434h324zM881 1501l2 -4q0 -14 -64 -39.5t-98 -25.5q-8 0 -12 4l-248 247q0 12 64 39t98 27q10 0 12 -2z" />
    <glyph glyph-name="Aacute" unicode="A&#x301;" horiz-adv-x="1347" 
d="M469 1167q-19 0 14 38q10 12 23 24q28 25 56 43t38 18h148q6 0 6 -4l467 -1251h92q29 0 1 -19q-11 -7 -28 -16q-69 -34 -115 -37h-202q-26 0 -8 16q11 10 34 21q21 9 45 18l-200 535h-377l-187 -502q-2 -4 -10 -16h111q30 0 0 -21l-25 -14q-76 -37 -121 -37h-196
q-27 0 -7 18q11 9 31 19q63 29 107 35l424 1132h-121zM813 625l-162 434l-162 -434h324zM694 1491q-14 -16 -68.5 -37.5t-86.5 -21.5q-15 0 -15 6q0 2 6 8l246 246q16 16 70.5 37.5t85.5 21.5q12 0 12 -6q0 -4 -4 -8z" />
    <glyph glyph-name="Acircumflex" unicode="A&#x302;" horiz-adv-x="1347" 
d="M469 1167q-19 0 14 38q10 12 23 24q28 25 56 43t38 18h148q6 0 6 -4l467 -1251h92q29 0 1 -19q-11 -7 -28 -16q-69 -34 -115 -37h-202q-26 0 -8 16q11 10 34 21q21 9 45 18l-200 535h-377l-187 -502q-2 -4 -10 -16h111q30 0 0 -21l-25 -14q-76 -37 -121 -37h-196
q-27 0 -7 18q11 9 31 19q63 29 107 35l424 1132h-121zM813 625l-162 434l-162 -434h324zM588 1505q-11 -15 -67.5 -38t-88.5 -23q-16 0 -16 6q0 4 2 6l172 221q13 15 69.5 38.5t88.5 23.5q10 0 14 -4l172 -224q0 -17 -62 -42t-96 -25q-10 0 -14 4l-111 139z" />
    <glyph glyph-name="Atilde" unicode="A&#x303;" horiz-adv-x="1347" 
d="M469 1167q-19 0 14 38q10 12 23 24q28 25 56 43t38 18h148q6 0 6 -4l467 -1251h92q29 0 1 -19q-11 -7 -28 -16q-69 -34 -115 -37h-202q-26 0 -8 16q11 10 34 21q21 9 45 18l-200 535h-377l-187 -502q-2 -4 -10 -16h111q30 0 0 -21l-25 -14q-76 -37 -121 -37h-196
q-27 0 -7 18q11 9 31 19q63 29 107 35l424 1132h-121zM813 625l-162 434l-162 -434h324zM483 1569q-69 -35 -123 -39q-24 0 -11 14q9 10 34 21q78 40 138 62t95.5 29.5t65.5 2.5t43 -12.5t33 -22.5q19 -13 28 -17.5t30.5 -5t47.5 12.5q69 35 121 39q24 0 13 -14
q-9 -10 -33 -21q-79 -40 -139 -62t-95.5 -29.5t-66 -2.5t-43 12t-33.5 23q-19 13 -28.5 17.5t-30.5 5t-46 -12.5z" />
    <glyph glyph-name="Adieresis" unicode="A&#x308;" horiz-adv-x="1347" 
d="M469 1167q-19 0 14 38q10 12 23 24q28 25 56 43t38 18h148q6 0 6 -4l467 -1251h92q29 0 1 -19q-11 -7 -28 -16q-69 -34 -115 -37h-202q-26 0 -8 16q11 10 34 21q21 9 45 18l-200 535h-377l-187 -502q-2 -4 -10 -16h111q30 0 0 -21l-25 -14q-76 -37 -121 -37h-196
q-27 0 -7 18q11 9 31 19q63 29 107 35l424 1132h-121zM813 625l-162 434l-162 -434h324zM725 1581q-2 0 -2 4q0 17 59.5 67t79.5 50l103 -100q2 -3 2 -5q0 -18 -58.5 -67t-81.5 -49q-4 0 -4 2zM381 1581q-2 0 -2 4q0 17 58.5 67t78.5 50l6 -2l99 -101q0 -18 -57 -68t-81 -50
q-4 0 -4 2z" />
    <glyph glyph-name="Aring" unicode="A&#x30a;" horiz-adv-x="1347" 
d="M469 1167q-19 0 14 38q10 12 23 24q28 25 56 43t38 18h148q6 0 6 -4l467 -1251h92q29 0 1 -19q-11 -7 -28 -16q-69 -34 -115 -37h-202q-26 0 -8 16q11 10 34 21q21 9 45 18l-200 535h-377l-187 -502q-2 -4 -10 -16h111q30 0 0 -21l-25 -14q-76 -37 -121 -37h-196
q-27 0 -7 18q11 9 31 19q63 29 107 35l424 1132h-121zM813 625l-162 434l-162 -434h324zM715 1501q35 44 35 109q0 61 -33.5 110t-83.5 60q-35 -44 -35 -109v-2q0 -59 35 -108t82 -60zM748 1858q72 0 125 -53.5t53 -133.5q0 -107 -97.5 -177.5t-226.5 -70.5q-74 0 -127 55.5
t-53 131.5q0 106 97.5 177t228.5 71z" />
    <glyph glyph-name="Ccedilla" unicode="C&#x327;" horiz-adv-x="1337" 
d="M641 -121q-7 -1 -12.5 -2t-15 -2t-14 1t-1.5 7q11 18 24.5 46.5t20.5 37.5q-159 14 -292.5 101t-211.5 226.5t-78 301.5q0 122 44 232t120.5 192.5t176.5 143.5t214.5 92.5t231.5 31.5q240 0 420 -151q49 10 49 0v-50q0 -18 -86 -51q-2 0 -16.5 -4.5t-26.5 -7.5
t-27.5 -4.5t-17.5 4.5q-85 91 -201 142t-240 51q-104 0 -194 -52t-148 -134t-91 -180t-33 -194q0 -241 164.5 -421t400.5 -199h10q12 -2 37 -2q94 0 162 32.5t137 104.5q10 12 42 27t66 24q29 8 45 8.5t17 -6.5v-47q0 -13 -48 -35.5t-79 -27.5q-55 -37 -137 -72
q-135 -59 -267 -74l-8 -18q49 3 85.5 -19.5t52 -56.5t8.5 -75t-39 -72q-47 -47 -121 -75.5t-143 -19.5q-3 1 -10 2.5t-9 2.5q-24 7 33 34q58 28 104 35q29 58 -4 115t-94 57z" />
    <glyph glyph-name="Egrave" unicode="E&#x300;" horiz-adv-x="1167" 
d="M223 1288h836q14 0 14 -4v-49q0 -9 -26 -24t-62 -27q-23 -8 -43 -12t-31.5 -3.5t-11.5 5.5v43h-514v-519h551q33 0 -5 -22l-22 -12q-72 -37 -121 -37h-403v-592h604q22 16 70 33q24 9 44.5 13.5t32 4t11.5 -5.5v-49q0 -13 -41 -31q-72 -37 -121 -37h-909q-23 0 -8 15
q10 10 34 22q63 29 109 35v1182h-135q-24 0 -8 15q11 10 34 21q80 35 121 35zM791 1501l2 -4q0 -14 -64 -39.5t-98 -25.5q-9 0 -13 4l-247 247q0 12 63.5 39t97.5 27q11 0 13 -2z" />
    <glyph glyph-name="Eacute" unicode="E&#x301;" horiz-adv-x="1167" 
d="M223 1288h836q14 0 14 -4v-49q0 -9 -26 -24t-62 -27q-23 -8 -43 -12t-31.5 -3.5t-11.5 5.5v43h-514v-519h551q33 0 -5 -22l-22 -12q-72 -37 -121 -37h-403v-592h604q22 16 70 33q24 9 44.5 13.5t32 4t11.5 -5.5v-49q0 -13 -41 -31q-72 -37 -121 -37h-909q-23 0 -8 15
q10 10 34 22q63 29 109 35v1182h-135q-24 0 -8 15q11 10 34 21q80 35 121 35zM543 1491q-14 -16 -69 -37.5t-87 -21.5q-14 0 -14 6q0 2 6 8l246 246q16 16 70 37.5t85 21.5q13 0 13 -6q0 -3 -5 -8z" />
    <glyph glyph-name="Ecircumflex" unicode="E&#x302;" horiz-adv-x="1167" 
d="M223 1288h836q14 0 14 -4v-49q0 -9 -26 -24t-62 -27q-23 -8 -43 -12t-31.5 -3.5t-11.5 5.5v43h-514v-519h551q33 0 -5 -22l-22 -12q-72 -37 -121 -37h-403v-592h604q22 16 70 33q24 9 44.5 13.5t32 4t11.5 -5.5v-49q0 -13 -41 -31q-72 -37 -121 -37h-909q-23 0 -8 15
q10 10 34 22q63 29 109 35v1182h-135q-24 0 -8 15q11 10 34 21q80 35 121 35zM518 1505q-11 -15 -67.5 -38t-88.5 -23q-16 0 -16 6q0 4 2 6l172 221q13 15 69.5 38.5t88.5 23.5q10 0 14 -4l172 -224q0 -17 -61.5 -42t-95.5 -25q-11 0 -15 4l-110 139z" />
    <glyph glyph-name="Igrave" unicode="I&#x300;" horiz-adv-x="624" 
d="M334 -37h-197q-26 0 -7 16q11 10 34 21q36 16 57 23v1194h-84q-28 0 -4 18q11 8 31 18q80 35 121 35h200q24 0 11 -14q-9 -10 -35 -21q-24 -12 -64 -24v-1194h84q28 0 4 -18l-30 -17q-76 -37 -121 -37zM520 1501l2 -4q0 -14 -64 -39.5t-98 -25.5q-8 0 -12 4l-248 247
q0 12 64 39t98 27q10 0 12 -2z" />
    <glyph glyph-name="Iacute" unicode="I&#x301;" horiz-adv-x="624" 
d="M334 -37h-197q-26 0 -7 16q11 10 34 21q36 16 57 23v1194h-84q-28 0 -4 18q11 8 31 18q80 35 121 35h200q24 0 11 -14q-9 -10 -35 -21q-24 -12 -64 -24v-1194h84q28 0 4 -18l-30 -17q-76 -37 -121 -37zM332 1491q-14 -16 -69 -37.5t-87 -21.5q-14 0 -14 6q0 2 6 8
l246 246q16 16 70 37.5t85 21.5q13 0 13 -6q0 -4 -4 -8z" />
    <glyph glyph-name="Icircumflex" unicode="I&#x302;" horiz-adv-x="624" 
d="M334 -37h-197q-26 0 -7 16q11 10 34 21q36 16 57 23v1194h-84q-28 0 -4 18q11 8 31 18q80 35 121 35h200q24 0 11 -14q-9 -10 -35 -21q-24 -12 -64 -24v-1194h84q28 0 4 -18l-30 -17q-76 -37 -121 -37zM227 1505q-11 -15 -67 -38t-88 -23q-17 0 -17 6q0 4 2 6l172 221
q13 15 69.5 38.5t88.5 23.5q10 0 14 -4l172 -224q0 -17 -61.5 -42t-95.5 -25q-11 0 -15 4l-110 139z" />
    <glyph glyph-name="Idieresis" unicode="I&#x308;" horiz-adv-x="624" 
d="M334 -37h-197q-26 0 -7 16q11 10 34 21q36 16 57 23v1194h-84q-28 0 -4 18q11 8 31 18q80 35 121 35h200q24 0 11 -14q-9 -10 -35 -21q-24 -12 -64 -24v-1194h84q28 0 4 -18l-30 -17q-76 -37 -121 -37zM365 1581q-3 0 -3 4q0 17 60 67t80 50l102 -100q2 -3 2 -5
q0 -18 -58 -67t-81 -49q-4 0 -4 2zM20 1581q-2 0 -2 4q0 17 59 67t79 50l6 -2l98 -101q0 -18 -56.5 -68t-80.5 -50q-4 0 -4 2z" />
    <glyph glyph-name="Ntilde" unicode="N&#x303;" horiz-adv-x="1576" 
d="M272 -37h-196q-26 0 -8 16q11 10 34 21q47 21 74 27v1190h-100q-26 0 -7 16q11 9 33 20q76 35 121 35h197q22 0 9 -14q-10 -10 -36 -21q-8 -5 -16 -8l880 -1020v992h-100q-28 0 -4 18q11 8 31 18q76 35 121 35h196q21 0 10 -12q-9 -11 -36 -23q-36 -19 -74 -28v-1170
q0 -9 -21.5 -33t-50.5 -47q-18 -14 -34.5 -23.5t-25.5 -11.5t-12 1l-938 1087v-993h101q26 0 4 -17q-10 -8 -31 -18q-76 -37 -121 -37zM598 1569q-69 -35 -123 -39q-24 0 -11 14q9 10 34 21q78 40 138 62t95 29.5t65 2.5t43 -12.5t33 -22.5q19 -13 28.5 -17.5t31 -5
t47.5 12.5q69 35 121 39q24 0 12 -14q-8 -10 -33 -21q-79 -40 -139 -62t-95.5 -29.5t-66 -2.5t-43 12t-33.5 23q-19 13 -28 17.5t-30 5t-46 -12.5z" />
    <glyph glyph-name="Ograve" unicode="O&#x300;" horiz-adv-x="1550" 
d="M850 1288q132 0 250 -48.5t205 -137.5q88 -88 136 -202t48 -243q0 -130 -49.5 -246t-139.5 -206q-115 -115 -269 -178.5t-329 -63.5q-133 0 -251 49t-205 138t-136 203.5t-49 242.5t50 245t139 206q115 115 269 178t331 63zM1133 1036q-85 85 -197 133t-234 48
q-164 0 -286 -125q-85 -85 -132.5 -197.5t-47.5 -237.5q0 -127 48 -240.5t134 -199.5q87 -87 197.5 -134.5t234.5 -47.5q78 0 152.5 33.5t134.5 91.5q85 85 131.5 197t46.5 239t-48 240.5t-134 199.5zM983 1501l2 -4q0 -14 -64 -39.5t-98 -25.5q-8 0 -12 4l-248 247
q0 12 64 39t98 27q10 0 12 -2z" />
    <glyph glyph-name="Oacute" unicode="O&#x301;" horiz-adv-x="1550" 
d="M850 1288q132 0 250 -48.5t205 -137.5q88 -88 136 -202t48 -243q0 -130 -49.5 -246t-139.5 -206q-115 -115 -269 -178.5t-329 -63.5q-133 0 -251 49t-205 138t-136 203.5t-49 242.5t50 245t139 206q115 115 269 178t331 63zM1133 1036q-85 85 -197 133t-234 48
q-164 0 -286 -125q-85 -85 -132.5 -197.5t-47.5 -237.5q0 -127 48 -240.5t134 -199.5q87 -87 197.5 -134.5t234.5 -47.5q78 0 152.5 33.5t134.5 91.5q85 85 131.5 197t46.5 239t-48 240.5t-134 199.5zM795 1491q-14 -16 -69 -37.5t-87 -21.5q-14 0 -14 6q0 2 6 8l246 246
q16 16 70 37.5t85 21.5q12 0 12 -6q0 -4 -4 -8z" />
    <glyph glyph-name="Ocircumflex" unicode="O&#x302;" horiz-adv-x="1550" 
d="M850 1288q132 0 250 -48.5t205 -137.5q88 -88 136 -202t48 -243q0 -130 -49.5 -246t-139.5 -206q-115 -115 -269 -178.5t-329 -63.5q-133 0 -251 49t-205 138t-136 203.5t-49 242.5t50 245t139 206q115 115 269 178t331 63zM1133 1036q-85 85 -197 133t-234 48
q-164 0 -286 -125q-85 -85 -132.5 -197.5t-47.5 -237.5q0 -127 48 -240.5t134 -199.5q87 -87 197.5 -134.5t234.5 -47.5q78 0 152.5 33.5t134.5 91.5q85 85 131.5 197t46.5 239t-48 240.5t-134 199.5zM688 1505q-11 -15 -67.5 -38t-88.5 -23q-16 0 -16 6q0 4 2 6l172 221
q13 15 69.5 38.5t88.5 23.5q10 0 14 -4l172 -224q0 -17 -61.5 -42t-95.5 -25q-11 0 -15 4l-110 139z" />
    <glyph glyph-name="Otilde" unicode="O&#x303;" horiz-adv-x="1550" 
d="M850 1288q132 0 250 -48.5t205 -137.5q88 -88 136 -202t48 -243q0 -130 -49.5 -246t-139.5 -206q-115 -115 -269 -178.5t-329 -63.5q-133 0 -251 49t-205 138t-136 203.5t-49 242.5t50 245t139 206q115 115 269 178t331 63zM1133 1036q-85 85 -197 133t-234 48
q-164 0 -286 -125q-85 -85 -132.5 -197.5t-47.5 -237.5q0 -127 48 -240.5t134 -199.5q87 -87 197.5 -134.5t234.5 -47.5q78 0 152.5 33.5t134.5 91.5q85 85 131.5 197t46.5 239t-48 240.5t-134 199.5zM586 1569q-69 -35 -123 -39q-24 0 -12 14q9 10 34 21q78 40 138 62
t95.5 29.5t65.5 2.5t43 -12.5t33 -22.5q19 -13 28.5 -17.5t31 -5t47.5 12.5q69 35 120 39q24 0 13 -14q-9 -10 -33 -21q-79 -40 -139 -62t-95.5 -29.5t-66 -2.5t-43 12t-33.5 23q-19 13 -28 17.5t-30 5t-46 -12.5z" />
    <glyph glyph-name="Odieresis" unicode="O&#x308;" horiz-adv-x="1550" 
d="M850 1288q132 0 250 -48.5t205 -137.5q88 -88 136 -202t48 -243q0 -130 -49.5 -246t-139.5 -206q-115 -115 -269 -178.5t-329 -63.5q-133 0 -251 49t-205 138t-136 203.5t-49 242.5t50 245t139 206q115 115 269 178t331 63zM1133 1036q-85 85 -197 133t-234 48
q-164 0 -286 -125q-85 -85 -132.5 -197.5t-47.5 -237.5q0 -127 48 -240.5t134 -199.5q87 -87 197.5 -134.5t234.5 -47.5q78 0 152.5 33.5t134.5 91.5q85 85 131.5 197t46.5 239t-48 240.5t-134 199.5zM827 1581q-2 0 -2 4q0 17 60 67t80 50l102 -100q2 -3 2 -5
q0 -18 -58 -67t-81 -49q-4 0 -4 2zM483 1581q-2 0 -2 4q0 17 58.5 67t78.5 50l7 -2l98 -101q0 -18 -56.5 -68t-80.5 -50q-4 0 -4 2z" />
    <glyph glyph-name="Ugrave" unicode="U&#x300;" horiz-adv-x="1533" 
d="M1044 129q69 69 108.5 161t39.5 195v732h-84q-27 0 -7 16q11 10 32 20q80 35 120 35h197q25 0 8 -15q-10 -9 -33 -20q-25 -14 -59 -24v-1194h133q29 0 3 -19l-27 -16q-76 -37 -121 -37h-148q-14 0 -14 6v187q-102 -94 -232 -143.5t-270 -49.5q-106 0 -205 40.5
t-174 113.5q-72 72 -111.5 167t-39.5 201v732h-84q-27 0 -6 18l30 18q80 35 121 35h197q25 0 8 -15q-11 -10 -33 -20q-25 -14 -59 -24v-682q0 -105 39.5 -199t109.5 -164t161.5 -109.5t191.5 -39.5q114 0 208 94zM975 1501l2 -4q0 -14 -64 -39.5t-98 -25.5q-8 0 -12 4
l-248 247q0 12 64 39t98 27q10 0 12 -2z" />
    <glyph glyph-name="Uacute" unicode="U&#x301;" horiz-adv-x="1533" 
d="M1044 129q69 69 108.5 161t39.5 195v732h-84q-27 0 -7 16q11 10 32 20q80 35 120 35h197q25 0 8 -15q-10 -9 -33 -20q-25 -14 -59 -24v-1194h133q29 0 3 -19l-27 -16q-76 -37 -121 -37h-148q-14 0 -14 6v187q-102 -94 -232 -143.5t-270 -49.5q-106 0 -205 40.5
t-174 113.5q-72 72 -111.5 167t-39.5 201v732h-84q-27 0 -6 18l30 18q80 35 121 35h197q25 0 8 -15q-11 -10 -33 -20q-25 -14 -59 -24v-682q0 -105 39.5 -199t109.5 -164t161.5 -109.5t191.5 -39.5q114 0 208 94zM786 1491q-14 -16 -68.5 -37.5t-86.5 -21.5q-15 0 -15 6
q0 1 7 8l245 246q16 16 70.5 37.5t85.5 21.5q12 0 12 -6q0 -4 -4 -8z" />
    <glyph glyph-name="Ucircumflex" unicode="U&#x302;" horiz-adv-x="1533" 
d="M1044 129q69 69 108.5 161t39.5 195v732h-84q-27 0 -7 16q11 10 32 20q80 35 120 35h197q25 0 8 -15q-10 -9 -33 -20q-25 -14 -59 -24v-1194h133q29 0 3 -19l-27 -16q-76 -37 -121 -37h-148q-14 0 -14 6v187q-102 -94 -232 -143.5t-270 -49.5q-106 0 -205 40.5
t-174 113.5q-72 72 -111.5 167t-39.5 201v732h-84q-27 0 -6 18l30 18q80 35 121 35h197q25 0 8 -15q-11 -10 -33 -20q-25 -14 -59 -24v-682q0 -105 39.5 -199t109.5 -164t161.5 -109.5t191.5 -39.5q114 0 208 94zM680 1505q-11 -15 -67.5 -38t-88.5 -23q-16 0 -16 6q0 4 2 6
l172 221q13 15 69.5 38.5t88.5 23.5q10 0 14 -4l172 -224q0 -17 -62 -42t-96 -25q-10 0 -14 4l-111 139z" />
    <glyph glyph-name="Udieresis" unicode="U&#x308;" horiz-adv-x="1533" 
d="M1044 129q69 69 108.5 161t39.5 195v732h-84q-27 0 -7 16q11 10 32 20q80 35 120 35h197q25 0 8 -15q-10 -9 -33 -20q-25 -14 -59 -24v-1194h133q29 0 3 -19l-27 -16q-76 -37 -121 -37h-148q-14 0 -14 6v187q-102 -94 -232 -143.5t-270 -49.5q-106 0 -205 40.5
t-174 113.5q-72 72 -111.5 167t-39.5 201v732h-84q-27 0 -6 18l30 18q80 35 121 35h197q25 0 8 -15q-11 -10 -33 -20q-25 -14 -59 -24v-682q0 -105 39.5 -199t109.5 -164t161.5 -109.5t191.5 -39.5q114 0 208 94zM819 1581q-2 0 -2 4q0 17 59.5 67t79.5 50l103 -100
q2 -3 2 -5q0 -18 -58 -67t-81 -49q-4 0 -4 2zM475 1581q-2 0 -2 4q0 17 58.5 67t78.5 50l6 -2l99 -101q0 -18 -56.5 -68t-80.5 -50q-5 0 -5 2z" />
    <glyph glyph-name="Yacute" unicode="Y&#x301;" horiz-adv-x="1339" 
d="M283 1239l415 -655l383 633h-80q-25 0 -5 16q10 9 32 20q80 35 121 35h197q24 0 9 -14q-11 -10 -36 -21q-45 -25 -94 -32l-455 -750v-436h84q29 0 1 -19l-28 -16q-72 -37 -120 -37h-197q-23 0 -8 15q11 10 35 22q37 16 59 23v387l-514 807h-88q-24 0 -8 15q11 10 34 21
q80 35 121 35h197q24 0 9 -14q-10 -10 -36 -21q-8 -6 -28 -14zM690 1491q-14 -16 -68.5 -37.5t-86.5 -21.5q-15 0 -15 6q0 2 6 8l246 246q16 16 70.5 37.5t85.5 21.5q12 0 12 -6q0 -4 -4 -8z" />
    <glyph glyph-name="agrave" unicode="a&#x300;" horiz-adv-x="937" 
d="M1008 35q1 0 7 0.5t13.5 1t15 0.5t12.5 -1.5t5 -4.5q0 -9 -31 -25q-77 -43 -166 -43q-166 0 -252 139q-218 -139 -401 -139q-72 0 -115 36.5t-43 98.5q0 87 82.5 240.5t183.5 259.5q1 1 9 8t16 15q-94 180 -258 180q-45 0 -45 4q0 27 79 47t120 20q104 0 170.5 -53.5
t115.5 -148.5l224 -441q99 -194 258 -194zM580 158q-5 5 -5 8l-182 358q-8 -10 -26 -41q-140 -212 -140 -323q0 -56 36 -90.5t102 -34.5q79 0 215 123zM545 1090l2 -5q0 -14 -64 -39.5t-98 -25.5q-8 0 -12 4l-248 248q0 12 64 38.5t98 26.5q10 0 12 -2z" />
    <glyph glyph-name="aacute" unicode="a&#x301;" horiz-adv-x="937" 
d="M1008 35q1 0 7 0.5t13.5 1t15 0.5t12.5 -1.5t5 -4.5q0 -9 -31 -25q-77 -43 -166 -43q-166 0 -252 139q-218 -139 -401 -139q-72 0 -115 36.5t-43 98.5q0 87 82.5 240.5t183.5 259.5q1 1 9 8t16 15q-94 180 -258 180q-45 0 -45 4q0 27 79 47t120 20q104 0 170.5 -53.5
t115.5 -148.5l224 -441q99 -194 258 -194zM580 158q-5 5 -5 8l-182 358q-8 -10 -26 -41q-140 -212 -140 -323q0 -56 36 -90.5t102 -34.5q79 0 215 123zM295 1079q-14 -16 -69 -37.5t-87 -21.5q-14 0 -14 6q0 2 6 8l246 246q16 16 70 37.5t85 21.5q13 0 13 -6q0 -4 -4 -8z
" />
    <glyph glyph-name="acircumflex" unicode="a&#x302;" horiz-adv-x="937" 
d="M1008 35q1 0 7 0.5t13.5 1t15 0.5t12.5 -1.5t5 -4.5q0 -9 -31 -25q-77 -43 -166 -43q-166 0 -252 139q-218 -139 -401 -139q-72 0 -115 36.5t-43 98.5q0 87 82.5 240.5t183.5 259.5q1 1 9 8t16 15q-94 180 -258 180q-45 0 -45 4q0 27 79 47t120 20q104 0 170.5 -53.5
t115.5 -148.5l224 -441q99 -194 258 -194zM580 158q-5 5 -5 8l-182 358q-8 -10 -26 -41q-140 -212 -140 -323q0 -56 36 -90.5t102 -34.5q79 0 215 123zM248 1094q-11 -15 -67.5 -38.5t-88.5 -23.5q-16 0 -16 6q0 4 2 6l172 222q13 15 69.5 38t88.5 23q10 0 14 -4l172 -223
q0 -17 -62 -42.5t-96 -25.5q-10 0 -14 4l-111 140z" />
    <glyph glyph-name="atilde" unicode="a&#x303;" horiz-adv-x="937" 
d="M1008 35q1 0 7 0.5t13.5 1t15 0.5t12.5 -1.5t5 -4.5q0 -9 -31 -25q-77 -43 -166 -43q-166 0 -252 139q-218 -139 -401 -139q-72 0 -115 36.5t-43 98.5q0 87 82.5 240.5t183.5 259.5q1 1 9 8t16 15q-94 180 -258 180q-45 0 -45 4q0 27 79 47t120 20q104 0 170.5 -53.5
t115.5 -148.5l224 -441q99 -194 258 -194zM580 158q-5 5 -5 8l-182 358q-8 -10 -26 -41q-140 -212 -140 -323q0 -56 36 -90.5t102 -34.5q79 0 215 123zM147 1157q-69 -35 -122 -39q-24 0 -12 14q9 10 34 21q78 40 138 62t95.5 29.5t65.5 2.5t43 -12.5t33 -22.5
q19 -13 28 -17.5t30.5 -5t47.5 12.5q69 35 121 39q24 0 13 -14q-9 -10 -33 -21q-79 -40 -139 -62t-95.5 -29.5t-66 -2.5t-43 12t-33.5 23q-19 13 -28.5 17.5t-30.5 5t-46 -12.5z" />
    <glyph glyph-name="adieresis" unicode="a&#x308;" horiz-adv-x="937" 
d="M1008 35q1 0 7 0.5t13.5 1t15 0.5t12.5 -1.5t5 -4.5q0 -9 -31 -25q-77 -43 -166 -43q-166 0 -252 139q-218 -139 -401 -139q-72 0 -115 36.5t-43 98.5q0 87 82.5 240.5t183.5 259.5q1 1 9 8t16 15q-94 180 -258 180q-45 0 -45 4q0 27 79 47t120 20q104 0 170.5 -53.5
t115.5 -148.5l224 -441q99 -194 258 -194zM580 158q-5 5 -5 8l-182 358q-8 -10 -26 -41q-140 -212 -140 -323q0 -56 36 -90.5t102 -34.5q79 0 215 123zM387 1169q-2 0 -2 5q0 17 59.5 66.5t79.5 49.5l103 -100q2 -2 2 -4q0 -18 -58.5 -67.5t-81.5 -49.5q-4 0 -4 2zM43 1169
q-2 0 -2 5q0 17 58.5 66.5t78.5 49.5l6 -2l99 -100q0 -18 -57 -68.5t-81 -50.5q-4 0 -4 2z" />
    <glyph glyph-name="aring" unicode="a&#x30a;" horiz-adv-x="937" 
d="M1008 35q1 0 7 0.5t13.5 1t15 0.5t12.5 -1.5t5 -4.5q0 -9 -31 -25q-77 -43 -166 -43q-166 0 -252 139q-218 -139 -401 -139q-72 0 -115 36.5t-43 98.5q0 87 82.5 240.5t183.5 259.5q1 1 9 8t16 15q-94 180 -258 180q-45 0 -45 4q0 27 79 47t120 20q104 0 170.5 -53.5
t115.5 -148.5l224 -441q99 -194 258 -194zM580 158q-5 5 -5 8l-182 358q-8 -10 -26 -41q-140 -212 -140 -323q0 -56 36 -90.5t102 -34.5q79 0 215 123zM377 1090q35 44 35 108q0 61 -33.5 110t-83.5 60q-35 -44 -35 -108v-3q0 -59 35 -107.5t82 -59.5zM410 1446
q72 0 125 -53t53 -133q0 -107 -97.5 -177.5t-226.5 -70.5q-74 0 -127 55t-53 131q0 106 97.5 177t228.5 71z" />
    <glyph glyph-name="ccedilla" unicode="c&#x327;" horiz-adv-x="800" 
d="M311 -121q-7 -1 -12.5 -2t-15 -2t-14 1t-1.5 7q10 18 24 45t21 37q-95 12 -160.5 80t-80.5 170q-11 67 -11 147q0 189 74 304.5t260 181.5q65 24 142 24q125 0 206 -90v-2q0 -4 -7 -11.5t-24 -17.5t-40 -18q-55 -22 -86 -22q-13 0 -15 4q-76 86 -178 86h-12
q-145 -98 -145 -389q0 -162 51 -248q30 -53 76.5 -87.5t101.5 -41.5q16 3 22 0h5q95 0 184 69q24 18 72.5 37.5t76.5 18.5q17 0 17 -6q0 -18 -64 -54t-121 -61q-110 -49 -196 -66l-12 -22q49 3 85.5 -19.5t51.5 -56.5t8 -75t-39 -72q-47 -47 -121 -75.5t-143 -19.5
q-3 1 -10 2.5t-9 2.5q-24 7 32 34q60 28 106 35q29 58 -4.5 115t-94.5 57z" />
    <glyph glyph-name="egrave" unicode="e&#x300;" 
d="M870 651q15 0 15 -6q1 -5 -12 -13.5t-33 -18t-43 -17.5l-559 -205q3 -18 6.5 -70t13 -88t31.5 -71q36 -59 90.5 -93t118.5 -34q56 0 94.5 15.5t85.5 53.5q22 16 71.5 35t77.5 19q15 0 15 -6t-8 -11q-96 -77 -224.5 -127.5t-259.5 -50.5q-74 0 -136 36t-99 99
q-54 91 -54 260q0 153 47.5 261t161.5 174q135 79 267 79q119 0 198 -79q12 -13 34 -52.5t46 -64.5t55 -25zM676 592q-17 9 -30 21.5t-20 22.5t-18.5 28.5t-17.5 27.5q-34 51 -87 80t-110 29h-12q-143 -96 -143 -369zM680 1090l2 -5q0 -14 -64 -39.5t-98 -25.5q-8 0 -12 4
l-248 248q0 12 64 38.5t98 26.5q10 0 12 -2z" />
    <glyph glyph-name="eacute" unicode="e&#x301;" 
d="M870 651q15 0 15 -6q1 -5 -12 -13.5t-33 -18t-43 -17.5l-559 -205q3 -18 6.5 -70t13 -88t31.5 -71q36 -59 90.5 -93t118.5 -34q56 0 94.5 15.5t85.5 53.5q22 16 71.5 35t77.5 19q15 0 15 -6t-8 -11q-96 -77 -224.5 -127.5t-259.5 -50.5q-74 0 -136 36t-99 99
q-54 91 -54 260q0 153 47.5 261t161.5 174q135 79 267 79q119 0 198 -79q12 -13 34 -52.5t46 -64.5t55 -25zM676 592q-17 9 -30 21.5t-20 22.5t-18.5 28.5t-17.5 27.5q-34 51 -87 80t-110 29h-12q-143 -96 -143 -369zM430 1079q-14 -16 -69 -37.5t-87 -21.5q-14 0 -14 6
q0 2 6 8l246 246q16 16 70.5 37.5t85.5 21.5q12 0 12 -6q0 -4 -4 -8z" />
    <glyph glyph-name="ecircumflex" unicode="e&#x302;" 
d="M870 651q15 0 15 -6q1 -5 -12 -13.5t-33 -18t-43 -17.5l-559 -205q3 -18 6.5 -70t13 -88t31.5 -71q36 -59 90.5 -93t118.5 -34q56 0 94.5 15.5t85.5 53.5q22 16 71.5 35t77.5 19q15 0 15 -6t-8 -11q-96 -77 -224.5 -127.5t-259.5 -50.5q-74 0 -136 36t-99 99
q-54 91 -54 260q0 153 47.5 261t161.5 174q135 79 267 79q119 0 198 -79q12 -13 34 -52.5t46 -64.5t55 -25zM676 592q-17 9 -30 21.5t-20 22.5t-18.5 28.5t-17.5 27.5q-34 51 -87 80t-110 29h-12q-143 -96 -143 -369zM383 1094q-11 -15 -67.5 -38.5t-88.5 -23.5q-16 0 -16 6
q0 4 2 6l172 222q13 15 69.5 38t88.5 23q10 0 14 -4l172 -223q0 -17 -62 -42.5t-96 -25.5q-10 0 -14 4l-111 140z" />
    <glyph glyph-name="edieresis" unicode="e&#x308;" 
d="M870 651q15 0 15 -6q1 -5 -12 -13.5t-33 -18t-43 -17.5l-559 -205q3 -18 6.5 -70t13 -88t31.5 -71q36 -59 90.5 -93t118.5 -34q56 0 94.5 15.5t85.5 53.5q22 16 71.5 35t77.5 19q15 0 15 -6t-8 -11q-96 -77 -224.5 -127.5t-259.5 -50.5q-74 0 -136 36t-99 99
q-54 91 -54 260q0 153 47.5 261t161.5 174q135 79 267 79q119 0 198 -79q12 -13 34 -52.5t46 -64.5t55 -25zM676 592q-17 9 -30 21.5t-20 22.5t-18.5 28.5t-17.5 27.5q-34 51 -87 80t-110 29h-12q-143 -96 -143 -369zM522 1169q-2 0 -2 5q0 17 59.5 66.5t79.5 49.5l103 -100
q2 -2 2 -4q0 -18 -58 -67.5t-81 -49.5q-4 0 -4 2zM178 1169q-2 0 -2 5q0 17 58.5 66.5t78.5 49.5l6 -2l99 -100q0 -18 -56.5 -68.5t-80.5 -50.5q-5 0 -5 2z" />
    <glyph glyph-name="igrave" unicode="i&#x300;" horiz-adv-x="466" 
d="M147 123v436q0 128 -51 201q-18 25 -39.5 34t-34 9t-12.5 4q0 10 54.5 33.5t87.5 29.5q10 2 28 2q46 0 79.5 -40t48 -95.5t14.5 -115.5v-437q0 -147 81 -147q7 0 21 2t18 2q15 0 15 -6q0 -8 -30.5 -25t-78.5 -32t-88 -15q-30 0 -52 11t-33.5 26t-18 38.5t-8 42t-1.5 42.5
zM414 1090l2 -5q0 -14 -64 -39.5t-98 -25.5q-8 0 -12 4l-248 248q0 12 64 38.5t98 26.5q10 0 12 -2z" />
    <glyph glyph-name="iacute" unicode="i&#x301;" horiz-adv-x="466" 
d="M147 123v436q0 128 -51 201q-18 25 -39.5 34t-34 9t-12.5 4q0 10 54.5 33.5t87.5 29.5q10 2 28 2q46 0 79.5 -40t48 -95.5t14.5 -115.5v-437q0 -147 81 -147q7 0 21 2t18 2q15 0 15 -6q0 -8 -30.5 -25t-78.5 -32t-88 -15q-30 0 -52 11t-33.5 26t-18 38.5t-8 42t-1.5 42.5
zM164 1079q-14 -16 -69 -37.5t-87 -21.5q-14 0 -14 6q0 2 6 8l246 246q16 16 70 37.5t85 21.5q13 0 13 -6q0 -4 -4 -8z" />
    <glyph glyph-name="icircumflex" unicode="i&#x302;" horiz-adv-x="466" 
d="M147 123v436q0 128 -51 201q-18 25 -39.5 34t-34 9t-12.5 4q0 10 54.5 33.5t87.5 29.5q10 2 28 2q46 0 79.5 -40t48 -95.5t14.5 -115.5v-437q0 -147 81 -147q7 0 21 2t18 2q15 0 15 -6q0 -8 -30.5 -25t-78.5 -32t-88 -15q-30 0 -52 11t-33.5 26t-18 38.5t-8 42t-1.5 42.5
zM117 1094q-11 -15 -67.5 -38.5t-88.5 -23.5q-16 0 -16 6q0 4 2 6l172 222q13 15 69 38t88 23q11 0 15 -4l172 -223q0 -17 -62 -42.5t-96 -25.5q-10 0 -14 4l-111 140z" />
    <glyph glyph-name="idieresis" unicode="i&#x308;" horiz-adv-x="466" 
d="M147 123v436q0 128 -51 201q-18 25 -39.5 34t-34 9t-12.5 4q0 10 54.5 33.5t87.5 29.5q10 2 28 2q46 0 79.5 -40t48 -95.5t14.5 -115.5v-437q0 -147 81 -147q7 0 21 2t18 2q15 0 15 -6q0 -8 -30.5 -25t-78.5 -32t-88 -15q-30 0 -52 11t-33.5 26t-18 38.5t-8 42t-1.5 42.5
zM256 1169q-2 0 -2 5q0 17 59.5 66.5t79.5 49.5l103 -100q2 -2 2 -4q0 -18 -58.5 -67.5t-81.5 -49.5q-4 0 -4 2zM-88 1169q-2 0 -2 5q0 17 58.5 66.5t78.5 49.5l6 -2l99 -100q0 -18 -57 -68.5t-81 -50.5q-4 0 -4 2z" />
    <glyph glyph-name="ntilde" unicode="n&#x303;" horiz-adv-x="1005" 
d="M145 -31v590q0 92 -33.5 167t-74.5 75q-1 0 -4.5 -0.5l-7 -1t-7 -0.5t-6 1.5t-2.5 4.5q0 20 68 43.5t104 23.5t66 -26t45 -72q116 83 276 98h31q104 0 177.5 -65t82.5 -164v-459q0 -147 80 -147q55 4 55 -2q0 -24 -77.5 -48t-122.5 -24q-52 0 -80.5 35t-28.5 125v436
q0 98 -68 170t-165 72h-17q-19 -2 -46.5 -37t-49 -89t-21.5 -102v-542q0 -15 -62 -41.5t-97 -26.5q-15 0 -15 6zM313 1157q-69 -35 -123 -39q-24 0 -11 14q9 10 34 21q78 40 138 62t95.5 29.5t65.5 2.5t43 -12.5t33 -22.5q19 -13 28 -17.5t30.5 -5t47.5 12.5q69 35 121 39
q24 0 13 -14q-9 -10 -33 -21q-79 -40 -139 -62t-95.5 -29.5t-66 -2.5t-43 12t-33.5 23q-19 13 -28.5 17.5t-30.5 5t-46 -12.5z" />
    <glyph glyph-name="ograve" unicode="o&#x300;" 
d="M395 848q77 24 142 24q75 0 137.5 -36t99.5 -99q51 -84 51 -252q0 -93 -10 -159q-15 -104 -87.5 -188.5t-173.5 -129.5t-206 -45q-74 0 -136 36t-99 99q-52 86 -52 262q0 82 11 152q17 119 105.5 207.5t217.5 128.5zM393 801h-14q-143 -97 -143 -379q0 -82 9.5 -143.5
t39.5 -114.5q34 -60 87 -94.5t115 -34.5l19 2q145 90 145 389q0 160 -51 248q-36 59 -90.5 93t-116.5 34zM680 1090l2 -5q0 -14 -64 -39.5t-98 -25.5q-8 0 -12 4l-248 248q0 12 64 38.5t98 26.5q10 0 12 -2z" />
    <glyph glyph-name="oacute" unicode="o&#x301;" 
d="M395 848q77 24 142 24q75 0 137.5 -36t99.5 -99q51 -84 51 -252q0 -93 -10 -159q-15 -104 -87.5 -188.5t-173.5 -129.5t-206 -45q-74 0 -136 36t-99 99q-52 86 -52 262q0 82 11 152q17 119 105.5 207.5t217.5 128.5zM393 801h-14q-143 -97 -143 -379q0 -82 9.5 -143.5
t39.5 -114.5q34 -60 87 -94.5t115 -34.5l19 2q145 90 145 389q0 160 -51 248q-36 59 -90.5 93t-116.5 34zM430 1079q-14 -16 -69 -37.5t-87 -21.5q-14 0 -14 6q0 2 6 8l246 246q16 16 70.5 37.5t85.5 21.5q12 0 12 -6q0 -4 -4 -8z" />
    <glyph glyph-name="ocircumflex" unicode="o&#x302;" 
d="M395 848q77 24 142 24q75 0 137.5 -36t99.5 -99q51 -84 51 -252q0 -93 -10 -159q-15 -104 -87.5 -188.5t-173.5 -129.5t-206 -45q-74 0 -136 36t-99 99q-52 86 -52 262q0 82 11 152q17 119 105.5 207.5t217.5 128.5zM393 801h-14q-143 -97 -143 -379q0 -82 9.5 -143.5
t39.5 -114.5q34 -60 87 -94.5t115 -34.5l19 2q145 90 145 389q0 160 -51 248q-36 59 -90.5 93t-116.5 34zM383 1094q-11 -15 -67.5 -38.5t-88.5 -23.5q-16 0 -16 6q0 4 2 6l172 222q13 15 69.5 38t88.5 23q10 0 14 -4l172 -223q0 -17 -62 -42.5t-96 -25.5q-10 0 -14 4
l-111 140z" />
    <glyph glyph-name="otilde" unicode="o&#x303;" 
d="M395 848q77 24 142 24q75 0 137.5 -36t99.5 -99q51 -84 51 -252q0 -93 -10 -159q-15 -104 -87.5 -188.5t-173.5 -129.5t-206 -45q-74 0 -136 36t-99 99q-52 86 -52 262q0 82 11 152q17 119 105.5 207.5t217.5 128.5zM393 801h-14q-143 -97 -143 -379q0 -82 9.5 -143.5
t39.5 -114.5q34 -60 87 -94.5t115 -34.5l19 2q145 90 145 389q0 160 -51 248q-36 59 -90.5 93t-116.5 34zM283 1157q-69 -35 -123 -39q-24 0 -12 14q9 10 34 21q78 40 138 62t95.5 29.5t65.5 2.5t43 -12.5t33 -22.5q19 -13 28.5 -17.5t31 -5t47.5 12.5q69 35 120 39
q24 0 13 -14q-9 -10 -33 -21q-79 -40 -139 -62t-95.5 -29.5t-66 -2.5t-43 12t-33.5 23q-19 13 -28 17.5t-30 5t-46 -12.5z" />
    <glyph glyph-name="odieresis" unicode="o&#x308;" 
d="M395 848q77 24 142 24q75 0 137.5 -36t99.5 -99q51 -84 51 -252q0 -93 -10 -159q-15 -104 -87.5 -188.5t-173.5 -129.5t-206 -45q-74 0 -136 36t-99 99q-52 86 -52 262q0 82 11 152q17 119 105.5 207.5t217.5 128.5zM393 801h-14q-143 -97 -143 -379q0 -82 9.5 -143.5
t39.5 -114.5q34 -60 87 -94.5t115 -34.5l19 2q145 90 145 389q0 160 -51 248q-36 59 -90.5 93t-116.5 34zM522 1169q-2 0 -2 5q0 17 59.5 66.5t79.5 49.5l103 -100q2 -2 2 -4q0 -18 -58 -67.5t-81 -49.5q-4 0 -4 2zM178 1169q-2 0 -2 5q0 17 58.5 66.5t78.5 49.5l6 -2
l99 -100q0 -18 -56.5 -68.5t-80.5 -50.5q-5 0 -5 2z" />
    <glyph glyph-name="ugrave" unicode="u&#x300;" horiz-adv-x="1007" 
d="M862 276v-16q0 -79 33.5 -152t73.5 -73h12q14 0 14 -6q0 -18 -67 -42t-105 -24q-37 0 -66 28t-44 70q-65 -46 -146 -72t-159 -26q-113 0 -188 71.5t-75 180.5v440q0 146 -79 146q-6 0 -21 -2t-18 -2q-17 0 -17 6q0 22 79 45.5t122 23.5q44 0 68 -18l2 -2q41 -33 41 -137
v-439q0 -96 66.5 -168.5t164.5 -72.5h16q30 2 73.5 75t43.5 150v395q0 146 -80 146q-6 0 -21 -2t-18 -2q-16 0 -16 6q0 22 79 45.5t122 23.5t67 -18l2 -2q41 -33 41 -137v-439zM680 1090l2 -5q0 -14 -64 -39.5t-98 -25.5q-8 0 -12 4l-248 248q0 12 64 38.5t98 26.5
q10 0 12 -2z" />
    <glyph glyph-name="uacute" unicode="u&#x301;" horiz-adv-x="1007" 
d="M862 276v-16q0 -79 33.5 -152t73.5 -73h12q14 0 14 -6q0 -18 -67 -42t-105 -24q-37 0 -66 28t-44 70q-65 -46 -146 -72t-159 -26q-113 0 -188 71.5t-75 180.5v440q0 146 -79 146q-6 0 -21 -2t-18 -2q-17 0 -17 6q0 22 79 45.5t122 23.5q44 0 68 -18l2 -2q41 -33 41 -137
v-439q0 -96 66.5 -168.5t164.5 -72.5h16q30 2 73.5 75t43.5 150v395q0 146 -80 146q-6 0 -21 -2t-18 -2q-16 0 -16 6q0 22 79 45.5t122 23.5t67 -18l2 -2q41 -33 41 -137v-439zM430 1079q-14 -16 -69 -37.5t-87 -21.5q-14 0 -14 6q0 2 6 8l246 246q16 16 70.5 37.5
t85.5 21.5q12 0 12 -6q0 -4 -4 -8z" />
    <glyph glyph-name="ucircumflex" unicode="u&#x302;" horiz-adv-x="1007" 
d="M862 276v-16q0 -79 33.5 -152t73.5 -73h12q14 0 14 -6q0 -18 -67 -42t-105 -24q-37 0 -66 28t-44 70q-65 -46 -146 -72t-159 -26q-113 0 -188 71.5t-75 180.5v440q0 146 -79 146q-6 0 -21 -2t-18 -2q-17 0 -17 6q0 22 79 45.5t122 23.5q44 0 68 -18l2 -2q41 -33 41 -137
v-439q0 -96 66.5 -168.5t164.5 -72.5h16q30 2 73.5 75t43.5 150v395q0 146 -80 146q-6 0 -21 -2t-18 -2q-16 0 -16 6q0 22 79 45.5t122 23.5t67 -18l2 -2q41 -33 41 -137v-439zM383 1094q-11 -15 -67.5 -38.5t-88.5 -23.5q-16 0 -16 6q0 4 2 6l172 222q13 15 69.5 38
t88.5 23q10 0 14 -4l172 -223q0 -17 -62 -42.5t-96 -25.5q-10 0 -14 4l-111 140z" />
    <glyph glyph-name="udieresis" unicode="u&#x308;" horiz-adv-x="1007" 
d="M862 276v-16q0 -79 33.5 -152t73.5 -73h12q14 0 14 -6q0 -18 -67 -42t-105 -24q-37 0 -66 28t-44 70q-65 -46 -146 -72t-159 -26q-113 0 -188 71.5t-75 180.5v440q0 146 -79 146q-6 0 -21 -2t-18 -2q-17 0 -17 6q0 22 79 45.5t122 23.5q44 0 68 -18l2 -2q41 -33 41 -137
v-439q0 -96 66.5 -168.5t164.5 -72.5h16q30 2 73.5 75t43.5 150v395q0 146 -80 146q-6 0 -21 -2t-18 -2q-16 0 -16 6q0 22 79 45.5t122 23.5t67 -18l2 -2q41 -33 41 -137v-439zM522 1169q-2 0 -2 5q0 17 59.5 66.5t79.5 49.5l103 -100q2 -2 2 -4q0 -18 -58 -67.5t-81 -49.5
q-4 0 -4 2zM178 1169q-2 0 -2 5q0 17 58.5 66.5t78.5 49.5l6 -2l99 -100q0 -18 -56.5 -68.5t-80.5 -50.5q-5 0 -5 2z" />
    <glyph glyph-name="yacute" unicode="y&#x301;" horiz-adv-x="997" 
d="M412 -31l-125 441q-113 393 -289 393q-9 0 -25 -2t-20 -2q-14 0 -14 6q0 22 77.5 44.5t118.5 22.5q117 1 191 -94.5t135 -306.5l47 -162l29 103q69 250 178 357.5t262 107.5q80 0 80 -13q0 -14 -64.5 -39.5t-93.5 -25.5h-14q-40 0 -88 -98.5t-86 -231.5l-250 -881
q-72 -253 -179.5 -358.5t-258.5 -103.5q-84 0 -84 10q0 17 66.5 42t96.5 25h9q42 0 89.5 96.5t86.5 231.5zM518 1079q-14 -16 -69 -37.5t-87 -21.5q-14 0 -14 6q0 2 6 8l246 246q16 16 70.5 37.5t85.5 21.5q12 0 12 -6q0 -4 -4 -8z" />
    <glyph glyph-name="ydieresis" unicode="y&#x308;" horiz-adv-x="997" 
d="M412 -31l-125 441q-113 393 -289 393q-9 0 -25 -2t-20 -2q-14 0 -14 6q0 22 77.5 44.5t118.5 22.5q117 1 191 -94.5t135 -306.5l47 -162l29 103q69 250 178 357.5t262 107.5q80 0 80 -13q0 -14 -64.5 -39.5t-93.5 -25.5h-14q-40 0 -88 -98.5t-86 -231.5l-250 -881
q-72 -253 -179.5 -358.5t-258.5 -103.5q-84 0 -84 10q0 17 66.5 42t96.5 25h9q42 0 89.5 96.5t86.5 231.5zM551 1169q-2 0 -2 5q0 17 59.5 66.5t79.5 49.5l103 -100q2 -2 2 -4q0 -18 -58.5 -67.5t-81.5 -49.5q-4 0 -4 2zM207 1169q-2 0 -2 5q0 17 58.5 66.5t78.5 49.5l6 -2
l98 -100q0 -18 -56.5 -68.5t-80.5 -50.5q-4 0 -4 2z" />
    <glyph glyph-name="Amacron" unicode="A&#x304;" horiz-adv-x="1347" 
d="M469 1167q-19 0 14 38q10 12 23 24q28 25 56 43t38 18h148q6 0 6 -4l467 -1251h92q29 0 1 -19q-11 -7 -28 -16q-69 -34 -115 -37h-202q-26 0 -8 16q11 10 34 21q21 9 45 18l-200 535h-377l-187 -502q-2 -4 -10 -16h111q30 0 0 -21l-25 -14q-76 -37 -121 -37h-196
q-27 0 -7 18q11 9 31 19q63 29 107 35l424 1132h-121zM813 625l-162 434l-162 -434h324zM287 1456q-15 0 -15 6q0 16 64 42t96 26h627q14 0 14 -6q0 -17 -64.5 -42.5t-95.5 -25.5h-626z" />
    <glyph glyph-name="amacron" unicode="a&#x304;" horiz-adv-x="937" 
d="M1008 35q1 0 7 0.5t13.5 1t15 0.5t12.5 -1.5t5 -4.5q0 -9 -31 -25q-77 -43 -166 -43q-166 0 -252 139q-218 -139 -401 -139q-72 0 -115 36.5t-43 98.5q0 87 82.5 240.5t183.5 259.5q1 1 9 8t16 15q-94 180 -258 180q-45 0 -45 4q0 27 79 47t120 20q104 0 170.5 -53.5
t115.5 -148.5l224 -441q99 -194 258 -194zM580 158q-5 5 -5 8l-182 358q-8 -10 -26 -41q-140 -212 -140 -323q0 -56 36 -90.5t102 -34.5q79 0 215 123zM-49 1044q-14 0 -14 7q0 16 63.5 41.5t95.5 25.5h627q14 0 14 -6q0 -17 -64 -42.5t-95 -25.5h-627z" />
    <glyph glyph-name="Abreve" unicode="A&#x306;" horiz-adv-x="1347" 
d="M469 1167q-19 0 14 38q10 12 23 24q28 25 56 43t38 18h148q6 0 6 -4l467 -1251h92q29 0 1 -19q-11 -7 -28 -16q-69 -34 -115 -37h-202q-26 0 -8 16q11 10 34 21q21 9 45 18l-200 535h-377l-187 -502q-2 -4 -10 -16h111q30 0 0 -21l-25 -14q-76 -37 -121 -37h-196
q-27 0 -7 18q11 9 31 19q63 29 107 35l424 1132h-121zM813 625l-162 434l-162 -434h324zM410 1649q0 14 63.5 40.5t95.5 26.5q15 0 15 -6q0 -66 40 -114t99 -54q37 43 37 107q0 13 64 40t98 27q14 0 14 -6q0 -102 -103.5 -173t-234.5 -71q-78 0 -133 52.5t-55 130.5z" />
    <glyph glyph-name="abreve" unicode="a&#x306;" horiz-adv-x="937" 
d="M1008 35q1 0 7 0.5t13.5 1t15 0.5t12.5 -1.5t5 -4.5q0 -9 -31 -25q-77 -43 -166 -43q-166 0 -252 139q-218 -139 -401 -139q-72 0 -115 36.5t-43 98.5q0 87 82.5 240.5t183.5 259.5q1 1 9 8t16 15q-94 180 -258 180q-45 0 -45 4q0 27 79 47t120 20q104 0 170.5 -53.5
t115.5 -148.5l224 -441q99 -194 258 -194zM580 158q-5 5 -5 8l-182 358q-8 -10 -26 -41q-140 -212 -140 -323q0 -56 36 -90.5t102 -34.5q79 0 215 123zM74 1237q0 14 63.5 41t95.5 27q15 0 15 -7q0 -66 40 -114t99 -54q37 43 37 107q0 13 64 40.5t98 27.5q14 0 14 -7
q0 -102 -103.5 -172.5t-234.5 -70.5q-79 0 -133.5 52.5t-54.5 129.5z" />
    <glyph glyph-name="Aogonek" unicode="A&#x328;" horiz-adv-x="1347" 
d="M1221 35h92q14 0 14 -6q0 -10 -49.5 -32t-87.5 -30q-14 -22 -14 -59q0 -48 33 -82.5t69 -34.5q9 0 22 2t17 2q12 0 12 -6q0 -19 -72.5 -45.5t-117.5 -26.5q-61 0 -99.5 38.5t-38.5 90.5q0 68 64 117h-96q-15 0 -15 6q0 8 24.5 22t61.5 27l-200 535h-377l-187 -502
q-2 -4 -10 -16h111q14 0 14 -6q0 -14 -64.5 -40t-95.5 -26h-196q-15 0 -15 6q0 14 54 37.5t92 28.5l424 1132h-121q-6 0 -6 4q0 21 58.5 70t78.5 49h148q6 0 6 -4zM813 625l-162 434l-162 -434h324z" />
    <glyph glyph-name="aogonek" unicode="a&#x328;" horiz-adv-x="937" 
d="M1006 37q8 0 10 -2q45 6 45 -4q0 -9 -31 -25q-57 -32 -117 -39q-16 -26 -16 -59q0 -51 37.5 -86.5t73.5 -30.5q47 10 44 -3q-1 -3 -5 -7q-22 -22 -83 -43t-104 -21q-45 0 -79.5 23.5t-48.5 57t-6.5 74t38.5 71.5q16 16 31 28q-116 24 -183 131q-218 -139 -401 -139
q-72 0 -115 36.5t-43 98.5q0 87 82.5 240.5t183.5 259.5q1 1 9 8t16 15q-94 180 -258 180q-45 0 -45 4q0 27 79 47t120 20q104 0 170.5 -53.5t115.5 -148.5l224 -441q89 -180 231 -194q8 2 25 2zM580 158q-5 5 -5 8l-182 358q-8 -10 -26 -41q-140 -212 -140 -323
q0 -56 36 -90.5t102 -34.5q79 0 215 123z" />
    <glyph glyph-name="Cacute" unicode="C&#x301;" horiz-adv-x="1337" 
d="M1268 1137q49 10 49 0v-50q0 -18 -86 -51q-2 0 -16.5 -4.5t-26.5 -7.5t-27.5 -4.5t-17.5 4.5q-85 91 -201 142t-240 51q-104 0 -194 -52t-148 -134t-91 -180t-33 -194q0 -124 48.5 -238.5t130.5 -198.5t195.5 -134.5t237.5 -50.5q94 0 162 32.5t137 104.5q10 12 42 27
t66 24q29 8 45 8.5t17 -6.5v-47q0 -13 -48 -35.5t-79 -27.5q-55 -37 -137 -72q-190 -80 -351 -80q-128 0 -246.5 50t-205 134.5t-138 202t-51.5 246.5q0 122 44 232t120.5 192.5t176.5 143.5t214.5 92.5t231.5 31.5q240 0 420 -151zM709 1491q-14 -16 -69 -37.5t-87 -21.5
q-14 0 -14 6q0 2 6 8l246 246q16 16 70 37.5t85 21.5q12 0 12 -6q0 -4 -4 -8z" />
    <glyph glyph-name="cacute" unicode="c&#x301;" horiz-adv-x="800" 
d="M672 733q-55 -22 -86 -22q-13 0 -15 4q-76 86 -178 86h-12q-145 -98 -145 -389q0 -162 51 -248q34 -59 88.5 -94t116.5 -35q95 0 184 69q24 18 72.5 37.5t76.5 18.5q17 0 17 -6q0 -18 -64 -54t-121 -61q-171 -76 -307 -76q-108 0 -184.5 70.5t-93.5 181.5q-11 67 -11 147
q0 189 74 304.5t260 181.5q65 24 142 24q125 0 206 -90v-2q0 -4 -7 -11.5t-24 -17.5t-40 -18zM430 1079q-14 -16 -69 -37.5t-87 -21.5q-14 0 -14 6q0 2 6 8l246 246q16 16 70.5 37.5t85.5 21.5q12 0 12 -6q0 -4 -4 -8z" />
    <glyph glyph-name="Cdotaccent" unicode="C&#x307;" horiz-adv-x="1337" 
d="M1268 1137q49 10 49 0v-50q0 -18 -86 -51q-2 0 -16.5 -4.5t-26.5 -7.5t-27.5 -4.5t-17.5 4.5q-85 91 -201 142t-240 51q-104 0 -194 -52t-148 -134t-91 -180t-33 -194q0 -124 48.5 -238.5t130.5 -198.5t195.5 -134.5t237.5 -50.5q94 0 162 32.5t137 104.5q10 12 42 27
t66 24q29 8 45 8.5t17 -6.5v-47q0 -13 -48 -35.5t-79 -27.5q-55 -37 -137 -72q-190 -80 -351 -80q-128 0 -246.5 50t-205 134.5t-138 202t-51.5 246.5q0 122 44 232t120.5 192.5t176.5 143.5t214.5 92.5t231.5 31.5q240 0 420 -151zM547 1581l-2 2q0 18 59 68.5t80 50.5
l102 -100q2 -3 2 -5q0 -18 -57 -67t-80 -49q-6 0 -6 2z" />
    <glyph glyph-name="cdotaccent" unicode="c&#x307;" horiz-adv-x="800" 
d="M672 733q-55 -22 -86 -22q-13 0 -15 4q-76 86 -178 86h-12q-145 -98 -145 -389q0 -162 51 -248q34 -59 88.5 -94t116.5 -35q95 0 184 69q24 18 72.5 37.5t76.5 18.5q17 0 17 -6q0 -18 -64 -54t-121 -61q-171 -76 -307 -76q-108 0 -184.5 70.5t-93.5 181.5q-11 67 -11 147
q0 189 74 304.5t260 181.5q65 24 142 24q125 0 206 -90v-2q0 -4 -7 -11.5t-24 -17.5t-40 -18zM350 1169l-2 2q0 18 59 68.5t80 50.5l103 -100q2 -2 2 -4q0 -18 -57 -67.5t-80 -49.5q-6 0 -6 2z" />
    <glyph glyph-name="Ccaron" unicode="C&#x30c;" horiz-adv-x="1337" 
d="M1268 1137q49 10 49 0v-50q0 -18 -86 -51q-2 0 -16.5 -4.5t-26.5 -7.5t-27.5 -4.5t-17.5 4.5q-85 91 -201 142t-240 51q-104 0 -194 -52t-148 -134t-91 -180t-33 -194q0 -124 48.5 -238.5t130.5 -198.5t195.5 -134.5t237.5 -50.5q94 0 162 32.5t137 104.5q10 12 42 27
t66 24q29 8 45 8.5t17 -6.5v-47q0 -13 -48 -35.5t-79 -27.5q-55 -37 -137 -72q-190 -80 -351 -80q-128 0 -246.5 50t-205 134.5t-138 202t-51.5 246.5q0 122 44 232t120.5 192.5t176.5 143.5t214.5 92.5t231.5 31.5q240 0 420 -151zM836 1675q10 15 66.5 38.5t88.5 23.5
q17 0 17 -8q0 -3 -2 -5l-172 -221q-13 -15 -70 -38t-90 -23q-8 0 -12 4l-173 221v2q0 17 62 42.5t96 25.5q11 0 15 -4l110 -140z" />
    <glyph glyph-name="ccaron" unicode="c&#x30c;" horiz-adv-x="800" 
d="M672 733q-55 -22 -86 -22q-13 0 -15 4q-76 86 -178 86h-12q-145 -98 -145 -389q0 -162 51 -248q34 -59 88.5 -94t116.5 -35q95 0 184 69q24 18 72.5 37.5t76.5 18.5q17 0 17 -6q0 -18 -64 -54t-121 -61q-171 -76 -307 -76q-108 0 -184.5 70.5t-93.5 181.5q-11 67 -11 147
q0 189 74 304.5t260 181.5q65 24 142 24q125 0 206 -90v-2q0 -4 -7 -11.5t-24 -17.5t-40 -18zM555 1264q10 14 67 37.5t89 23.5q16 0 16 -8q0 -2 -2 -4l-172 -221q-13 -15 -70 -38.5t-90 -23.5q-8 0 -12 4l-172 221v2q0 17 62 42.5t96 25.5q10 0 14 -4l111 -139z" />
    <glyph glyph-name="Dcaron" unicode="D&#x30c;" horiz-adv-x="1454" 
d="M752 1288q133 0 250 -48.5t206 -137.5q87 -89 136 -203.5t49 -241.5t-49.5 -244.5t-139.5 -207.5q-115 -115 -269 -178.5t-329 -63.5h-530q-23 0 -8 15q10 10 34 22q63 29 109 35v1182h-133q-26 0 -9 15q9 10 33 21q80 35 121 35h529zM385 1217v-1182h367q161 0 286 125
q88 88 134.5 200.5t46.5 235.5q0 127 -48 240t-135 200q-87 85 -197.5 133t-232.5 48h-221zM813 1675q10 14 67 38t89 24q16 0 16 -8q0 -3 -2 -5l-172 -221q-13 -15 -70 -38t-90 -23q-8 0 -12 4l-172 221v2q0 17 62 42.5t96 25.5q10 0 14 -4l111 -140z" />
    <glyph glyph-name="dcaron" unicode="d&#x30c;" horiz-adv-x="970" 
d="M907 35q14 0 39 4q15 0 15 -6q0 -23 -78.5 -46.5t-120.5 -23.5q-96 0 -107 107q-62 -46 -147 -76.5t-154 -30.5q-76 0 -140 36.5t-101 100.5q-52 88 -52 260q0 58 11 152q20 149 157.5 254.5t305.5 105.5q64 0 116 -24v997q0 18 123 49q68 15 105 15q18 0 18 -4
q-72 -491 -72 -815v-908q0 -147 82 -147zM651 389q0 64 -1.5 100.5t-13 91t-34.5 93.5q-36 59 -90.5 93t-116.5 34h-14q-145 -93 -145 -379q0 -167 64.5 -276t188.5 -109l19 2q71 46 107 138t36 212zM434 1264q8 14 59.5 37.5t79.5 23.5q17 0 17 -8q0 -2 -2 -4l-156 -221
q-12 -15 -62.5 -38.5t-80.5 -23.5q-9 0 -13 4l-153 221v2q0 17 55 42.5t86 25.5q12 0 12 -4l101 -139z" />
    <glyph glyph-name="Emacron" unicode="E&#x304;" horiz-adv-x="1167" 
d="M223 1288h836q14 0 14 -4v-49q0 -9 -26 -24t-62 -27q-23 -8 -43 -12t-31.5 -3.5t-11.5 5.5v43h-514v-519h551q33 0 -5 -22l-22 -12q-72 -37 -121 -37h-403v-592h604q22 16 70 33q24 9 44.5 13.5t32 4t11.5 -5.5v-49q0 -13 -41 -31q-72 -37 -121 -37h-909q-23 0 -8 15
q10 10 34 22q63 29 109 35v1182h-135q-24 0 -8 15q11 10 34 21q80 35 121 35zM197 1456q-15 0 -15 6q0 16 64 42t96 26h627q14 0 14 -6q0 -17 -64.5 -42.5t-95.5 -25.5h-626z" />
    <glyph glyph-name="emacron" unicode="e&#x304;" 
d="M870 651q15 0 15 -6q1 -5 -12 -13.5t-33 -18t-43 -17.5l-559 -205q3 -18 6.5 -70t13 -88t31.5 -71q36 -59 90.5 -93t118.5 -34q56 0 94.5 15.5t85.5 53.5q22 16 71.5 35t77.5 19q15 0 15 -6t-8 -11q-96 -77 -224.5 -127.5t-259.5 -50.5q-74 0 -136 36t-99 99
q-54 91 -54 260q0 153 47.5 261t161.5 174q135 79 267 79q119 0 198 -79q12 -13 34 -52.5t46 -64.5t55 -25zM676 592q-17 9 -30 21.5t-20 22.5t-18.5 28.5t-17.5 27.5q-34 51 -87 80t-110 29h-12q-143 -96 -143 -369zM86 1044q-14 0 -14 7q0 16 63.5 41.5t95.5 25.5h627
q14 0 14 -6q0 -17 -64 -42.5t-95 -25.5h-627z" />
    <glyph glyph-name="Ebreve" unicode="E&#x306;" horiz-adv-x="1167" 
d="M223 1288h836q14 0 14 -4v-49q0 -9 -26 -24t-62 -27q-23 -8 -43 -12t-31.5 -3.5t-11.5 5.5v43h-514v-519h551q33 0 -5 -22l-22 -12q-72 -37 -121 -37h-403v-592h604q22 16 70 33q24 9 44.5 13.5t32 4t11.5 -5.5v-49q0 -13 -41 -31q-72 -37 -121 -37h-909q-23 0 -8 15
q10 10 34 22q63 29 109 35v1182h-135q-24 0 -8 15q11 10 34 21q80 35 121 35zM319 1649q0 14 64 40.5t96 26.5q15 0 15 -6q0 -66 40 -114t99 -54q37 43 37 107q0 13 63.5 40t97.5 27q15 0 15 -6q0 -102 -103.5 -173t-234.5 -71q-79 0 -134 53t-55 130z" />
    <glyph glyph-name="ebreve" unicode="e&#x306;" 
d="M870 651q15 0 15 -6q1 -5 -12 -13.5t-33 -18t-43 -17.5l-559 -205q3 -18 6.5 -70t13 -88t31.5 -71q36 -59 90.5 -93t118.5 -34q56 0 94.5 15.5t85.5 53.5q22 16 71.5 35t77.5 19q15 0 15 -6t-8 -11q-96 -77 -224.5 -127.5t-259.5 -50.5q-74 0 -136 36t-99 99
q-54 91 -54 260q0 153 47.5 261t161.5 174q135 79 267 79q119 0 198 -79q12 -13 34 -52.5t46 -64.5t55 -25zM676 592q-17 9 -30 21.5t-20 22.5t-18.5 28.5t-17.5 27.5q-34 51 -87 80t-110 29h-12q-143 -96 -143 -369zM209 1237q0 14 64 41t96 27q14 0 14 -7q0 -66 40 -114
t99 -54q37 43 37 107q0 13 64 40.5t98 27.5q14 0 14 -7q0 -102 -103.5 -172.5t-234.5 -70.5q-79 0 -133.5 52.5t-54.5 129.5z" />
    <glyph glyph-name="Edotaccent" unicode="E&#x307;" horiz-adv-x="1167" 
d="M223 1288h836q14 0 14 -4v-49q0 -9 -26 -24t-62 -27q-23 -8 -43 -12t-31.5 -3.5t-11.5 5.5v43h-514v-519h551q33 0 -5 -22l-22 -12q-72 -37 -121 -37h-403v-592h604q22 16 70 33q24 9 44.5 13.5t32 4t11.5 -5.5v-49q0 -13 -41 -31q-72 -37 -121 -37h-909q-23 0 -8 15
q10 10 34 22q63 29 109 35v1182h-135q-24 0 -8 15q11 10 34 21q80 35 121 35zM463 1581l-2 2q0 18 59 68.5t80 50.5l102 -100q3 -3 3 -5q0 -18 -57.5 -67t-80.5 -49q-6 0 -6 2z" />
    <glyph glyph-name="edotaccent" unicode="e&#x307;" 
d="M870 651q15 0 15 -6q1 -5 -12 -13.5t-33 -18t-43 -17.5l-559 -205q3 -18 6.5 -70t13 -88t31.5 -71q36 -59 90.5 -93t118.5 -34q56 0 94.5 15.5t85.5 53.5q22 16 71.5 35t77.5 19q15 0 15 -6t-8 -11q-96 -77 -224.5 -127.5t-259.5 -50.5q-74 0 -136 36t-99 99
q-54 91 -54 260q0 153 47.5 261t161.5 174q135 79 267 79q119 0 198 -79q12 -13 34 -52.5t46 -64.5t55 -25zM676 592q-17 9 -30 21.5t-20 22.5t-18.5 28.5t-17.5 27.5q-34 51 -87 80t-110 29h-12q-143 -96 -143 -369zM350 1169l-2 2q0 18 59 68.5t80 50.5l103 -100
q2 -2 2 -4q0 -18 -57 -67.5t-80 -49.5q-6 0 -6 2z" />
    <glyph glyph-name="Eogonek" unicode="E&#x328;" horiz-adv-x="1167" 
d="M223 1288h836q14 0 14 -4v-49q0 -9 -26 -24t-62 -27q-23 -8 -43 -12t-31.5 -3.5t-11.5 5.5v43h-514v-519h551q33 0 -5 -22l-22 -12q-72 -37 -121 -37h-403v-592h604q22 16 70 33q24 9 44.5 13.5t32 4t11.5 -5.5v-49q0 -13 -41 -31q-69 -31 -109 -37q-14 -22 -14 -55
q0 -51 37.5 -86.5t73.5 -30.5q47 10 44 -3q-1 -3 -5 -7q-22 -22 -83 -43t-104 -21q-45 0 -79.5 23.5t-48.5 57t-6.5 74t38.5 71.5q6 8 22 20h-796q-23 0 -8 15q10 10 34 22q63 29 109 35v1182h-135q-24 0 -8 15q11 10 34 21q80 35 121 35z" />
    <glyph glyph-name="eogonek" unicode="e&#x328;" 
d="M870 651q15 0 15 -6q1 -5 -12 -13.5t-33 -18t-43 -17.5l-559 -205q3 -18 6.5 -70t13 -88t31.5 -71q36 -59 90.5 -93t118.5 -34q27 0 39 2l30 6q51 13 111 61q22 16 71.5 35t77.5 19q15 0 15 -6t-8 -11q-94 -79 -228 -129q-2 -2 -4 -2q-22 -12 -61 -24q-23 -30 -23 -68
q0 -51 37.5 -86.5t73.5 -30.5q47 10 44 -3q-1 -3 -5 -7q-22 -22 -83 -42.5t-104 -20.5q-45 0 -79.5 23t-48.5 57t-6.5 74t38.5 71l12 12q-16 -2 -47 -2q-74 0 -136 36t-99 99q-54 91 -54 260q0 153 47.5 261t161.5 174q135 79 267 79q119 0 198 -79q12 -13 34 -52.5
t46 -64.5t55 -25zM676 592q-17 9 -30 21.5t-20 22.5t-18.5 28.5t-17.5 27.5q-34 51 -87 80t-110 29h-12q-143 -96 -143 -369z" />
    <glyph glyph-name="Ecaron" unicode="E&#x30c;" horiz-adv-x="1167" 
d="M223 1288h836q14 0 14 -4v-49q0 -9 -26 -24t-62 -27q-23 -8 -43 -12t-31.5 -3.5t-11.5 5.5v43h-514v-519h551q33 0 -5 -22l-22 -12q-72 -37 -121 -37h-403v-592h604q22 16 70 33q24 9 44.5 13.5t32 4t11.5 -5.5v-49q0 -13 -41 -31q-72 -37 -121 -37h-909q-23 0 -8 15
q10 10 34 22q63 29 109 35v1182h-135q-24 0 -8 15q11 10 34 21q80 35 121 35zM711 1675q10 15 66.5 38.5t88.5 23.5q17 0 17 -8q0 -3 -2 -5l-172 -221q-13 -15 -70 -38t-90 -23q-8 0 -12 4l-172 221v2q0 17 61.5 42.5t95.5 25.5q11 0 15 -4l110 -140z" />
    <glyph glyph-name="ecaron" unicode="e&#x30c;" 
d="M870 651q15 0 15 -6q1 -5 -12 -13.5t-33 -18t-43 -17.5l-559 -205q3 -18 6.5 -70t13 -88t31.5 -71q36 -59 90.5 -93t118.5 -34q56 0 94.5 15.5t85.5 53.5q22 16 71.5 35t77.5 19q15 0 15 -6t-8 -11q-96 -77 -224.5 -127.5t-259.5 -50.5q-74 0 -136 36t-99 99
q-54 91 -54 260q0 153 47.5 261t161.5 174q135 79 267 79q119 0 198 -79q12 -13 34 -52.5t46 -64.5t55 -25zM676 592q-17 9 -30 21.5t-20 22.5t-18.5 28.5t-17.5 27.5q-34 51 -87 80t-110 29h-12q-143 -96 -143 -369zM555 1264q10 14 67 37.5t89 23.5q16 0 16 -8q0 -2 -2 -4
l-172 -221q-13 -15 -70 -38.5t-90 -23.5q-8 0 -12 4l-172 221v2q0 17 62 42.5t96 25.5q10 0 14 -4l111 -139z" />
    <glyph glyph-name="Gbreve" unicode="G&#x306;" horiz-adv-x="1419" 
d="M1268 1137q49 10 49 0v-50q0 -19 -88 -51q-1 0 -10.5 -3t-20 -6t-22 -5.5t-21 -2t-12.5 4.5l-51 49q-35 27 -58 41q-148 103 -334 103q-161 0 -286 -125q-86 -86 -132 -199.5t-46 -235.5q0 -127 48 -240.5t134 -199.5q85 -86 196 -134t234 -48q89 0 159 33t136 100v360
h-357q-23 0 -8 15q12 10 35 22q72 35 121 35h369q14 0 14 -4v-371l-4 -6q-104 -109 -260 -176q-190 -80 -353 -80q-128 0 -246 48.5t-208 138.5q-89 89 -137 204.5t-48 241.5q0 127 48.5 244t138.5 207q116 115 270.5 178t329.5 63q201 0 358 -106q38 -26 58 -43zM498 1649
q0 14 63.5 40.5t95.5 26.5q15 0 15 -6q0 -66 40 -114t99 -54q37 43 37 107q0 13 64 40t98 27q14 0 14 -6q0 -102 -103.5 -173t-234.5 -71q-78 0 -133 52.5t-55 130.5z" />
    <glyph glyph-name="gbreve" unicode="g&#x306;" horiz-adv-x="1003" 
d="M1085 872q21 0 21 -6q0 -14 -59 -39t-95 -26q-52 -35 -83 -95t-31 -124v-33q0 -49 -19 -127q-10 -36 -43 -98t-43 -95q-18 -61 -18 -123q0 -184 153 -321q53 -46 83 -111t30 -135q0 -93 -50.5 -172.5t-130 -130.5t-174.5 -79.5t-188 -28.5q-100 0 -190 42t-148.5 124
t-58.5 184q0 114 77 208.5t197.5 146.5t253.5 54q-30 77 -30 158q0 53 12 102q-99 -36 -203 -36q-94 0 -162 48.5t-98.5 120.5t-30.5 156q0 57 17 116t55 117t92.5 102.5t137.5 72.5t182 28q162 0 239 -122q50 43 136 78t165 44h4zM631 641q-33 73 -92 116.5t-140 43.5h-20
q-36 -3 -70 -49t-55 -114.5t-21 -135.5q0 -81 28 -152t88.5 -119.5t142.5 -48.5q39 0 72.5 32.5t51 70t29.5 80.5q17 63 17 118q0 82 -31 158zM584 -801q63 0 115.5 43.5t80 107t27.5 128.5q0 139 -109.5 238.5t-259.5 99.5q-64 0 -116.5 -43.5t-79.5 -106.5t-27 -127
q0 -140 108 -238.5t261 -101.5zM238 1237q0 14 63.5 41t95.5 27q15 0 15 -7q0 -66 40 -114t99 -54q37 43 37 107q0 13 64 40.5t98 27.5q14 0 14 -7q0 -102 -103.5 -172.5t-234.5 -70.5q-79 0 -133.5 52.5t-54.5 129.5z" />
    <glyph glyph-name="Gdotaccent" unicode="G&#x307;" horiz-adv-x="1419" 
d="M1268 1137q49 10 49 0v-50q0 -19 -88 -51q-1 0 -10.5 -3t-20 -6t-22 -5.5t-21 -2t-12.5 4.5l-51 49q-35 27 -58 41q-148 103 -334 103q-161 0 -286 -125q-86 -86 -132 -199.5t-46 -235.5q0 -127 48 -240.5t134 -199.5q85 -86 196 -134t234 -48q89 0 159 33t136 100v360
h-357q-23 0 -8 15q12 10 35 22q72 35 121 35h369q14 0 14 -4v-371l-4 -6q-104 -109 -260 -176q-190 -80 -353 -80q-128 0 -246 48.5t-208 138.5q-89 89 -137 204.5t-48 241.5q0 127 48.5 244t138.5 207q116 115 270.5 178t329.5 63q201 0 358 -106q38 -26 58 -43zM639 1581
l-2 2q0 18 59 68.5t80 50.5l103 -100q2 -3 2 -5q0 -18 -57.5 -67t-80.5 -49q-6 0 -6 2z" />
    <glyph glyph-name="gdotaccent" unicode="g&#x307;" horiz-adv-x="1003" 
d="M1085 872q21 0 21 -6q0 -14 -59 -39t-95 -26q-52 -35 -83 -95t-31 -124v-33q0 -49 -19 -127q-10 -36 -43 -98t-43 -95q-18 -61 -18 -123q0 -184 153 -321q53 -46 83 -111t30 -135q0 -93 -50.5 -172.5t-130 -130.5t-174.5 -79.5t-188 -28.5q-100 0 -190 42t-148.5 124
t-58.5 184q0 114 77 208.5t197.5 146.5t253.5 54q-30 77 -30 158q0 53 12 102q-99 -36 -203 -36q-94 0 -162 48.5t-98.5 120.5t-30.5 156q0 57 17 116t55 117t92.5 102.5t137.5 72.5t182 28q162 0 239 -122q50 43 136 78t165 44h4zM631 641q-33 73 -92 116.5t-140 43.5h-20
q-36 -3 -70 -49t-55 -114.5t-21 -135.5q0 -81 28 -152t88.5 -119.5t142.5 -48.5q39 0 72.5 32.5t51 70t29.5 80.5q17 63 17 118q0 82 -31 158zM584 -801q63 0 115.5 43.5t80 107t27.5 128.5q0 139 -109.5 238.5t-259.5 99.5q-64 0 -116.5 -43.5t-79.5 -106.5t-27 -127
q0 -140 108 -238.5t261 -101.5zM381 1169l-2 2q0 18 59 68.5t80 50.5l103 -100q2 -2 2 -4q0 -18 -57.5 -67.5t-80.5 -49.5q-6 0 -6 2z" />
    <glyph glyph-name="Itilde" unicode="I&#x303;" horiz-adv-x="624" 
d="M334 -37h-197q-26 0 -7 16q11 10 34 21q36 16 57 23v1194h-84q-28 0 -4 18q11 8 31 18q80 35 121 35h200q24 0 11 -14q-9 -10 -35 -21q-24 -12 -64 -24v-1194h84q28 0 4 -18l-30 -17q-76 -37 -121 -37zM123 1569q-69 -35 -123 -39q-24 0 -11 14q9 10 34 21q78 40 138 62
t95 29.5t65 2.5t43 -12.5t33 -22.5q19 -13 28.5 -17.5t31 -5t47.5 12.5q69 35 121 39q24 0 12 -14q-8 -10 -33 -21q-79 -40 -139 -62t-95.5 -29.5t-66 -2.5t-43 12t-33.5 23q-19 13 -28 17.5t-30 5t-46 -12.5z" />
    <glyph glyph-name="itilde" unicode="i&#x303;" horiz-adv-x="466" 
d="M147 123v436q0 128 -51 201q-18 25 -39.5 34t-34 9t-12.5 4q0 10 54.5 33.5t87.5 29.5q10 2 28 2q46 0 79.5 -40t48 -95.5t14.5 -115.5v-437q0 -147 81 -147q7 0 21 2t18 2q15 0 15 -6q0 -8 -30.5 -25t-78.5 -32t-88 -15q-30 0 -52 11t-33.5 26t-18 38.5t-8 42t-1.5 42.5
zM16 1157q-69 -35 -122 -39q-24 0 -12 14q9 10 34 21q78 40 138 62t95.5 29.5t65.5 2.5t43 -12.5t33 -22.5q19 -13 28 -17.5t30.5 -5t47.5 12.5q69 35 121 39q24 0 13 -14q-9 -10 -33 -21q-79 -40 -139 -62t-95.5 -29.5t-66 -2.5t-43 12t-33.5 23q-19 13 -28.5 17.5t-30.5 5
t-46 -12.5z" />
    <glyph glyph-name="Imacron" unicode="I&#x304;" horiz-adv-x="624" 
d="M334 -37h-197q-26 0 -7 16q11 10 34 21q36 16 57 23v1194h-84q-28 0 -4 18q11 8 31 18q80 35 121 35h200q24 0 11 -14q-9 -10 -35 -21q-24 -12 -64 -24v-1194h84q28 0 4 -18l-30 -17q-76 -37 -121 -37zM-74 1456q-14 0 -14 6q0 16 64 42t96 26h626q15 0 15 -6
q0 -17 -64.5 -42.5t-95.5 -25.5h-627z" />
    <glyph glyph-name="imacron" unicode="i&#x304;" horiz-adv-x="466" 
d="M147 123v436q0 128 -51 201q-18 25 -39.5 34t-34 9t-12.5 4q0 10 54.5 33.5t87.5 29.5q10 2 28 2q46 0 79.5 -40t48 -95.5t14.5 -115.5v-437q0 -147 81 -147q7 0 21 2t18 2q15 0 15 -6q0 -8 -30.5 -25t-78.5 -32t-88 -15q-30 0 -52 11t-33.5 26t-18 38.5t-8 42t-1.5 42.5
zM-180 1044q-15 0 -15 7q0 16 64 41.5t96 25.5h627q14 0 14 -6q0 -17 -64.5 -42.5t-95.5 -25.5h-626z" />
    <glyph glyph-name="Ibreve" unicode="I&#x306;" horiz-adv-x="624" 
d="M334 -37h-197q-26 0 -7 16q11 10 34 21q36 16 57 23v1194h-84q-28 0 -4 18q11 8 31 18q80 35 121 35h200q24 0 11 -14q-9 -10 -35 -21q-24 -12 -64 -24v-1194h84q28 0 4 -18l-30 -17q-76 -37 -121 -37zM49 1649q0 14 64 40.5t96 26.5q14 0 14 -6q0 -66 40 -114t99 -54
q37 43 37 107q0 13 64 40t98 27q14 0 14 -6q0 -68 -49.5 -125t-126.5 -88t-161 -31q-79 0 -134 53t-55 130z" />
    <glyph glyph-name="ibreve" unicode="i&#x306;" horiz-adv-x="464" 
d="M145 559q0 93 -32.5 167.5t-75.5 74.5q-27 -2 -27 4q0 19 65 43t107 24q62 0 99.5 -71t37.5 -180v-439q0 -147 80 -147q7 0 21 2t18 2q17 0 17 -6q0 -23 -79.5 -46.5t-119.5 -23.5q-36 0 -60 14.5t-34 41t-13.5 49.5t-3.5 53v438zM-31 1237q0 14 64 41t96 27q14 0 14 -7
q0 -66 40.5 -114t99.5 -54q36 42 36 107q0 13 64 40.5t98 27.5q15 0 15 -7q0 -102 -103.5 -172.5t-234.5 -70.5q-79 0 -134 52.5t-55 129.5z" />
    <glyph glyph-name="Iogonek" unicode="I&#x328;" horiz-adv-x="624" 
d="M457 37q3 0 7 -1t5 -1h12q28 0 4 -18l-30 -17q-50 -24 -90 -33q-17 -27 -17 -59q0 -51 37.5 -86.5t73.5 -30.5q47 10 44 -3q-1 -3 -5 -7q-22 -22 -83 -43t-104 -21q-45 0 -79.5 23.5t-48.5 57t-6.5 74t38.5 71.5q5 6 23 20h-101q-26 0 -7 16q11 10 34 21q36 16 57 23
v1194h-84q-28 0 -4 18q11 8 31 18q80 35 121 35h200q24 0 11 -14q-9 -10 -35 -21q-24 -12 -64 -24v-1194h17q14 2 43 2z" />
    <glyph glyph-name="iogonek" unicode="i&#x328;" horiz-adv-x="464" 
d="M145 559q0 93 -32.5 167.5t-75.5 74.5q-27 -2 -27 4q0 19 65 43t107 24q62 0 99.5 -71t37.5 -180v-441q0 -122 56 -143l4 -2q6 -2 20 -2q7 0 21 2t18 2q17 0 17 -6q0 -21 -64.5 -41.5t-118.5 -26.5q-12 -24 -12 -55q0 -51 37.5 -86.5t73.5 -30.5q47 10 44 -3q-1 -3 -5 -7
q-22 -22 -83 -43t-104 -21q-45 0 -79.5 23.5t-48.5 57t-6.5 74t38.5 71.5q30 30 55 45q-37 35 -37 131v440zM111 1221q0 20 59 68t80 48h4l98 -98l2 -4q0 -20 -58 -68.5t-79 -48.5q-6 0 -6 2z" />
    <glyph glyph-name="Idotaccent" unicode="I&#x307;" horiz-adv-x="624" 
d="M334 -37h-197q-26 0 -7 16q11 10 34 21q36 16 57 23v1194h-84q-28 0 -4 18q11 8 31 18q80 35 121 35h200q24 0 11 -14q-9 -10 -35 -21q-24 -12 -64 -24v-1194h84q28 0 4 -18l-30 -17q-76 -37 -121 -37zM190 1581l-2 2q0 18 59.5 68.5t80.5 50.5l102 -100q2 -3 2 -5
q0 -18 -57 -67t-80 -49q-6 0 -6 2z" />
    <glyph glyph-name="Lacute" unicode="L&#x301;" horiz-adv-x="1118" 
d="M272 1288h197q24 0 9 -14q-10 -10 -36 -21q-23 -13 -57 -24v-1194h553q20 15 72 33q23 9 43.5 13.5t32.5 4t12 -5.5v-49q0 -13 -41 -31q-76 -37 -121 -37h-860q-26 0 -8 16q11 10 34 21q63 29 107 35v1182h-84q-28 0 -4 18q11 8 31 18q80 35 120 35zM344 1491
q-14 -16 -69 -37.5t-87 -21.5q-14 0 -14 6q0 2 6 8l246 246q16 16 70.5 37.5t85.5 21.5q12 0 12 -6q0 -4 -4 -8z" />
    <glyph glyph-name="lacute" unicode="l&#x301;" horiz-adv-x="493" 
d="M399 39l19 2q14 0 14 -6q0 -23 -77 -47.5t-124 -24.5q-50 0 -79 34.5t-29 125.5v1722q0 18 123 49q68 15 104 15q19 0 19 -4q-69 -453 -72 -815v-906q0 -147 82 -147q14 0 20 2zM205 2103q-14 -16 -69 -37.5t-87 -21.5q-14 0 -14 6q0 2 6 8l246 246q16 16 70 37.5
t85 21.5q13 0 13 -6q0 -4 -4 -8z" />
    <glyph glyph-name="Lcaron" unicode="L&#x30c;" horiz-adv-x="1118" 
d="M272 1288h197q24 0 9 -14q-10 -10 -36 -21q-23 -13 -57 -24v-1194h553q20 15 72 33q23 9 43.5 13.5t32.5 4t12 -5.5v-49q0 -13 -41 -31q-76 -37 -121 -37h-860q-26 0 -8 16q11 10 34 21q63 29 107 35v1182h-84q-28 0 -4 18q11 8 31 18q80 35 120 35zM918 4379
q26 26 59 48.5t45 22.5q6 0 6 -6q0 -12 -29 -41q-55 -57 -55 -180q0 -133 84 -217v-4q0 -4 -4 -11t-10 -14t-14 -15l-14 -14t-12 -11l-5 -5q-8 -8 -36.5 -27.5t-41.5 -19.5q-4 0 -4 2q-86 83 -86 223q0 70 30 141t87 128zM471 1675q10 14 67 38t89 24q16 0 16 -8q0 -3 -2 -5
l-172 -221q-13 -15 -70 -38t-90 -23q-8 0 -12 4l-172 221v2q0 17 62 42.5t96 25.5q10 0 14 -4l111 -140z" />
    <glyph glyph-name="lcaron" unicode="l&#x30c;" horiz-adv-x="845" 
d="M399 39l19 2q14 0 14 -6q0 -23 -77 -47.5t-124 -24.5q-50 0 -79 34.5t-29 125.5v1722q0 18 123 49q68 15 104 15q19 0 19 -4q-69 -453 -72 -815v-906q0 -147 82 -147q14 0 20 2zM1024 3967q26 26 59 49t45 23q7 0 7 -6q0 -12 -29 -41q-55 -57 -55 -181q0 -133 84 -217v-4
q0 -5 -5.5 -13.5t-14.5 -17.5l-17 -17t-16 -14l-7 -7q-8 -8 -36.5 -28t-41.5 -20q-4 0 -4 2q-42 40 -64 99.5t-22 124.5q0 69 30 140t87 128zM338 2290q10 14 67 37.5t89 23.5q16 0 16 -8q0 -2 -2 -4l-172 -221q-13 -15 -70 -38.5t-90 -23.5q-8 0 -12 4l-172 221v3
q0 17 62 42t96 25q10 0 14 -4l110 -139z" />
    <glyph glyph-name="Nacute" unicode="N&#x301;" horiz-adv-x="1576" 
d="M272 -37h-196q-26 0 -8 16q11 10 34 21q47 21 74 27v1190h-100q-26 0 -7 16q11 9 33 20q76 35 121 35h197q22 0 9 -14q-10 -10 -36 -21q-8 -5 -16 -8l880 -1020v992h-100q-28 0 -4 18q11 8 31 18q76 35 121 35h196q21 0 10 -12q-9 -11 -36 -23q-36 -19 -74 -28v-1170
q0 -9 -21.5 -33t-50.5 -47q-18 -14 -34.5 -23.5t-25.5 -11.5t-12 1l-938 1087v-993h101q26 0 4 -17q-10 -8 -31 -18q-76 -37 -121 -37zM748 1491q-14 -16 -69 -37.5t-87 -21.5q-14 0 -14 6q0 2 6 8l245 246q16 16 70.5 37.5t85.5 21.5q12 0 12 -6q0 -4 -4 -8z" />
    <glyph glyph-name="nacute" unicode="n&#x301;" horiz-adv-x="1005" 
d="M145 -31v590q0 92 -33.5 167t-74.5 75q-1 0 -4.5 -0.5l-7 -1t-7 -0.5t-6 1.5t-2.5 4.5q0 20 68 43.5t104 23.5t66 -26t45 -72q116 83 276 98h31q104 0 177.5 -65t82.5 -164v-459q0 -147 80 -147q55 4 55 -2q0 -24 -77.5 -48t-122.5 -24q-52 0 -80.5 35t-28.5 125v436
q0 98 -68 170t-165 72h-17q-19 -2 -46.5 -37t-49 -89t-21.5 -102v-542q0 -15 -62 -41.5t-97 -26.5q-15 0 -15 6zM461 1079q-14 -16 -69 -37.5t-87 -21.5q-14 0 -14 6q0 2 6 8l246 246q16 16 70 37.5t85 21.5q13 0 13 -6q0 -4 -4 -8z" />
    <glyph glyph-name="Ncaron" unicode="N&#x30c;" horiz-adv-x="1576" 
d="M272 -37h-196q-26 0 -8 16q11 10 34 21q47 21 74 27v1190h-100q-26 0 -7 16q11 9 33 20q76 35 121 35h197q22 0 9 -14q-10 -10 -36 -21q-8 -5 -16 -8l880 -1020v992h-100q-28 0 -4 18q11 8 31 18q76 35 121 35h196q21 0 10 -12q-9 -11 -36 -23q-36 -19 -74 -28v-1170
q0 -9 -21.5 -33t-50.5 -47q-18 -14 -34.5 -23.5t-25.5 -11.5t-12 1l-938 1087v-993h101q26 0 4 -17q-10 -8 -31 -18q-76 -37 -121 -37zM874 1675q10 14 67 38t89 24q17 0 17 -8q-1 -3 -3 -5l-172 -221q-13 -15 -69.5 -38t-89.5 -23q-9 0 -13 4l-172 221v2q0 17 62 42.5
t96 25.5q10 0 14 -4l111 -140z" />
    <glyph glyph-name="ncaron" unicode="n&#x30c;" horiz-adv-x="1005" 
d="M145 -31v590q0 92 -33.5 167t-74.5 75q-1 0 -4.5 -0.5l-7 -1t-7 -0.5t-6 1.5t-2.5 4.5q0 20 68 43.5t104 23.5t66 -26t45 -72q116 83 276 98h31q104 0 177.5 -65t82.5 -164v-459q0 -147 80 -147q55 4 55 -2q0 -24 -77.5 -48t-122.5 -24q-52 0 -80.5 35t-28.5 125v436
q0 98 -68 170t-165 72h-17q-19 -2 -46.5 -37t-49 -89t-21.5 -102v-542q0 -15 -62 -41.5t-97 -26.5q-15 0 -15 6zM588 1264q10 14 66.5 37.5t88.5 23.5q17 0 17 -8q0 -2 -2 -4l-172 -221q-13 -15 -70 -38.5t-90 -23.5q-8 0 -12 4l-172 221v2q0 17 61.5 42.5t95.5 25.5
q11 0 15 -4l110 -139z" />
    <glyph glyph-name="Omacron" unicode="O&#x304;" horiz-adv-x="1550" 
d="M850 1288q132 0 250 -48.5t205 -137.5q88 -88 136 -202t48 -243q0 -130 -49.5 -246t-139.5 -206q-115 -115 -269 -178.5t-329 -63.5q-133 0 -251 49t-205 138t-136 203.5t-49 242.5t50 245t139 206q115 115 269 178t331 63zM1133 1036q-85 85 -197 133t-234 48
q-164 0 -286 -125q-85 -85 -132.5 -197.5t-47.5 -237.5q0 -127 48 -240.5t134 -199.5q87 -87 197.5 -134.5t234.5 -47.5q78 0 152.5 33.5t134.5 91.5q85 85 131.5 197t46.5 239t-48 240.5t-134 199.5zM389 1456q-14 0 -14 6q0 16 64 42t96 26h626q15 0 15 -6
q0 -17 -64.5 -42.5t-95.5 -25.5h-627z" />
    <glyph glyph-name="omacron" unicode="o&#x304;" 
d="M395 848q77 24 142 24q75 0 137.5 -36t99.5 -99q51 -84 51 -252q0 -93 -10 -159q-15 -104 -87.5 -188.5t-173.5 -129.5t-206 -45q-74 0 -136 36t-99 99q-52 86 -52 262q0 82 11 152q17 119 105.5 207.5t217.5 128.5zM393 801h-14q-143 -97 -143 -379q0 -82 9.5 -143.5
t39.5 -114.5q34 -60 87 -94.5t115 -34.5l19 2q145 90 145 389q0 160 -51 248q-36 59 -90.5 93t-116.5 34zM86 1044q-14 0 -14 7q0 16 63.5 41.5t95.5 25.5h627q14 0 14 -6q0 -17 -64 -42.5t-95 -25.5h-627z" />
    <glyph glyph-name="Obreve" unicode="O&#x306;" horiz-adv-x="1550" 
d="M850 1288q132 0 250 -48.5t205 -137.5q88 -88 136 -202t48 -243q0 -130 -49.5 -246t-139.5 -206q-115 -115 -269 -178.5t-329 -63.5q-133 0 -251 49t-205 138t-136 203.5t-49 242.5t50 245t139 206q115 115 269 178t331 63zM1133 1036q-85 85 -197 133t-234 48
q-164 0 -286 -125q-85 -85 -132.5 -197.5t-47.5 -237.5q0 -127 48 -240.5t134 -199.5q87 -87 197.5 -134.5t234.5 -47.5q78 0 152.5 33.5t134.5 91.5q85 85 131.5 197t46.5 239t-48 240.5t-134 199.5zM512 1649q0 14 64 40.5t96 26.5q14 0 14 -6q0 -66 40 -114t99 -54
q37 43 37 107q0 13 64 40t98 27q14 0 14 -6q0 -102 -103.5 -173t-234.5 -71q-78 0 -133 52.5t-55 130.5z" />
    <glyph glyph-name="obreve" unicode="o&#x306;" 
d="M395 848q77 24 142 24q75 0 137.5 -36t99.5 -99q51 -84 51 -252q0 -93 -10 -159q-15 -104 -87.5 -188.5t-173.5 -129.5t-206 -45q-74 0 -136 36t-99 99q-52 86 -52 262q0 82 11 152q17 119 105.5 207.5t217.5 128.5zM393 801h-14q-143 -97 -143 -379q0 -82 9.5 -143.5
t39.5 -114.5q34 -60 87 -94.5t115 -34.5l19 2q145 90 145 389q0 160 -51 248q-36 59 -90.5 93t-116.5 34zM209 1237q0 14 64 41t96 27q14 0 14 -7q0 -66 40 -114t99 -54q37 43 37 107q0 13 64 40.5t98 27.5q14 0 14 -7q0 -102 -103.5 -172.5t-234.5 -70.5q-79 0 -133.5 52.5
t-54.5 129.5z" />
    <glyph glyph-name="Ohungarumlaut" unicode="O&#x30b;" horiz-adv-x="1550" 
d="M850 1288q132 0 250 -48.5t205 -137.5q88 -88 136 -202t48 -243q0 -130 -49.5 -246t-139.5 -206q-115 -115 -269 -178.5t-329 -63.5q-133 0 -251 49t-205 138t-136 203.5t-49 242.5t50 245t139 206q115 115 269 178t331 63zM1133 1036q-85 85 -197 133t-234 48
q-164 0 -286 -125q-85 -85 -132.5 -197.5t-47.5 -237.5q0 -127 48 -240.5t134 -199.5q87 -87 197.5 -134.5t234.5 -47.5q78 0 152.5 33.5t134.5 91.5q85 85 131.5 197t46.5 239t-48 240.5t-134 199.5zM948 1491q-14 -16 -68.5 -37.5t-86.5 -21.5q-15 0 -15 6q0 2 6 8
l246 246q16 16 70.5 37.5t85.5 21.5q12 0 12 -6q0 -4 -4 -8zM682 1491q-14 -16 -69 -37.5t-87 -21.5q-14 0 -14 6q0 2 6 8l246 246q16 16 70.5 37.5t85.5 21.5q12 0 12 -6q0 -4 -4 -8z" />
    <glyph glyph-name="Racute" unicode="R&#x301;" horiz-adv-x="1288" 
d="M651 1288q158 0 267 -106q104 -104 104 -254q0 -154 -109 -260q-67 -67 -157 -111q51 -20 107 -66t93 -87t95 -111q114 -132 160 -174q92 -84 165 -84q29 0 3 -19l-27 -16q-76 -37 -121 -37q-32 0 -62.5 9t-63.5 31.5t-55.5 40t-59.5 57.5t-53.5 58.5t-57.5 67.5
q-56 67 -89.5 103.5t-84 83.5t-96.5 68.5t-91 21.5h-12q-60 0 -123 14v-483h84q29 0 5 -18q-11 -8 -30 -17q-76 -37 -120 -37h-197q-27 0 -6 18q11 9 31 19q37 16 59 23v1194h-133q-27 0 -6 18l30 18q80 35 121 35h430zM383 1217v-576q135 -66 268 -66q49 0 97 48
q100 95 100 243q0 145 -103 248t-239 103h-123zM602 1491q-14 -16 -69 -37.5t-87 -21.5q-14 0 -14 6q0 2 6 8l246 246q16 16 70.5 37.5t85.5 21.5q12 0 12 -6q0 -4 -4 -8z" />
    <glyph glyph-name="racute" unicode="r&#x301;" horiz-adv-x="798" 
d="M322 31q0 -14 -61.5 -41t-98.5 -27q-17 0 -17 6v590q0 85 -29.5 163.5t-76.5 78.5q-3 0 -7 -1t-5 -1q-17 0 -17 6q0 20 67.5 43.5t106.5 23.5q42 0 74 -35t47 -98q63 48 163 89.5t183 41.5q13 0 15 -4q9 -49 67 -82.5t133 -33.5h17q18 0 18 -7q0 -20 -73.5 -43.5
t-102.5 -23.5q-89 0 -152.5 33.5t-78.5 87.5l-7 -2q-47 -19 -81.5 -60.5t-51.5 -96t-24.5 -107t-7.5 -107.5v-393zM358 1079q-14 -16 -68.5 -37.5t-86.5 -21.5q-15 0 -15 6q0 1 7 8l245 246q16 16 70.5 37.5t85.5 21.5q12 0 12 -6q0 -4 -4 -8z" />
    <glyph glyph-name="Rcaron" unicode="R&#x30c;" horiz-adv-x="1288" 
d="M651 1288q158 0 267 -106q104 -104 104 -254q0 -154 -109 -260q-67 -67 -157 -111q51 -20 107 -66t93 -87t95 -111q114 -132 160 -174q92 -84 165 -84q29 0 3 -19l-27 -16q-76 -37 -121 -37q-32 0 -62.5 9t-63.5 31.5t-55.5 40t-59.5 57.5t-53.5 58.5t-57.5 67.5
q-56 67 -89.5 103.5t-84 83.5t-96.5 68.5t-91 21.5h-12q-60 0 -123 14v-483h84q29 0 5 -18q-11 -8 -30 -17q-76 -37 -120 -37h-197q-27 0 -6 18q11 9 31 19q37 16 59 23v1194h-133q-27 0 -6 18l30 18q80 35 121 35h430zM383 1217v-576q135 -66 268 -66q49 0 97 48
q100 95 100 243q0 145 -103 248t-239 103h-123zM729 1675q10 14 67 38t89 24q16 0 16 -8q0 -3 -2 -5l-172 -221q-13 -15 -70 -38t-90 -23q-8 0 -12 4l-172 221v2q0 17 62 42.5t96 25.5q10 0 14 -4l111 -140z" />
    <glyph glyph-name="rcaron" unicode="r&#x30c;" horiz-adv-x="798" 
d="M322 31q0 -14 -61.5 -41t-98.5 -27q-17 0 -17 6v590q0 85 -29.5 163.5t-76.5 78.5q-3 0 -7 -1t-5 -1q-17 0 -17 6q0 20 67.5 43.5t106.5 23.5q42 0 74 -35t47 -98q63 48 163 89.5t183 41.5q13 0 15 -4q9 -49 67 -82.5t133 -33.5h17q18 0 18 -7q0 -20 -73.5 -43.5
t-102.5 -23.5q-89 0 -152.5 33.5t-78.5 87.5l-7 -2q-47 -19 -81.5 -60.5t-51.5 -96t-24.5 -107t-7.5 -107.5v-393zM485 1264q10 14 67 37.5t89 23.5q16 0 16 -8q0 -2 -2 -4l-172 -221q-13 -15 -69.5 -38.5t-89.5 -23.5q-9 0 -13 4l-172 221v2q0 17 62 42.5t96 25.5
q10 0 14 -4l111 -139z" />
    <glyph glyph-name="Sacute" unicode="S&#x301;" horiz-adv-x="993" 
d="M680 1073q-38 64 -99.5 104t-131.5 40q-36 0 -68.5 -36.5t-50 -86t-17.5 -93.5q0 -60 29 -120q26 -52 69.5 -87t94.5 -53t102 -32t108 -35t97 -51q65 -48 102 -116.5t37 -144.5q0 -114 -78.5 -207t-200 -142.5t-255.5 -49.5q-101 0 -191 38t-143 114q-12 -4 -29 -4
q-14 0 -14 6v147q0 18 40 35t80 25l40 8q14 0 14 -6q0 -92 54 -160t132.5 -99.5t167.5 -31.5q90 0 149.5 86t59.5 180q0 75 -36 142.5t-99 111.5q-30 21 -71 39.5t-69 27.5t-82 24t-71 20q-94 28 -152.5 103t-58.5 171q0 98 65.5 179t169 125t218.5 44q122 0 205 -80
q27 6 45 6q12 0 12 -4v-73q0 -17 -63 -42.5t-99 -25.5q-12 0 -12 4zM455 1491q-14 -16 -69 -37.5t-87 -21.5q-14 0 -14 6q0 2 6 8l246 246q16 16 70 37.5t85 21.5q13 0 13 -6q0 -3 -5 -8z" />
    <glyph glyph-name="sacute" unicode="s&#x301;" horiz-adv-x="839" 
d="M778 621q0 -14 -62 -41t-100 -27q-14 0 -14 6v23q-10 101 -81.5 160t-170.5 59q-43 0 -65.5 -45.5t-22.5 -108.5q0 -44 28.5 -77t74 -52.5t100.5 -36t110 -33.5t100.5 -37.5t74 -54.5t28.5 -80v-2q0 -129 -132.5 -220t-321.5 -91q-106 0 -179 64t-82 163l-2 25
q0 12 65 39t99 27q13 0 13 -5v-24q9 -90 75 -153.5t156 -63.5q50 0 91.5 49.5t41.5 130.5q0 51 -38 87.5t-95.5 55.5t-124.5 39.5t-124.5 40t-95.5 57.5t-38 91q0 70 34.5 124t94 86t126 50.5t144.5 25.5h31q112 0 187 -72t75 -179zM430 1079q-14 -16 -69 -37.5t-87 -21.5
q-14 0 -14 6q0 2 6 8l246 246q16 16 70.5 37.5t85.5 21.5q12 0 12 -6q0 -4 -4 -8z" />
    <glyph glyph-name="Scedilla" unicode="S&#x327;" horiz-adv-x="993" 
d="M367 -121q-7 -1 -12.5 -2t-15 -2t-14 1t-1.5 7q10 18 24 45t21 37q-90 8 -165 45.5t-120 104.5q-12 -4 -29 -4q-14 0 -14 6v147q0 18 40 35t80 25l40 8q14 0 14 -6q0 -85 46 -150t115.5 -98.5t151.5 -40.5q11 0 13 -2h28q90 0 149.5 86t59.5 180q0 75 -36 142.5
t-99 111.5q-30 21 -71 39.5t-69 27.5t-82 24t-71 20q-94 28 -152.5 103t-58.5 171q0 98 65.5 179t169 125t218.5 44q122 0 205 -80q27 6 45 6q12 0 12 -4v-73q0 -17 -63 -42.5t-99 -25.5q-12 0 -12 4q-38 64 -99.5 104t-131.5 40q-36 0 -68.5 -36.5t-50 -86t-17.5 -93.5
q0 -60 29 -120q26 -52 69.5 -87t94.5 -53t102 -32t108 -35t97 -51q65 -48 102 -116.5t37 -144.5q0 -100 -62 -185t-160.5 -137t-215.5 -69l-10 -20q49 3 85.5 -19.5t51.5 -56.5t8 -75t-39 -72q-47 -47 -121 -75.5t-143 -19.5q-2 1 -9 2.5t-9 2.5q-24 7 33 34q58 28 104 35
q29 58 -4 115t-94 57z" />
    <glyph glyph-name="scedilla" unicode="s&#x327;" horiz-adv-x="839" 
d="M291 -121q-7 -1 -12.5 -2t-15 -2t-14 1t-1.5 7q8 15 22 43.5t21 38.5q-95 10 -157.5 73.5t-70.5 154.5l-2 24q0 12 65 39t99 27q13 0 13 -4v-25q8 -82 64.5 -144.5t135.5 -72.5q28 4 31 -2q50 0 91.5 49.5t41.5 130.5q0 51 -38 87.5t-95.5 55.5t-124.5 39.5t-124.5 40
t-95.5 57.5t-38 91q0 70 34.5 124t94 86t126 50.5t144.5 25.5h31q112 0 187 -72t75 -179q0 -14 -62 -41t-100 -27q-14 0 -14 6v23q-10 101 -81.5 160t-170.5 59q-43 0 -65.5 -45.5t-22.5 -108.5q0 -44 28.5 -77t74 -52.5t100.5 -36t110 -33.5t100.5 -37.5t74 -54.5t28.5 -80
v-2q0 -108 -95.5 -191t-244.5 -110l-10 -22q49 3 85.5 -19.5t52 -56.5t8.5 -75t-39 -72q-47 -47 -121.5 -75.5t-143.5 -19.5q-2 1 -9 2.5t-9 2.5q-24 7 33 34q58 28 104 35q29 58 -4 115t-94 57z" />
    <glyph glyph-name="Scaron" unicode="S&#x30c;" horiz-adv-x="993" 
d="M680 1073q-38 64 -99.5 104t-131.5 40q-36 0 -68.5 -36.5t-50 -86t-17.5 -93.5q0 -60 29 -120q26 -52 69.5 -87t94.5 -53t102 -32t108 -35t97 -51q65 -48 102 -116.5t37 -144.5q0 -114 -78.5 -207t-200 -142.5t-255.5 -49.5q-101 0 -191 38t-143 114q-12 -4 -29 -4
q-14 0 -14 6v147q0 18 40 35t80 25l40 8q14 0 14 -6q0 -92 54 -160t132.5 -99.5t167.5 -31.5q90 0 149.5 86t59.5 180q0 75 -36 142.5t-99 111.5q-30 21 -71 39.5t-69 27.5t-82 24t-71 20q-94 28 -152.5 103t-58.5 171q0 98 65.5 179t169 125t218.5 44q122 0 205 -80
q27 6 45 6q12 0 12 -4v-73q0 -17 -63 -42.5t-99 -25.5q-12 0 -12 4zM582 1675q10 15 66.5 38.5t88.5 23.5q17 0 17 -8q0 -3 -2 -5l-172 -221q-13 -15 -70 -38t-90 -23q-8 0 -12 4l-172 221v2q0 17 61.5 42.5t95.5 25.5q11 0 15 -4l110 -140z" />
    <glyph glyph-name="scaron" unicode="s&#x30c;" horiz-adv-x="839" 
d="M778 621q0 -14 -62 -41t-100 -27q-14 0 -14 6v23q-10 101 -81.5 160t-170.5 59q-43 0 -65.5 -45.5t-22.5 -108.5q0 -44 28.5 -77t74 -52.5t100.5 -36t110 -33.5t100.5 -37.5t74 -54.5t28.5 -80v-2q0 -129 -132.5 -220t-321.5 -91q-106 0 -179 64t-82 163l-2 25
q0 12 65 39t99 27q13 0 13 -5v-24q9 -90 75 -153.5t156 -63.5q50 0 91.5 49.5t41.5 130.5q0 51 -38 87.5t-95.5 55.5t-124.5 39.5t-124.5 40t-95.5 57.5t-38 91q0 70 34.5 124t94 86t126 50.5t144.5 25.5h31q112 0 187 -72t75 -179zM555 1264q10 14 67 37.5t89 23.5
q16 0 16 -8q0 -2 -2 -4l-172 -221q-13 -15 -70 -38.5t-90 -23.5q-8 0 -12 4l-172 221v2q0 17 62 42.5t96 25.5q10 0 14 -4l111 -139z" />
    <glyph glyph-name="Tcaron" unicode="T&#x30c;" horiz-adv-x="1296" 
d="M721 1288h541q14 0 14 -4v-49q0 -9 -25.5 -24t-60.5 -27q-24 -8 -44.5 -12t-32 -3.5t-11.5 5.5v43h-367v-1182h84q29 0 3 -19q-10 -7 -27 -16q-76 -37 -121 -37h-197q-27 0 -6 18q11 9 31 19q37 16 59 23v1194h-383q-33 -21 -69 -33q-24 -8 -44.5 -12t-32.5 -3.5t-12 5.5
v49q0 8 25.5 22.5t60.5 26.5q41 16 74 16h541zM733 1675q10 14 67 38t89 24q16 0 16 -8q0 -3 -2 -5l-172 -221q-13 -15 -70 -38t-90 -23q-8 0 -12 4l-172 221v2q0 17 62 42.5t96 25.5q10 0 14 -4l111 -140z" />
    <glyph glyph-name="Utilde" unicode="U&#x303;" horiz-adv-x="1533" 
d="M1044 129q69 69 108.5 161t39.5 195v732h-84q-27 0 -7 16q11 10 32 20q80 35 120 35h197q25 0 8 -15q-10 -9 -33 -20q-25 -14 -59 -24v-1194h133q29 0 3 -19l-27 -16q-76 -37 -121 -37h-148q-14 0 -14 6v187q-102 -94 -232 -143.5t-270 -49.5q-106 0 -205 40.5
t-174 113.5q-72 72 -111.5 167t-39.5 201v732h-84q-27 0 -6 18l30 18q80 35 121 35h197q25 0 8 -15q-11 -10 -33 -20q-25 -14 -59 -24v-682q0 -105 39.5 -199t109.5 -164t161.5 -109.5t191.5 -39.5q114 0 208 94zM578 1569q-69 -35 -123 -39q-24 0 -12 14q9 10 34 21
q78 40 138 62t95.5 29.5t65.5 2.5t43 -12.5t33 -22.5q19 -13 28 -17.5t30.5 -5t47.5 12.5q69 35 121 39q24 0 13 -14q-9 -10 -33 -21q-79 -40 -139 -62t-95.5 -29.5t-66 -2.5t-43 12t-33.5 23q-19 13 -28 17.5t-30 5t-46 -12.5z" />
    <glyph glyph-name="utilde" unicode="u&#x303;" horiz-adv-x="1007" 
d="M862 276v-16q0 -79 33.5 -152t73.5 -73h12q14 0 14 -6q0 -18 -67 -42t-105 -24q-37 0 -66 28t-44 70q-65 -46 -146 -72t-159 -26q-113 0 -188 71.5t-75 180.5v440q0 146 -79 146q-6 0 -21 -2t-18 -2q-17 0 -17 6q0 22 79 45.5t122 23.5q44 0 68 -18l2 -2q41 -33 41 -137
v-439q0 -96 66.5 -168.5t164.5 -72.5h16q30 2 73.5 75t43.5 150v395q0 146 -80 146q-6 0 -21 -2t-18 -2q-16 0 -16 6q0 22 79 45.5t122 23.5t67 -18l2 -2q41 -33 41 -137v-439zM283 1157q-69 -35 -123 -39q-24 0 -12 14q9 10 34 21q78 40 138 62t95.5 29.5t65.5 2.5
t43 -12.5t33 -22.5q19 -13 28.5 -17.5t31 -5t47.5 12.5q69 35 120 39q24 0 13 -14q-9 -10 -33 -21q-79 -40 -139 -62t-95.5 -29.5t-66 -2.5t-43 12t-33.5 23q-19 13 -28 17.5t-30 5t-46 -12.5z" />
    <glyph glyph-name="Umacron" unicode="U&#x304;" horiz-adv-x="1533" 
d="M1044 129q69 69 108.5 161t39.5 195v732h-84q-27 0 -7 16q11 10 32 20q80 35 120 35h197q25 0 8 -15q-10 -9 -33 -20q-25 -14 -59 -24v-1194h133q29 0 3 -19l-27 -16q-76 -37 -121 -37h-148q-14 0 -14 6v187q-102 -94 -232 -143.5t-270 -49.5q-106 0 -205 40.5
t-174 113.5q-72 72 -111.5 167t-39.5 201v732h-84q-27 0 -6 18l30 18q80 35 121 35h197q25 0 8 -15q-11 -10 -33 -20q-25 -14 -59 -24v-682q0 -105 39.5 -199t109.5 -164t161.5 -109.5t191.5 -39.5q114 0 208 94zM381 1456q-14 0 -14 6q0 16 64 42t95 26h627q14 0 14 -6
q0 -17 -64 -42.5t-95 -25.5h-627z" />
    <glyph glyph-name="umacron" unicode="u&#x304;" horiz-adv-x="1007" 
d="M862 276v-16q0 -79 33.5 -152t73.5 -73h12q14 0 14 -6q0 -18 -67 -42t-105 -24q-37 0 -66 28t-44 70q-65 -46 -146 -72t-159 -26q-113 0 -188 71.5t-75 180.5v440q0 146 -79 146q-6 0 -21 -2t-18 -2q-17 0 -17 6q0 22 79 45.5t122 23.5q44 0 68 -18l2 -2q41 -33 41 -137
v-439q0 -96 66.5 -168.5t164.5 -72.5h16q30 2 73.5 75t43.5 150v395q0 146 -80 146q-6 0 -21 -2t-18 -2q-16 0 -16 6q0 22 79 45.5t122 23.5t67 -18l2 -2q41 -33 41 -137v-439zM86 1044q-14 0 -14 7q0 16 63.5 41.5t95.5 25.5h627q14 0 14 -6q0 -17 -64 -42.5t-95 -25.5
h-627z" />
    <glyph glyph-name="Ubreve" unicode="U&#x306;" horiz-adv-x="1533" 
d="M1044 129q69 69 108.5 161t39.5 195v732h-84q-27 0 -7 16q11 10 32 20q80 35 120 35h197q25 0 8 -15q-10 -9 -33 -20q-25 -14 -59 -24v-1194h133q29 0 3 -19l-27 -16q-76 -37 -121 -37h-148q-14 0 -14 6v187q-102 -94 -232 -143.5t-270 -49.5q-106 0 -205 40.5
t-174 113.5q-72 72 -111.5 167t-39.5 201v732h-84q-27 0 -6 18l30 18q80 35 121 35h197q25 0 8 -15q-11 -10 -33 -20q-25 -14 -59 -24v-682q0 -105 39.5 -199t109.5 -164t161.5 -109.5t191.5 -39.5q114 0 208 94zM504 1649q0 14 64 40.5t96 26.5q14 0 14 -6q0 -66 40 -114
t99 -54q37 43 37 107q0 13 64 40t98 27q14 0 14 -6q0 -102 -103.5 -173t-234.5 -71q-78 0 -133 52.5t-55 130.5z" />
    <glyph glyph-name="ubreve" unicode="u&#x306;" horiz-adv-x="1007" 
d="M862 276v-16q0 -79 33.5 -152t73.5 -73h12q14 0 14 -6q0 -18 -67 -42t-105 -24q-37 0 -66 28t-44 70q-65 -46 -146 -72t-159 -26q-113 0 -188 71.5t-75 180.5v440q0 146 -79 146q-6 0 -21 -2t-18 -2q-17 0 -17 6q0 22 79 45.5t122 23.5q44 0 68 -18l2 -2q41 -33 41 -137
v-439q0 -96 66.5 -168.5t164.5 -72.5h16q30 2 73.5 75t43.5 150v395q0 146 -80 146q-6 0 -21 -2t-18 -2q-16 0 -16 6q0 22 79 45.5t122 23.5t67 -18l2 -2q41 -33 41 -137v-439zM209 1237q0 14 64 41t96 27q14 0 14 -7q0 -66 40 -114t99 -54q37 43 37 107q0 13 64 40.5
t98 27.5q14 0 14 -7q0 -102 -103.5 -172.5t-234.5 -70.5q-79 0 -133.5 52.5t-54.5 129.5z" />
    <glyph glyph-name="Uring" unicode="U&#x30a;" horiz-adv-x="1533" 
d="M1044 129q69 69 108.5 161t39.5 195v732h-84q-27 0 -7 16q11 10 32 20q80 35 120 35h197q25 0 8 -15q-10 -9 -33 -20q-25 -14 -59 -24v-1194h133q29 0 3 -19l-27 -16q-76 -37 -121 -37h-148q-14 0 -14 6v187q-102 -94 -232 -143.5t-270 -49.5q-106 0 -205 40.5
t-174 113.5q-72 72 -111.5 167t-39.5 201v732h-84q-27 0 -6 18l30 18q80 35 121 35h197q25 0 8 -15q-11 -10 -33 -20q-25 -14 -59 -24v-682q0 -105 39.5 -199t109.5 -164t161.5 -109.5t191.5 -39.5q114 0 208 94zM807 1501q35 44 35 109q0 61 -33.5 110t-83.5 60
q-35 -44 -35 -109v-2q0 -59 35 -108t82 -60zM840 1858q72 0 125 -53.5t53 -133.5q0 -107 -97.5 -177.5t-226.5 -70.5q-74 0 -127 55.5t-53 131.5q0 106 97.5 177t228.5 71z" />
    <glyph glyph-name="uring" unicode="u&#x30a;" horiz-adv-x="1007" 
d="M862 276v-16q0 -79 33.5 -152t73.5 -73h12q14 0 14 -6q0 -18 -67 -42t-105 -24q-37 0 -66 28t-44 70q-65 -46 -146 -72t-159 -26q-113 0 -188 71.5t-75 180.5v440q0 146 -79 146q-6 0 -21 -2t-18 -2q-17 0 -17 6q0 22 79 45.5t122 23.5q44 0 68 -18l2 -2q41 -33 41 -137
v-439q0 -96 66.5 -168.5t164.5 -72.5h16q30 2 73.5 75t43.5 150v395q0 146 -80 146q-6 0 -21 -2t-18 -2q-16 0 -16 6q0 22 79 45.5t122 23.5t67 -18l2 -2q41 -33 41 -137v-439zM512 1090q35 44 35 108q0 61 -33.5 110t-83.5 60q-35 -44 -35 -108v-3q0 -59 35 -107.5
t82 -59.5zM545 1446q72 0 125 -53t53 -133q0 -107 -97.5 -177.5t-226.5 -70.5q-74 0 -127 55t-53 131q0 106 97.5 177t228.5 71z" />
    <glyph glyph-name="Uhungarumlaut" unicode="U&#x30b;" horiz-adv-x="1533" 
d="M1044 129q69 69 108.5 161t39.5 195v732h-84q-27 0 -7 16q11 10 32 20q80 35 120 35h197q25 0 8 -15q-10 -9 -33 -20q-25 -14 -59 -24v-1194h133q29 0 3 -19l-27 -16q-76 -37 -121 -37h-148q-14 0 -14 6v187q-102 -94 -232 -143.5t-270 -49.5q-106 0 -205 40.5
t-174 113.5q-72 72 -111.5 167t-39.5 201v732h-84q-27 0 -6 18l30 18q80 35 121 35h197q25 0 8 -15q-11 -10 -33 -20q-25 -14 -59 -24v-682q0 -105 39.5 -199t109.5 -164t161.5 -109.5t191.5 -39.5q114 0 208 94zM858 1491q-14 -16 -69 -37.5t-87 -21.5q-14 0 -14 6q0 2 6 8
l246 246q16 16 70.5 37.5t85.5 21.5q12 0 12 -6q0 -4 -4 -8zM592 1491q-14 -16 -69 -37.5t-87 -21.5q-14 0 -14 6q0 2 6 8l246 246q16 16 70 37.5t85 21.5q13 0 13 -6q0 -4 -4 -8z" />
    <glyph glyph-name="uhungarumlaut" unicode="u&#x30b;" horiz-adv-x="1007" 
d="M862 276v-16q0 -79 33.5 -152t73.5 -73h12q14 0 14 -6q0 -18 -67 -42t-105 -24q-37 0 -66 28t-44 70q-65 -46 -146 -72t-159 -26q-113 0 -188 71.5t-75 180.5v440q0 146 -79 146q-6 0 -21 -2t-18 -2q-17 0 -17 6q0 22 79 45.5t122 23.5q44 0 68 -18l2 -2q41 -33 41 -137
v-439q0 -96 66.5 -168.5t164.5 -72.5h16q30 2 73.5 75t43.5 150v395q0 146 -80 146q-6 0 -21 -2t-18 -2q-16 0 -16 6q0 22 79 45.5t122 23.5t67 -18l2 -2q41 -33 41 -137v-439zM563 1079q-14 -16 -68.5 -37.5t-86.5 -21.5q-15 0 -15 6q0 2 6 8l246 246q16 16 70.5 37.5
t85.5 21.5q12 0 12 -6q0 -4 -4 -8zM297 1079q-14 -16 -69 -37.5t-87 -21.5q-14 0 -14 6q0 2 6 8l246 246q16 16 70.5 37.5t85.5 21.5q12 0 12 -6q0 -4 -4 -8z" />
    <glyph glyph-name="Uogonek" unicode="U&#x328;" horiz-adv-x="1533" 
d="M1470 37q3 0 7.5 -1t5.5 -1h16q29 0 3 -19l-27 -16q-62 -28 -99 -33q-14 -22 -14 -59q0 -51 37.5 -86.5t73.5 -30.5q46 10 43 -3q-1 -3 -5 -7q-22 -22 -83 -43t-103 -21q-45 0 -79.5 23.5t-48.5 57t-6.5 74t38.5 71.5q6 8 22 20h-45q-14 0 -14 6v187
q-102 -94 -232 -143.5t-270 -49.5q-106 0 -205 40.5t-174 113.5q-72 72 -111.5 167t-39.5 201v732h-84q-27 0 -6 18l30 18q80 35 121 35h197q25 0 8 -15q-11 -10 -33 -20q-25 -14 -59 -24v-682q0 -105 39.5 -199t109.5 -164t161.5 -109.5t191.5 -39.5q114 0 208 94
q69 69 108.5 161t39.5 195v732h-84q-27 0 -7 16q11 10 32 20q80 35 120 35h197q25 0 8 -15q-10 -9 -33 -20q-25 -14 -59 -24v-1194h61q14 2 43 2z" />
    <glyph glyph-name="uogonek" unicode="u&#x328;" horiz-adv-x="1007" 
d="M862 260q0 -70 26 -137t62 -84q13 0 13 -4h18q14 0 14 -6q0 -14 -45.5 -33t-93.5 -29q-14 -22 -14 -59q0 -51 37 -86.5t73 -30.5q47 10 44 -3q-1 -3 -5 -7q-22 -22 -83 -43t-103 -21q-45 0 -79.5 23.5t-48.5 57t-6.5 74t38.5 71.5q24 28 53 45q-31 22 -49 73
q-65 -46 -146 -72t-159 -26q-113 0 -188 71.5t-75 180.5v440q0 146 -79 146q-6 0 -21 -2t-18 -2q-17 0 -17 6q0 22 79 45.5t122 23.5q44 0 68 -18l2 -2q41 -33 41 -137v-439q0 -96 66.5 -168.5t164.5 -72.5h16q30 2 73.5 75t43.5 150v395q0 146 -80 146q-6 0 -21 -2t-18 -2
q-16 0 -16 6q0 22 79 45.5t122 23.5t67 -18l2 -2q41 -33 41 -137v-455z" />
    <glyph glyph-name="Ydieresis" unicode="Y&#x308;" horiz-adv-x="1339" 
d="M283 1239l415 -655l383 633h-80q-25 0 -5 16q10 9 32 20q80 35 121 35h197q24 0 9 -14q-11 -10 -36 -21q-45 -25 -94 -32l-455 -750v-436h84q29 0 1 -19l-28 -16q-72 -37 -120 -37h-197q-23 0 -8 15q11 10 35 22q37 16 59 23v387l-514 807h-88q-24 0 -8 15q11 10 34 21
q80 35 121 35h197q24 0 9 -14q-10 -10 -36 -21q-8 -6 -28 -14zM721 1581q-2 0 -2 4q0 17 59.5 67t79.5 50l103 -100q2 -3 2 -5q0 -18 -58.5 -67t-81.5 -49q-4 0 -4 2zM377 1581q-2 0 -2 4q0 17 58.5 67t78.5 50l6 -2l98 -101q0 -18 -56.5 -68t-80.5 -50q-4 0 -4 2z" />
    <glyph glyph-name="Zacute" unicode="Z&#x301;" horiz-adv-x="1269" 
d="M68 45l903 1122h-787q-13 -13 -49.5 -35.5t-36.5 -9.5v47q-3 17 43 60q28 25 56.5 43t40.5 18h958q22 0 -38 -59q-17 -18 -25 -23l-902 -1122h932q58 39 68 43q18 8 18 0v-49q0 -10 -21 -34t-50 -46q-47 -37 -66 -37h-1106q-16 0 12 31.5t50 50.5zM594 1491
q-14 -16 -69 -37.5t-87 -21.5q-14 0 -14 6q0 2 6 8l246 246q16 16 70 37.5t85 21.5q13 0 13 -6q0 -4 -4 -8z" />
    <glyph glyph-name="zacute" unicode="z&#x301;" horiz-adv-x="870" 
d="M31 901q0 9 26 24t62 27q23 8 43 12t31.5 4t11.5 -5q0 -87 47 -150q56 -74 154 -96q90 -22 167 -4q56 13 121 90q30 34 115 59q2 1 9 3t11 3t10.5 2.5t10.5 1.5t8.5 -0.5t7.5 -3.5t4 -8l-591 -715q78 23 98 27q135 34 252 6q105 -25 164 -102q47 -62 47 -156
q1 -5 -10.5 -13.5t-32 -18t-43.5 -17.5q-38 -12 -62.5 -15.5t-25.5 5.5q0 89 -48 149q-53 74 -153 96q-93 23 -168 5q-55 -13 -119 -88q-28 -33 -110 -56q-61 -18 -66 -5q-2 3 2 7l590 711q-65 -21 -98 -29q-137 -34 -254 -6q-104 24 -164 103q-47 66 -47 153zM393 1079
q-14 -16 -68.5 -37.5t-86.5 -21.5q-15 0 -15 6q0 2 6 8l246 246q16 16 70.5 37.5t85.5 21.5q12 0 12 -6q0 -4 -4 -8z" />
    <glyph glyph-name="Zdotaccent" unicode="Z&#x307;" horiz-adv-x="1269" 
d="M68 45l903 1122h-787q-13 -13 -49.5 -35.5t-36.5 -9.5v47q-3 17 43 60q28 25 56.5 43t40.5 18h958q22 0 -38 -59q-17 -18 -25 -23l-902 -1122h932q58 39 68 43q18 8 18 0v-49q0 -10 -21 -34t-50 -46q-47 -37 -66 -37h-1106q-16 0 12 31.5t50 50.5zM514 1581l-2 2
q0 18 59 68.5t80 50.5l103 -100q2 -3 2 -5q0 -18 -57.5 -67t-80.5 -49q-6 0 -6 2z" />
    <glyph glyph-name="zdotaccent" unicode="z&#x307;" horiz-adv-x="870" 
d="M31 901q0 9 26 24t62 27q23 8 43 12t31.5 4t11.5 -5q0 -87 47 -150q56 -74 154 -96q90 -22 167 -4q56 13 121 90q30 34 115 59q2 1 9 3t11 3t10.5 2.5t10.5 1.5t8.5 -0.5t7.5 -3.5t4 -8l-591 -715q78 23 98 27q135 34 252 6q105 -25 164 -102q47 -62 47 -156
q1 -5 -10.5 -13.5t-32 -18t-43.5 -17.5q-38 -12 -62.5 -15.5t-25.5 5.5q0 89 -48 149q-53 74 -153 96q-93 23 -168 5q-55 -13 -119 -88q-28 -33 -110 -56q-61 -18 -66 -5q-2 3 2 7l590 711q-65 -21 -98 -29q-137 -34 -254 -6q-104 24 -164 103q-47 66 -47 153zM313 1169
l-2 2q0 18 59.5 68.5t80.5 50.5l102 -100q2 -2 2 -4q0 -18 -57 -67.5t-80 -49.5q-6 0 -6 2z" />
    <glyph glyph-name="Zcaron" unicode="Z&#x30c;" horiz-adv-x="1269" 
d="M68 45l903 1122h-787q-13 -13 -49.5 -35.5t-36.5 -9.5v47q-3 17 43 60q28 25 56.5 43t40.5 18h958q22 0 -38 -59q-17 -18 -25 -23l-902 -1122h932q58 39 68 43q18 8 18 0v-49q0 -10 -21 -34t-50 -46q-47 -37 -66 -37h-1106q-16 0 12 31.5t50 50.5zM721 1675q10 14 67 38
t89 24q16 0 16 -8q0 -3 -2 -5l-172 -221q-13 -15 -70 -38t-90 -23q-8 0 -12 4l-172 221v2q0 17 61.5 42.5t95.5 25.5q11 0 15 -4l110 -140z" />
    <glyph glyph-name="zcaron" unicode="z&#x30c;" horiz-adv-x="870" 
d="M31 901q0 9 26 24t62 27q23 8 43 12t31.5 4t11.5 -5q0 -87 47 -150q56 -74 154 -96q90 -22 167 -4q56 13 121 90q30 34 115 59q2 1 9 3t11 3t10.5 2.5t10.5 1.5t8.5 -0.5t7.5 -3.5t4 -8l-591 -715q78 23 98 27q135 34 252 6q105 -25 164 -102q47 -62 47 -156
q1 -5 -10.5 -13.5t-32 -18t-43.5 -17.5q-38 -12 -62.5 -15.5t-25.5 5.5q0 89 -48 149q-53 74 -153 96q-93 23 -168 5q-55 -13 -119 -88q-28 -33 -110 -56q-61 -18 -66 -5q-2 3 2 7l590 711q-65 -21 -98 -29q-137 -34 -254 -6q-104 24 -164 103q-47 66 -47 153zM520 1264
q10 14 67 37.5t89 23.5q16 0 16 -8q0 -2 -2 -4l-172 -221q-13 -15 -70 -38.5t-90 -23.5q-8 0 -12 4l-172 221v2q0 17 62 42.5t96 25.5q10 0 14 -4l111 -139z" />
    <glyph glyph-name="Gcaron" unicode="G&#x30c;" horiz-adv-x="1419" 
d="M1268 1137q49 10 49 0v-50q0 -19 -88 -51q-1 0 -10.5 -3t-20 -6t-22 -5.5t-21 -2t-12.5 4.5l-51 49q-35 27 -58 41q-148 103 -334 103q-161 0 -286 -125q-86 -86 -132 -199.5t-46 -235.5q0 -127 48 -240.5t134 -199.5q85 -86 196 -134t234 -48q89 0 159 33t136 100v360
h-357q-23 0 -8 15q12 10 35 22q72 35 121 35h369q14 0 14 -4v-371l-4 -6q-104 -109 -260 -176q-190 -80 -353 -80q-128 0 -246 48.5t-208 138.5q-89 89 -137 204.5t-48 241.5q0 127 48.5 244t138.5 207q116 115 270.5 178t329.5 63q201 0 358 -106q38 -26 58 -43zM846 1675
q10 15 66.5 38.5t88.5 23.5q17 0 17 -8q0 -3 -2 -5l-172 -221q-13 -15 -70 -38t-90 -23q-8 0 -12 4l-172 221v2q0 17 61.5 42.5t95.5 25.5q11 0 15 -4l110 -140z" />
    <glyph glyph-name="gcaron" unicode="g&#x30c;" horiz-adv-x="1003" 
d="M1085 872q21 0 21 -6q0 -14 -59 -39t-95 -26q-52 -35 -83 -95t-31 -124v-33q0 -49 -19 -127q-10 -36 -43 -98t-43 -95q-18 -61 -18 -123q0 -184 153 -321q53 -46 83 -111t30 -135q0 -93 -50.5 -172.5t-130 -130.5t-174.5 -79.5t-188 -28.5q-100 0 -190 42t-148.5 124
t-58.5 184q0 114 77 208.5t197.5 146.5t253.5 54q-30 77 -30 158q0 53 12 102q-99 -36 -203 -36q-94 0 -162 48.5t-98.5 120.5t-30.5 156q0 57 17 116t55 117t92.5 102.5t137.5 72.5t182 28q162 0 239 -122q50 43 136 78t165 44h4zM631 641q-33 73 -92 116.5t-140 43.5h-20
q-36 -3 -70 -49t-55 -114.5t-21 -135.5q0 -81 28 -152t88.5 -119.5t142.5 -48.5q39 0 72.5 32.5t51 70t29.5 80.5q17 63 17 118q0 82 -31 158zM584 -801q63 0 115.5 43.5t80 107t27.5 128.5q0 139 -109.5 238.5t-259.5 99.5q-64 0 -116.5 -43.5t-79.5 -106.5t-27 -127
q0 -140 108 -238.5t261 -101.5zM588 1264q10 14 66.5 37.5t88.5 23.5q17 0 17 -8q0 -2 -2 -4l-172 -221q-13 -15 -70 -38.5t-90 -23.5q-8 0 -12 4l-172 221v2q0 17 61.5 42.5t95.5 25.5q11 0 15 -4l110 -139z" />
    <glyph glyph-name="AEacute" unicode="&#xc6;&#x301;" horiz-adv-x="1894" 
d="M281 49q-3 -6 -11 -14h113q51 0 -27 -35q-70 -37 -120 -37h-197q-46 0 24 37q66 32 115 35l535 1182h-156q-38 0 1 23q10 6 24 13q72 35 120 35h838q12 0 12 -4v-49q3 -21 -86 -51q-88 -30 -88 -10v43h-501l167 -568h496q48 0 -27 -35q-73 -36 -120 -36h-328l160 -543
h612q42 23 72 33q88 34 88 12v-51q0 -11 -41 -29q-70 -37 -121 -37h-909q-46 0 24 37q58 27 99 33l-162 545h-367zM866 649l-125 420l-190 -420h315zM905 1491q-14 -16 -68.5 -37.5t-86.5 -21.5q-15 0 -15 6q0 2 6 8l246 246q16 16 70.5 37.5t85.5 21.5q12 0 12 -6
q0 -4 -4 -8z" />
    <glyph glyph-name="aeacute" unicode="&#xe6;&#x301;" horiz-adv-x="1308" 
d="M1268 651h6q10 0 10 -6q0 -15 -72 -43l-536 -209q15 -55 33 -108q35 -108 119.5 -178t177.5 -70q48 0 80.5 15.5t72.5 51.5q19 16 71 36t83 20q14 0 14 -4q0 -5 -6 -11q-70 -66 -199.5 -124t-259.5 -58q-82 0 -155 41t-121 111q-251 -152 -436 -152q-140 0 -140 115
q0 57 51 141q133 218 359 404q-29 85 -94.5 132.5t-149.5 47.5l-39 -2q-12 0 -12 4q0 24 78 45.5t119 21.5q170 0 245 -129q60 57 154.5 93t179.5 36q120 0 207 -79q17 -16 44.5 -51.5t54 -58.5t61.5 -32zM1077 590q-31 13 -53.5 35.5t-45.5 52.5t-42 47q-89 76 -178 76h-13
q-47 -33 -74.5 -90t-27.5 -127t23 -154zM481 406q-5 23 -35 135q-52 -54 -91.5 -99t-81 -101.5t-64.5 -110t-23 -97.5q0 -52 27 -76t70 -24q69 0 158 47t116 86q-47 100 -76 240zM612 1079q-14 -16 -68.5 -37.5t-86.5 -21.5q-15 0 -15 6q0 1 7 8l245 246q16 16 70.5 37.5
t85.5 21.5q12 0 12 -6q0 -4 -4 -8z" />
    <glyph glyph-name="Oslashacute" unicode="&#xd8;&#x301;" horiz-adv-x="1554" 
d="M850 1288q220 0 397 -133l76 76q25 25 111 51q59 14 58 1q-1 -3 -5 -7l-176 -178q182 -182 182 -443q0 -128 -50.5 -244.5t-139.5 -205.5q-112 -114 -267 -178t-331 -64q-223 0 -398 135l-74 -75q-32 -32 -112 -52q-58 -11 -58 -3q0 2 5 7l176 179q-183 186 -183 442
q0 262 189 451q113 113 269 177t331 64zM1188 977l-764 -764q178 -178 426 -178q162 0 289 127q178 178 178 434q0 212 -129 381zM367 276l763 764q-183 177 -425 177q-164 0 -289 -125q-178 -178 -178 -437q0 -207 129 -379zM735 1491q-14 -16 -68.5 -37.5t-86.5 -21.5
q-15 0 -15 6q0 2 6 8l246 246q16 16 70.5 37.5t85.5 21.5q12 0 12 -6q0 -4 -4 -8z" />
    <glyph glyph-name="oslashacute" unicode="&#xf8;&#x301;" horiz-adv-x="888" 
d="M406 848q77 24 139 24q127 0 209 -92l34 35q16 16 70 36.5t86 20.5q14 0 14 -4q0 -6 -4 -8l-153 -155q35 -88 35 -220q0 -89 -11 -159q-16 -103 -88 -187.5t-172 -130t-205 -45.5q-124 0 -208 94l-35 -34q-18 -18 -71.5 -39t-84.5 -21q-14 0 -14 6l4 8l153 154
q-34 84 -34 229q0 194 81 314.5t255 173.5zM254 281l369 368q-31 67 -90 109.5t-127 42.5h-17q-143 -97 -143 -379q0 -94 8 -141zM651 557l-368 -369q30 -67 88.5 -110t124.5 -43l20 2q143 93 143 360q0 118 -8 160zM403 1079q-14 -16 -68.5 -37.5t-86.5 -21.5q-15 0 -15 6
q0 1 7 8l245 246q16 16 70.5 37.5t85.5 21.5q12 0 12 -6q0 -4 -4 -8z" />
    <glyph glyph-name="Ansakut" unicode="&#xe000;&#x301;" horiz-adv-x="1161" 
d="M-88 -426q-63 -29 -102 -29q-15 0 -15 6q0 15 60 39q125 53 192.5 182t67.5 296v319q0 367 485 371l-192 409h-146q-6 0 -6 4q0 21 59.5 70t79.5 49h148q6 0 6 -4l592 -1249v-6q0 -18 -30.5 -43t-51.5 -25h-688q-15 0 -15 6q0 15 64.5 41.5t97.5 26.5h424l-303 639
q-22 1 -79.5 5.5t-88.5 4.5q-35 0 -63.5 -9t-56.5 -32t-44 -73t-16 -123v-320q0 -193 -86 -330t-293 -225zM449 1491q-14 -16 -69 -37.5t-87 -21.5q-14 0 -14 6q0 2 6 8l245 246q16 16 70.5 37.5t85.5 21.5q12 0 12 -6q0 -4 -4 -8z" />
    <glyph glyph-name="Anscircumflex" unicode="&#xe000;&#x302;" horiz-adv-x="1161" 
d="M-88 -426q-63 -29 -102 -29q-15 0 -15 6q0 15 60 39q125 53 192.5 182t67.5 296v319q0 367 485 371l-192 409h-146q-6 0 -6 4q0 21 59.5 70t79.5 49h148q6 0 6 -4l592 -1249v-6q0 -18 -30.5 -43t-51.5 -25h-688q-15 0 -15 6q0 15 64.5 41.5t97.5 26.5h424l-303 639
q-22 1 -79.5 5.5t-88.5 4.5q-35 0 -63.5 -9t-56.5 -32t-44 -73t-16 -123v-320q0 -193 -86 -330t-293 -225zM383 1505q-11 -15 -67.5 -38t-88.5 -23q-16 0 -16 6q0 4 2 6l172 221q13 15 69.5 38.5t88.5 23.5q10 0 14 -4l172 -224q0 -17 -62 -42t-96 -25q-10 0 -14 4l-111 139
z" />
    <glyph glyph-name="Ansmakron" unicode="&#xe000;&#x304;" horiz-adv-x="1161" 
d="M-88 -426q-63 -29 -102 -29q-15 0 -15 6q0 15 60 39q125 53 192.5 182t67.5 296v319q0 367 485 371l-192 409h-146q-6 0 -6 4q0 21 59.5 70t79.5 49h148q6 0 6 -4l592 -1249v-6q0 -18 -30.5 -43t-51.5 -25h-688q-15 0 -15 6q0 15 64.5 41.5t97.5 26.5h424l-303 639
q-22 1 -79.5 5.5t-88.5 4.5q-35 0 -63.5 -9t-56.5 -32t-44 -73t-16 -123v-320q0 -193 -86 -330t-293 -225zM102 1456q-14 0 -14 6q0 16 64 42t96 26h626q15 0 15 -6q0 -17 -64.5 -42.5t-95.5 -25.5h-627z" />
    <glyph glyph-name="Aihvuscircumflex" unicode="&#xe004;&#x302;" horiz-adv-x="1337" 
d="M702 -37q-136 0 -257 52.5t-204 139.5t-131.5 202t-48.5 239q0 147 64.5 277t172.5 221t251.5 143.5t298.5 52.5q114 0 222 -38.5t194 -110.5l4 -4q5 1 18.5 3.5t18.5 2.5q12 0 12 -6v-50q0 -14 -64 -40.5t-96 -26.5q-10 0 -14 4q-88 92 -203 142.5t-238 50.5
q-121 0 -226 -73.5t-167 -191.5t-71 -252h942q14 0 14 -6q0 -17 -64.5 -42t-95.5 -25h-798q8 -162 92 -297.5t222 -214t298 -78.5q93 0 163.5 33.5t135.5 103.5q14 15 71 36t87 21q12 0 12 -4v-49q0 -5 -18.5 -17.5t-49.5 -25.5t-59 -18q-110 -73 -241 -113.5t-247 -40.5z
M705 1505q-11 -15 -67.5 -38t-88.5 -23q-17 0 -17 6q0 3 3 6l172 221q13 15 69.5 38.5t87.5 23.5q11 0 15 -4l172 -224q0 -17 -62 -42t-96 -25q-10 0 -14 4l-111 139z" />
    <glyph glyph-name="Aihvusmakron" unicode="&#xe004;&#x304;" horiz-adv-x="1337" 
d="M702 -37q-136 0 -257 52.5t-204 139.5t-131.5 202t-48.5 239q0 147 64.5 277t172.5 221t251.5 143.5t298.5 52.5q114 0 222 -38.5t194 -110.5l4 -4q5 1 18.5 3.5t18.5 2.5q12 0 12 -6v-50q0 -14 -64 -40.5t-96 -26.5q-10 0 -14 4q-88 92 -203 142.5t-238 50.5
q-121 0 -226 -73.5t-167 -191.5t-71 -252h942q14 0 14 -6q0 -17 -64.5 -42t-95.5 -25h-798q8 -162 92 -297.5t222 -214t298 -78.5q93 0 163.5 33.5t135.5 103.5q14 15 71 36t87 21q12 0 12 -4v-49q0 -5 -18.5 -17.5t-49.5 -25.5t-59 -18q-110 -73 -241 -113.5t-247 -40.5z
M406 1456q-15 0 -15 6q0 16 64 42t96 26h627q14 0 14 -6q0 -17 -64.5 -42.5t-95.5 -25.5h-626z" />
    <glyph glyph-name="Othalcircumflex" unicode="&#xe019;&#x302;" horiz-adv-x="1503" 
d="M354 -215q-74 -31 -112 -31q-13 0 -13 6q0 13 72.5 46.5t189 81.5t156.5 67q-102 48 -181.5 93.5t-158.5 107.5t-130.5 128.5t-83.5 153t-32 183.5q0 195 104 349t277.5 236t382.5 82q175 0 316 -78.5t221 -217t80 -310.5q0 -96 -32 -182.5t-83.5 -154t-130.5 -131
t-159 -111t-183 -97.5q20 -9 217 -94q5 -2 31.5 -12.5l53 -21t55 -22.5t46 -21.5t17.5 -12.5q0 -15 -65 -41.5t-95 -26.5q-8 0 -10 2l-410 176l-151 -65q-13 -6 -84 -35.5t-105 -46.5zM805 29q81 42 145 84t125.5 97t101.5 114.5t64.5 135.5t24.5 161q0 168 -76.5 304.5
t-211 214t-300.5 77.5q-129 0 -231.5 -76.5t-155.5 -198t-53 -260.5q0 -95 31 -179.5t80.5 -149.5t126 -126t153.5 -106t176 -92zM705 1505q-11 -15 -67.5 -38t-88.5 -23q-17 0 -17 6q0 3 3 6l172 221q13 15 69.5 38.5t87.5 23.5q11 0 15 -4l172 -224q0 -17 -62 -42t-96 -25
q-10 0 -14 4l-111 139z" />
    <glyph glyph-name="Othalmakron" unicode="&#xe019;&#x304;" horiz-adv-x="1503" 
d="M354 -215q-74 -31 -112 -31q-13 0 -13 6q0 13 72.5 46.5t189 81.5t156.5 67q-102 48 -181.5 93.5t-158.5 107.5t-130.5 128.5t-83.5 153t-32 183.5q0 195 104 349t277.5 236t382.5 82q175 0 316 -78.5t221 -217t80 -310.5q0 -96 -32 -182.5t-83.5 -154t-130.5 -131
t-159 -111t-183 -97.5q20 -9 217 -94q5 -2 31.5 -12.5l53 -21t55 -22.5t46 -21.5t17.5 -12.5q0 -15 -65 -41.5t-95 -26.5q-8 0 -10 2l-410 176l-151 -65q-13 -6 -84 -35.5t-105 -46.5zM805 29q81 42 145 84t125.5 97t101.5 114.5t64.5 135.5t24.5 161q0 168 -76.5 304.5
t-211 214t-300.5 77.5q-129 0 -231.5 -76.5t-155.5 -198t-53 -260.5q0 -95 31 -179.5t80.5 -149.5t126 -126t153.5 -106t176 -92zM406 1456q-15 0 -15 6q0 16 64 42t96 26h627q14 0 14 -6q0 -17 -64.5 -42.5t-95.5 -25.5h-626z" />
    <glyph glyph-name="Urusakut" unicode="&#xe00f;&#x301;" horiz-adv-x="1576" 
d="M1354 -37h-197q-14 0 -14 6q0 9 30 25.5t68 28.5v684q0 133 -65.5 250t-182 188.5t-254.5 71.5h-354v-1180h84q14 0 14 -6q0 -14 -65.5 -41t-95.5 -27h-197q-14 0 -14 6q0 9 30 25.5t68 28.5v1194h-133q-15 0 -15 6q0 15 65 41t97 26h664q144 0 266 -70.5t193 -191
t71 -260.5v-731h84q15 0 15 -6q0 -14 -65.5 -41t-96.5 -27zM748 1491q-14 -16 -69 -37.5t-87 -21.5q-14 0 -14 6q0 2 6 8l245 246q16 16 70.5 37.5t85.5 21.5q12 0 12 -6q0 -4 -4 -8z" />
    <glyph glyph-name="Uruscircumflex" unicode="&#xe00f;&#x302;" horiz-adv-x="1576" 
d="M1354 -37h-197q-14 0 -14 6q0 9 30 25.5t68 28.5v684q0 133 -65.5 250t-182 188.5t-254.5 71.5h-354v-1180h84q14 0 14 -6q0 -14 -65.5 -41t-95.5 -27h-197q-14 0 -14 6q0 9 30 25.5t68 28.5v1194h-133q-15 0 -15 6q0 15 65 41t97 26h664q144 0 266 -70.5t193 -191
t71 -260.5v-731h84q15 0 15 -6q0 -14 -65.5 -41t-96.5 -27zM659 1505q-11 -15 -67 -38t-88 -23q-17 0 -17 6q0 4 2 6l173 221q13 15 69.5 38.5t87.5 23.5q11 0 15 -4l172 -224q0 -17 -62 -42t-96 -25q-10 0 -14 4l-111 139z" />
    <glyph glyph-name="Urusmakron" unicode="&#xe00f;&#x304;" horiz-adv-x="1576" 
d="M1354 -37h-197q-14 0 -14 6q0 9 30 25.5t68 28.5v684q0 133 -65.5 250t-182 188.5t-254.5 71.5h-354v-1180h84q14 0 14 -6q0 -14 -65.5 -41t-95.5 -27h-197q-14 0 -14 6q0 9 30 25.5t68 28.5v1194h-133q-15 0 -15 6q0 15 65 41t97 26h664q144 0 266 -70.5t193 -191
t71 -260.5v-731h84q15 0 15 -6q0 -14 -65.5 -41t-96.5 -27zM324 1456q-15 0 -15 6q0 16 64 42t96 26h627q14 0 14 -6q0 -17 -64.5 -42.5t-95.5 -25.5h-626z" />
    <glyph glyph-name="ansakut" unicode="&#x10330;&#x301;" horiz-adv-x="948" 
d="M1049 37q20 0 20 -6q0 -25 -76.5 -46.5t-109.5 -21.5q-60 0 -111 18.5t-91 54.5t-71 77t-60 100t-50 108t-49 116t-48 110h-2q-84 0 -116.5 -45.5t-32.5 -134.5l12 -289q0 -61 -7.5 -111.5t-30 -108.5t-60.5 -105.5t-103 -94.5t-153 -84q-71 -29 -103 -29q-12 0 -12 6
q0 15 60 41q72 30 120.5 74.5t72.5 101.5t33 112t9 124q0 48 -6 142t-6 135q0 68 11 117.5t41 95t89.5 74.5t149.5 42q-108 191 -271 191h-26q-23 0 -23 6q0 24 77.5 45.5t111.5 21.5q73 0 133 -28.5t102.5 -77.5t78 -111.5t65 -132.5t58 -139.5t62 -132t71.5 -111.5
t92.5 -77.5t119.5 -28.5q19 0 29 2zM305 1079q-14 -16 -68.5 -37.5t-86.5 -21.5q-15 0 -15 6q0 2 6 8l246 246q16 16 70.5 37.5t85.5 21.5q12 0 12 -6q0 -4 -4 -8z" />
    <glyph glyph-name="anscircumflex" unicode="&#x10330;&#x302;" horiz-adv-x="948" 
d="M1049 37q20 0 20 -6q0 -25 -76.5 -46.5t-109.5 -21.5q-60 0 -111 18.5t-91 54.5t-71 77t-60 100t-50 108t-49 116t-48 110h-2q-84 0 -116.5 -45.5t-32.5 -134.5l12 -289q0 -61 -7.5 -111.5t-30 -108.5t-60.5 -105.5t-103 -94.5t-153 -84q-71 -29 -103 -29q-12 0 -12 6
q0 15 60 41q72 30 120.5 74.5t72.5 101.5t33 112t9 124q0 48 -6 142t-6 135q0 68 11 117.5t41 95t89.5 74.5t149.5 42q-108 191 -271 191h-26q-23 0 -23 6q0 24 77.5 45.5t111.5 21.5q73 0 133 -28.5t102.5 -77.5t78 -111.5t65 -132.5t58 -139.5t62 -132t71.5 -111.5
t92.5 -77.5t119.5 -28.5q19 0 29 2zM258 1094q-11 -15 -67.5 -38.5t-88.5 -23.5q-16 0 -16 6q0 4 2 6l172 222q13 15 69.5 38t88.5 23q10 0 14 -4l172 -223q0 -17 -62 -42.5t-96 -25.5q-10 0 -14 4l-110 140z" />
    <glyph glyph-name="ansmakron" unicode="&#x10330;&#x304;" horiz-adv-x="948" 
d="M1049 37q20 0 20 -6q0 -25 -76.5 -46.5t-109.5 -21.5q-60 0 -111 18.5t-91 54.5t-71 77t-60 100t-50 108t-49 116t-48 110h-2q-84 0 -116.5 -45.5t-32.5 -134.5l12 -289q0 -61 -7.5 -111.5t-30 -108.5t-60.5 -105.5t-103 -94.5t-153 -84q-71 -29 -103 -29q-12 0 -12 6
q0 15 60 41q72 30 120.5 74.5t72.5 101.5t33 112t9 124q0 48 -6 142t-6 135q0 68 11 117.5t41 95t89.5 74.5t149.5 42q-108 191 -271 191h-26q-23 0 -23 6q0 24 77.5 45.5t111.5 21.5q73 0 133 -28.5t102.5 -77.5t78 -111.5t65 -132.5t58 -139.5t62 -132t71.5 -111.5
t92.5 -77.5t119.5 -28.5q19 0 29 2zM-39 1044q-14 0 -14 7q0 16 63.5 41.5t95.5 25.5h627q15 0 15 -6q0 -17 -64.5 -42.5t-95.5 -25.5h-627z" />
    <glyph glyph-name="aihvuscircumflex" unicode="&#x10334;&#x302;" horiz-adv-x="800" 
d="M731 479q12 0 12 -6q0 -16 -63.5 -41.5t-95.5 -25.5h-348q2 -82 33 -164.5t96 -144.5t149 -62q101 0 154 67q13 15 69.5 37.5t89.5 22.5q13 0 13 -4t-2 -6q-59 -73 -216 -131t-247 -58q-75 0 -136 35.5t-99 92.5t-58.5 126.5t-20.5 140.5q0 107 39.5 208t114.5 171
q56 53 153 94t181 41q107 0 194 -90v-4q0 -16 -63.5 -41.5t-95.5 -25.5q-5 0 -35.5 24t-69 48t-65.5 24q-34 0 -66.5 -38t-54 -92.5t-36 -107.5t-17.5 -90h491zM391 1094q-12 -15 -67.5 -38.5t-87.5 -23.5q-17 0 -17 6q0 4 2 6l172 222q13 15 69.5 38t88.5 23q10 0 14 -4
l172 -223q0 -17 -61.5 -42.5t-95.5 -25.5q-11 0 -15 4l-110 140z" />
    <glyph glyph-name="aihvusmakron" unicode="&#x10334;&#x304;" horiz-adv-x="800" 
d="M731 479q12 0 12 -6q0 -16 -63.5 -41.5t-95.5 -25.5h-348q2 -82 33 -164.5t96 -144.5t149 -62q101 0 154 67q13 15 69.5 37.5t89.5 22.5q13 0 13 -4t-2 -6q-59 -73 -216 -131t-247 -58q-75 0 -136 35.5t-99 92.5t-58.5 126.5t-20.5 140.5q0 107 39.5 208t114.5 171
q56 53 153 94t181 41q107 0 194 -90v-4q0 -16 -63.5 -41.5t-95.5 -25.5q-5 0 -35.5 24t-69 48t-65.5 24q-34 0 -66.5 -38t-54 -92.5t-36 -107.5t-17.5 -90h491zM92 1044q-14 0 -14 7q0 16 64 41.5t96 25.5h626q15 0 15 -6q0 -17 -64.5 -42.5t-95.5 -25.5h-627z" />
    <glyph glyph-name="othalcircumflex" unicode="&#x10349;&#x302;" horiz-adv-x="925" 
d="M811 -14q6 -3 6 -6q0 -13 -62 -39.5t-96 -26.5q-2 0 -5.5 1t-4.5 1q-141 32 -258 82q-139 -57 -268 -80q-24 -4 -27 -4q-12 0 -12 6q0 17 42.5 33t114.5 35t105 32q-127 61 -206 158t-79 225q0 56 13 107q38 158 171.5 259t305.5 101q93 0 166 -54.5t110 -137t37 -174.5
t-47 -176.5t-114 -143.5t-156 -110q106 -50 264 -88zM397 162q50 -40 92 -60q92 66 146.5 153.5t54.5 186.5q0 139 -85.5 248t-194.5 109q-29 0 -84.5 -78.5t-75.5 -153.5q-14 -52 -14 -106q0 -176 161 -299zM399 1094q-12 -15 -67.5 -38.5t-87.5 -23.5q-17 0 -17 6q0 4 2 6
l172 222q13 15 69.5 38t88.5 23q10 0 14 -4l172 -223q0 -17 -61.5 -42.5t-95.5 -25.5q-11 0 -15 4l-110 140z" />
    <glyph glyph-name="othalmakron" unicode="&#x10349;&#x304;" horiz-adv-x="925" 
d="M811 -14q6 -3 6 -6q0 -13 -62 -39.5t-96 -26.5q-2 0 -5.5 1t-4.5 1q-141 32 -258 82q-139 -57 -268 -80q-24 -4 -27 -4q-12 0 -12 6q0 17 42.5 33t114.5 35t105 32q-127 61 -206 158t-79 225q0 56 13 107q38 158 171.5 259t305.5 101q93 0 166 -54.5t110 -137t37 -174.5
t-47 -176.5t-114 -143.5t-156 -110q106 -50 264 -88zM397 162q50 -40 92 -60q92 66 146.5 153.5t54.5 186.5q0 139 -85.5 248t-194.5 109q-29 0 -84.5 -78.5t-75.5 -153.5q-14 -52 -14 -106q0 -176 161 -299zM102 1044q-14 0 -14 7q0 16 64 41.5t96 25.5h626q15 0 15 -6
q0 -17 -64.5 -42.5t-95.5 -25.5h-627z" />
    <glyph glyph-name="urusakut" unicode="&#x1033f;&#x301;" horiz-adv-x="1007" 
d="M684 145l2 390q0 100 -68 170.5t-163 70.5h-133v-745q0 -16 -64.5 -42t-97.5 -26q-15 0 -15 6v807h-120q-15 0 -15 4q0 13 61.5 40.5t100.5 27.5h428q111 0 186.5 -72.5t75.5 -179.5v-412q0 -147 80 -147q6 0 22 2t19 2q14 0 14 -6q0 -8 -31 -25t-79 -32t-88 -15
q-30 0 -51 10t-33.5 26t-19.5 41t-9 49t-2 56zM430 1079q-14 -16 -69 -37.5t-87 -21.5q-14 0 -14 6q0 2 6 8l246 246q16 16 70.5 37.5t85.5 21.5q12 0 12 -6q0 -4 -4 -8z" />
    <glyph glyph-name="uruscircumflex" unicode="&#x1033f;&#x302;" horiz-adv-x="1007" 
d="M684 145l2 390q0 100 -68 170.5t-163 70.5h-133v-745q0 -16 -64.5 -42t-97.5 -26q-15 0 -15 6v807h-120q-15 0 -15 4q0 13 61.5 40.5t100.5 27.5h428q111 0 186.5 -72.5t75.5 -179.5v-412q0 -147 80 -147q6 0 22 2t19 2q14 0 14 -6q0 -8 -31 -25t-79 -32t-88 -15
q-30 0 -51 10t-33.5 26t-19.5 41t-9 49t-2 56zM383 1094q-11 -15 -67.5 -38.5t-88.5 -23.5q-16 0 -16 6q0 4 2 6l172 222q13 15 69.5 38t88.5 23q10 0 14 -4l172 -223q0 -17 -62 -42.5t-96 -25.5q-10 0 -14 4l-111 140z" />
    <glyph glyph-name="urusmakron" unicode="&#x1033f;&#x304;" horiz-adv-x="1007" 
d="M684 145l2 390q0 100 -68 170.5t-163 70.5h-133v-745q0 -16 -64.5 -42t-97.5 -26q-15 0 -15 6v807h-120q-15 0 -15 4q0 13 61.5 40.5t100.5 27.5h428q111 0 186.5 -72.5t75.5 -179.5v-412q0 -147 80 -147q6 0 22 2t19 2q14 0 14 -6q0 -8 -31 -25t-79 -32t-88 -15
q-30 0 -51 10t-33.5 26t-19.5 41t-9 49t-2 56zM86 1044q-14 0 -14 7q0 16 63.5 41.5t95.5 25.5h627q14 0 14 -6q0 -17 -64 -42.5t-95 -25.5h-627z" />
    <glyph glyph-name="fbligatur" unicode="fb" horiz-adv-x="1576" 
d="M1085 848q84 24 146 24q74 0 130.5 -32t89.5 -88t49 -125.5t16 -151.5q0 -74 -11 -149q-23 -152 -160 -257.5t-305 -105.5q-77 0 -134.5 31t-90 86.5t-48 125t-15.5 154.5v850q-6 91 -74.5 155.5t-157.5 64.5h-16q-117 -76 -117 -230v-354h330q18 0 18 -6
q0 -13 -68 -39.5t-96 -26.5h-184v-1134q0 -6 -25.5 -23t-65.5 -33t-71 -16q-12 0 -12 8v1198h-184q-19 0 -19 6q0 17 70 41.5t96 24.5h37v295q0 97 67 181t171.5 131.5t216.5 47.5q103 0 176 -64.5t82 -164.5v-502q60 42 159 78zM1085 801h-16q-79 -52 -111 -141.5
t-32 -237.5q0 -108 26 -193.5t84 -139.5t142 -54h18q79 50 112 145.5t33 235.5q0 172 -68 278.5t-188 106.5z" />
    <glyph glyph-name="fffligatur" unicode="fff" horiz-adv-x="1695" 
d="M922 846h366v411q0 97 -66.5 169.5t-164.5 72.5h-19q-18 -2 -45 -34.5t-49 -86.5t-22 -106v-426zM748 1186q0 95 -67 167t-163 72h-18q-54 -34 -86.5 -95t-32.5 -132v-352h367v340zM844 1430q67 67 164 105t194 38q86 0 151.5 -45t94.5 -123q62 41 142 67.5t153 26.5
q104 0 177.5 -65t82.5 -164v-25q0 -13 -65 -40t-97 -27q-12 0 -12 6v24q-9 90 -75.5 153.5t-154.5 63.5h-18q-54 -34 -86.5 -95t-32.5 -132v-352h420q14 0 14 -6q0 -13 -65.5 -39.5t-95.5 -26.5h-273v-1136q0 -15 -62 -41.5t-97 -26.5q-15 0 -15 6v1198h-366v-1136
q0 -15 -62.5 -41.5t-97.5 -26.5q-14 0 -14 6v1198h-367v-1136q0 -15 -62.5 -41.5t-97.5 -26.5q-14 0 -14 6v1198h-182q-15 0 -15 6q0 16 64 41t98 25h35v291q0 96 65.5 180t170.5 133t219 49q110 0 182 -69z" />
    <glyph glyph-name="ffjligatur" unicode="ffj" horiz-adv-x="1560" 
d="M748 1186q0 95 -67 167t-163 72h-18q-54 -34 -86.5 -95t-32.5 -132v-352h367v340zM1040 -430q-22 0 -22 6q0 13 59 38t94 28q53 34 85 95t32 132v690q0 128 -51 201l-12 14h-303v-1136q0 -15 -62.5 -41.5t-97.5 -26.5q-14 0 -14 6v1198h-367v-1136q0 -15 -62.5 -41.5
t-97.5 -26.5q-14 0 -14 6v1198h-182q-15 0 -15 6q0 16 64 41t98 25h35v291q0 96 65.5 180t170.5 133t219 49q109 0 184 -69q55 55 155.5 99t200.5 44q105 0 178 -66t82 -164v-24q1 -9 -31 -26t-71.5 -29.5t-59.5 -12.5q-12 0 -12 6v25q-9 90 -75 153.5t-154 63.5h-19
q-53 -34 -85.5 -95t-32.5 -132v-426h295q65 26 108 26q62 0 99.5 -71t37.5 -180v-691q0 -139 -121 -240t-301 -120z" />
    <glyph glyph-name="fhligatur" unicode="fh" horiz-adv-x="1609" 
d="M1374 12q-56 -43 -83 -62t-68 -35.5t-82 -16.5q-19 0 -19 8q0 11 56 35q41 17 71.5 60t45.5 90.5t23.5 109t10.5 99.5t2 79q0 64 -1 98t-13 96t-35 101q-77 127 -205 127q-38 0 -72 -42t-52.5 -93.5t-24.5 -96.5v-540q0 -3 -24 -19t-65 -32.5t-75 -16.5q-12 0 -12 8v1241
q-6 91 -74.5 155.5t-157.5 64.5h-16q-117 -76 -117 -230v-354h330q18 0 18 -6q0 -13 -68 -39.5t-96 -26.5h-184v-1134q0 -6 -25.5 -23t-65.5 -33t-71 -16q-12 0 -12 8v1198h-184q-19 0 -19 6q0 17 70 41.5t96 24.5h37v295q0 97 67 181t171.5 131.5t216.5 47.5
q103 0 177 -65.5t83 -163.5v-494q59 38 141 66t154 28q149 0 233 -135q51 -84 51 -288q0 -167 -26.5 -262t-106.5 -175z" />
    <glyph glyph-name="fkligatur" unicode="fk" horiz-adv-x="1560" 
d="M928 29q0 -3 -24 -19t-65 -32.5t-75 -16.5q-12 0 -12 8v1241q-6 91 -74.5 155.5t-157.5 64.5h-16q-117 -76 -117 -230v-354h330q18 0 18 -6q0 -13 -68 -39.5t-96 -26.5h-184v-1134q0 -6 -25.5 -23t-65.5 -33t-71 -16q-12 0 -12 8v1198h-184q-19 0 -19 6q0 17 70 41.5
t96 24.5h37v295q0 97 67 181t171.5 131.5t216.5 47.5q103 0 177 -65.5t83 -163.5v-785l170 84q56 27 79 55.5t23 67.5q0 48 -29 113l-2 2q0 12 61.5 41t98.5 29q22 0 34.5 -50t12.5 -77q0 -94 -178 -179l-180 -88q45 -1 85 -17.5t67.5 -38.5t55 -61t42.5 -67t37 -72
q95 -194 260 -194q20 0 30 2q27 0 27 -6q0 -23 -77 -45.5t-118 -22.5q-105 0 -172.5 45.5t-124.5 157.5q-3 6 -23.5 46.5t-37 69.5t-40.5 65.5t-50 57.5t-51 23v-399z" />
    <glyph glyph-name="fstligatur" unicode="f&#x17f;t" horiz-adv-x="1806" 
d="M924 -362q0 -14 -61.5 -41t-98.5 -27q-14 0 -14 6v983q0 46 -10.5 99.5t-37 98t-61.5 44.5q-3 0 -7 -1t-5 -1q-17 0 -17 6q0 12 49.5 34.5t88.5 28.5v318l-2 22q-9 90 -75.5 153.5t-154.5 63.5h-18q-53 -34 -85 -95t-32 -132v-352h197q14 0 14 -6q0 -14 -66 -40t-94 -26
h-51v-1136q0 -14 -61.5 -41t-98.5 -27q-14 0 -14 6v1198h-184q-15 0 -15 6q0 16 65 41t97 25h37v291q0 84 49 159.5t129 120.5q144 82 275 82q110 0 180 -67l4 -2q64 64 160 103.5t206 39.5q73 0 131 -21.5t96.5 -58.5t64.5 -88t37 -107t11 -118q0 -176 -84 -334h385
q15 0 15 -6q0 -14 -66 -40t-94 -26h-246q-2 -59 -16 -214.5t-14 -229.5q0 -142 48.5 -218.5t170.5 -76.5q25 0 39 2q20 0 20 -6q0 -9 -31 -25q-77 -43 -172 -43q-74 0 -124.5 22t-77 65t-37.5 96t-11 126q0 80 16 251t17 251h-344q-14 0 -14 6q0 17 63.5 41.5t96.5 24.5h229
q57 132 57 274q0 167 -81.5 273t-231.5 106q-34 0 -59 -22t-56 -88q-26 -55 -26 -144v-1607z" />
    <glyph glyph-name="lllligatur" unicode="lll" horiz-adv-x="1497" 
d="M799 31q0 -15 -62.5 -41.5t-97.5 -26.5q-14 0 -14 6v1950q0 18 123 49q63 14 104 14q18 0 18 -4q-58 -387 -71 -825v-1122zM1124 119v1726q0 18 123 49q67 15 105 15q18 0 18 -4q-59 -392 -72 -815v-910q0 -147 82 -147l39 4q15 0 15 -6q0 -24 -77 -47t-118 -23
q-62 0 -88.5 37.5t-26.5 120.5zM297 31q0 -15 -62.5 -41.5t-97.5 -26.5q-14 0 -14 6v1876q0 18 123 49q68 15 104 15q19 0 19 -4q-59 -392 -72 -815v-1059z" />
    <glyph glyph-name="sbligatur" unicode="&#x17f;b" horiz-adv-x="1591" 
d="M1100 848q84 24 145 24q74 0 130.5 -32t89.5 -88t49 -125.5t16 -151.5q0 -81 -10 -149q-23 -152 -160 -257.5t-305 -105.5q-77 0 -134.5 31t-90.5 86.5t-48.5 125t-15.5 154.5v828q0 99 -69 170.5t-165 71.5h-16q-117 -76 -117 -230v-1560q0 -6 -26.5 -23t-66.5 -33
t-70 -16q-13 0 -13 8v983q0 31 -6 68.5t-17.5 76t-33.5 66t-49 31.5q-8 -2 -19 -2q-10 0 -10 4q0 13 45 34.5t90 30.5v273q0 83 49 157t131 123q45 27 127.5 53.5t147.5 26.5q117 0 189.5 -76.5t72.5 -181.5v-473q59 41 160 78zM1100 801h-17q-79 -52 -111 -141.5
t-32 -237.5q0 -108 26 -193.5t84 -139.5t142 -54h18q146 92 146 381q0 172 -68 278.5t-188 106.5z" />
    <glyph glyph-name="sfligatur" unicode="&#x17f;f" horiz-adv-x="1171" 
d="M223 559q0 84 -30 163t-76 79q-3 0 -8 -1l-5 -1q-16 0 -16 6q0 12 49 34.5t86 28.5v269q0 97 66.5 181.5t171 132.5t217.5 48q108 0 182 -74q68 68 164.5 108t194.5 40q104 0 177.5 -65.5t82.5 -164.5v-24q0 -14 -65 -41t-97 -27q-12 0 -12 6v25q-9 91 -76.5 154
t-153.5 63h-18q-55 -34 -87 -95t-32 -132v-426h330q14 0 14 -6q0 -14 -65.5 -40t-94.5 -26h-184v-1136q0 -15 -62.5 -41.5t-97.5 -26.5q-14 0 -14 6v1198h-182q-15 0 -15 6q0 17 64.5 41.5t95.5 24.5h37v362q-9 91 -75.5 155t-156.5 64l-16 -2q-53 -34 -85 -95t-32 -132
v-1560q0 -14 -61.5 -41t-99.5 -27q-15 0 -15 6v983z" />
    <glyph glyph-name="ssjligatur" unicode="&#x17f;&#x17f;j" horiz-adv-x="1576" 
d="M766 -424v999q0 78 -34 152t-75 74l-12 -2q-14 0 -14 6q0 12 47.5 34.5t87.5 28.5v318q0 96 -67.5 168.5t-166.5 72.5l-14 -2q-54 -34 -86.5 -95t-32.5 -132v-1560q0 -15 -62 -41.5t-97 -26.5q-15 0 -15 6v983q0 83 -30.5 162.5t-77.5 79.5l-13 -2q-14 0 -14 6
q0 12 47.5 34.5t87.5 28.5v269q0 96 64 180t169 133t222 49q107 0 180 -67l2 -2q62 57 159.5 100t199.5 43q103 0 177 -65t83 -165v-24q0 -14 -65 -41t-97 -27q-12 0 -12 6q0 98 -67.5 171t-166.5 73l-14 -2q-119 -75 -119 -254v-1607q0 -15 -62.5 -41.5t-97.5 -26.5
q-14 0 -14 6zM1057 -430q-21 0 -21 6q0 13 59 38t95 28q53 34 85 95t32 132v690q0 83 -31 162.5t-78 79.5l-12 -2q-15 0 -15 6q0 19 66.5 43t105.5 24q45 0 77.5 -40t46.5 -95.5t14 -115.5v-691q0 -141 -125 -241.5t-299 -118.5z" />
    <glyph glyph-name="sssligatur" unicode="&#x17f;&#x17f;&#x17f;" horiz-adv-x="1652" 
d="M766 1184q0 98 -67.5 170.5t-166.5 72.5l-14 -2q-54 -34 -86.5 -95t-32.5 -132v-1560q0 -15 -62 -41.5t-97 -26.5q-15 0 -15 6v983q0 83 -30.5 162.5t-77.5 79.5l-13 -2q-14 0 -14 6q0 12 47.5 34.5t87.5 28.5v269q0 95 61 174.5t155 126t202 59.5q16 2 37 2
q107 0 180 -67l2 -2q62 62 159 102.5t200 40.5q86 0 151 -45t94 -123q49 33 121 58.5t137 33.5q16 2 37 2q104 0 177.5 -65t82.5 -164v-25q0 -13 -64.5 -40t-96.5 -27q-13 0 -13 6q0 98 -67 170.5t-166 72.5l-15 -2q-118 -75 -118 -251v-1536q0 -15 -62.5 -41.5t-97.5 -26.5
q-14 0 -14 6v983q0 83 -31 162.5t-78 79.5l-12 -2q-15 0 -15 6q0 12 47.5 34.5t88.5 28.5v389q0 98 -67.5 171t-166.5 73q-2 0 -7.5 -1t-8.5 -1q-36 -3 -76.5 -84t-40.5 -170v-1607q0 -15 -62.5 -41.5t-97.5 -26.5q-14 0 -14 6v983q0 83 -31 162.5t-78 79.5l-12 -2
q-14 0 -14 6q0 12 47.5 34.5t87.5 28.5v316z" />
    <glyph glyph-name="sstligatur" unicode="&#x17f;&#x17f;t" horiz-adv-x="1822" 
d="M940 -362q0 -14 -61.5 -41t-98.5 -27q-14 0 -14 6v983q0 82 -31.5 162t-77.5 80q-3 0 -7 -1t-5 -1q-16 0 -16 6q0 12 49 34.5t88 28.5v318q0 93 -67.5 166t-163.5 73h-19q-53 -34 -85 -95t-32 -132v-1560q0 -14 -61 -41t-98 -27q-15 0 -15 6v983q0 84 -31 163t-77 79
q-3 0 -8 -1l-5 -1q-16 0 -16 6q0 12 49 34.5t88 28.5v269q0 84 49 159.5t129 120.5q144 82 275 82q110 0 180 -67l4 -2q64 64 160.5 103.5t206.5 39.5q73 0 131 -21.5t96.5 -58.5t64.5 -88t37 -107t11 -118q0 -176 -84 -334h385q14 0 14 -6q0 -14 -66 -40t-94 -26h-245
q-2 -69 -16.5 -220t-14.5 -220q0 -144 48 -221.5t171 -77.5q25 0 39 2q20 0 20 -6q0 -10 -30 -25q-77 -43 -172 -43q-60 0 -104 15t-71.5 41.5t-44.5 67t-23.5 85t-6.5 102.5q0 68 15.5 234.5t15.5 259.5l2 6h-344q-15 0 -15 6q0 17 63.5 41.5t96.5 24.5h229q58 135 58 274
q0 167 -82 273t-232 106h-26q-22 -2 -49 -40t-46.5 -97.5t-19.5 -116.5v-1607z" />
    <glyph glyph-name="shligatur" unicode="&#x17f;h" horiz-adv-x="1624" 
d="M1255 -74q-73 -28 -100 -28q-18 0 -18 8q0 11 55 35q41 17 71.5 60t45.5 91t24 109.5t11 100t2 77.5q0 62 -1.5 98t-13.5 96.5t-35 100.5q-77 127 -204 127q-38 0 -72.5 -42t-53 -93.5t-24.5 -96.5v-540q0 -3 -24 -19t-65 -32.5t-75 -16.5q-12 0 -12 8v1219
q0 100 -69.5 171t-164.5 71h-16q-117 -76 -117 -230v-1560q0 -6 -26.5 -23t-66.5 -33t-70 -16q-13 0 -13 8v983q0 31 -6 68.5t-17.5 76t-33.5 66t-49 31.5q-8 -2 -19 -2q-10 0 -10 4q0 13 45 34.5t90 30.5v273q0 83 49 157t131 123q45 27 127.5 53.5t147.5 26.5
q115 0 189.5 -76t74.5 -180v-467q59 38 141 66t154 28q149 0 233 -135q52 -86 52 -288q0 -167 -26.5 -262t-106.5 -175q-52 -44 -75.5 -58.5t-58.5 -27.5z" />
    <glyph glyph-name="siligatur" unicode="&#x17f;i" horiz-adv-x="1085" 
d="M223 559v16q0 78 -33 152t-75 74l-13 -2q-14 0 -14 6q0 12 49 34.5t86 28.5v269q0 144 136.5 252t318.5 108q106 0 178.5 -65t81.5 -164v-23q0 -15 -62.5 -41t-97.5 -26q-14 0 -14 6q0 97 -67.5 169t-166.5 72q-39 0 -71 -44.5t-47 -95.5t-15 -87v-1560q0 -15 -62 -41.5
t-97 -26.5q-15 0 -15 6v983zM764 559v16q0 78 -33.5 152t-75.5 74l-12 -2q-14 0 -14 6q0 19 67 43t105 24q66 0 101.5 -77t35.5 -174v-441q0 -147 82 -147l39 4q14 0 14 -6q0 -24 -76.5 -47t-117.5 -23q-62 0 -88.5 37.5t-26.5 120.5v440z" />
    <glyph glyph-name="slligatur" unicode="&#x17f;l" horiz-adv-x="1136" 
d="M1040 35q4 0 11 1t8 1q16 0 16 -6q0 -22 -78 -46t-120 -24q-46 0 -70 21h-2q-41 33 -41 137v1065q0 98 -68.5 169.5t-165.5 71.5h-14q-53 -34 -85 -95t-32 -132v-1560q0 -14 -61.5 -41t-99.5 -27q-15 0 -15 6v983q0 84 -30 163t-76 79q-3 0 -8 -1l-5 -1q-16 0 -16 6
q0 12 49 34.5t86 28.5v269q0 97 66 180.5t170.5 131.5t218.5 48q116 0 189 -75.5t73 -176.5v-1065q0 -102 37 -131v-2q20 -14 45 -14q12 0 18 2z" />
    <glyph glyph-name="ssligatur" unicode="&#x17f;&#x17f;" horiz-adv-x="1112" 
d="M764 1184q0 97 -67 170t-167 73l-14 -2q-53 -34 -85 -95t-32 -132v-1560q0 -15 -61.5 -41.5t-99.5 -26.5q-15 0 -15 6v983q0 84 -30 163t-78 79l-13 -2q-14 0 -14 6q0 12 49 34.5t86 28.5v269q0 96 65.5 180t170.5 133t219 49q110 0 180 -67l4 -2q55 55 156 99t201 44
q105 0 178 -66t82 -164l2 -24q0 -13 -66.5 -40.5t-97.5 -27.5q-12 0 -12 6q0 97 -67 170.5t-167 73.5l-14 -2q-117 -74 -117 -254v-1607q0 -15 -62 -41.5t-100 -26.5q-14 0 -14 6v983q0 84 -30.5 163t-78.5 79l-12 -2q-14 0 -14 6q0 12 49 34.5t86 28.5v316z" />
    <glyph glyph-name="ssiligatur" unicode="&#x17f;&#x17f;i" horiz-adv-x="1628" 
d="M766 559v16q0 78 -34 152t-75 74l-12 -2q-14 0 -14 6q0 12 49 34.5t86 28.5v316q0 98 -67.5 170.5t-166.5 72.5l-14 -2q-54 -34 -86.5 -95t-32.5 -132v-1560q0 -15 -62 -41.5t-97 -26.5q-15 0 -15 6v983q0 83 -30.5 162.5t-77.5 79.5l-13 -2q-14 0 -14 6q0 12 49 34.5
t86 28.5v269q0 96 64 180t169 133t222 49q107 0 180 -67q2 -2 4 -2q55 55 155.5 99t201.5 44q104 0 177.5 -65.5t82.5 -164.5v-24q0 -14 -65 -41t-97 -27q-12 0 -12 6q0 98 -67.5 171t-166.5 73l-14 -2q-119 -75 -119 -254v-1607q0 -15 -62.5 -41.5t-97.5 -26.5q-14 0 -14 6
v983zM1307 559v16q0 78 -34 152t-75 74l-12 -2q-15 0 -15 6q0 19 66.5 43t105.5 24q45 0 77.5 -40t46.5 -95.5t14 -115.5v-441q0 -147 82 -147l36 4q17 0 17 -6q0 -23 -77.5 -46.5t-117.5 -23.5q-62 0 -88 37.5t-26 120.5v440z" />
    <glyph glyph-name="sslligatur" unicode="&#x17f;&#x17f;l" horiz-adv-x="1677" 
d="M1581 35l18 2q15 0 15 -6q0 -23 -77 -47.5t-124 -24.5q-50 0 -79 34.5t-29 125.5v1138q0 97 -67 170.5t-167 73.5l-14 -2q-117 -74 -117 -254v-1607q0 -15 -62 -41.5t-100 -26.5q-14 0 -14 6v983q0 84 -30.5 163t-76.5 79q-3 0 -7 -1t-5 -1q-16 0 -16 6q0 12 49 34.5
t86 28.5v318q0 95 -67 168t-167 73l-14 -2q-53 -34 -85 -95t-32 -132v-1560q0 -15 -61.5 -41.5t-99.5 -26.5q-15 0 -15 6v983q0 84 -30 163t-76 79q-3 0 -8 -1l-5 -1q-16 0 -16 6q0 12 49 34.5t86 28.5v269q0 96 65.5 180t170.5 133t219 49q110 0 180 -67l4 -2
q63 58 160 100.5t197 42.5q114 0 188 -75t74 -179v-1139q0 -27 2 -47t9.5 -46t25.5 -40t45 -14q12 0 18 2z" />
    <glyph glyph-name="fadieresisligatur" unicode="f&#xe4;" horiz-adv-x="1552" 
d="M1653 37q22 0 22 -6q0 -10 -30 -25q-72 -43 -166 -43q-162 0 -252 139q-86 -62 -203.5 -101.5t-202.5 -39.5q-63 0 -105 32.5t-46 94.5q4 69 29.5 140.5t75 148t85 123t98.5 123.5q-93 178 -249 178h-21q-143 -31 -307 -31v-1132q0 -14 -62 -41t-98 -27q-14 0 -14 6v1196
l-182 2q-15 0 -15 6q0 16 64 42t96 26h37v289q0 142 131.5 251t318.5 109q87 0 147 -39t60 -94q0 -48 -51 -90l84 -86q0 -29 -60 -74t-75 -45q-6 0 -6 2l-99 98q-2 0 -2 5q0 10 19.5 27.5t39 41.5t19.5 49q0 61 -71 99.5t-146 38.5q-37 0 -86 -79t-49 -153v-354
q43 -2 131 -2q170 0 266 24q31 8 74 8q96 0 162.5 -46t120.5 -144l229 -455q99 -194 258 -194q21 0 31 2zM1194 160l-186 366q-8 -13 -51 -83t-59 -100.5t-35 -86.5t-19 -102q0 -53 36.5 -86t90.5 -33q13 0 26.5 2t27.5 7.5t24.5 9.5t26.5 14.5t23.5 15.5t25 19t23 18
t24.5 20t22 19zM1001 1169q-2 0 -2 5q0 6 13 22q94 94 125 94l6 -2l100 -102q0 -8 -12 -23q-29 -35 -69.5 -64.5t-55.5 -29.5q-6 0 -6 2z" />
    <glyph glyph-name="fjligatur" unicode="fj" horiz-adv-x="1019" 
d="M500 -430q-23 0 -23 6q0 13 60 38t94 28q53 34 85 95t32 132v690q0 66 -16.5 125.5t-45.5 89.5h-303v-1136q0 -15 -62 -41.5t-100 -26.5q-14 0 -14 6v1198h-182q-15 0 -15 6q0 16 64 41t98 25h35v291q0 141 123 244t332 116q106 0 178.5 -65t81.5 -164q0 -38 -55 -64
t-93 -26q-24 0 -26 28q-9 94 -77 156.5t-157 62.5h-14q-53 -34 -85 -95t-32 -132v-352h293q65 26 108 26q61 0 100.5 -72.5t39.5 -178.5v-691q0 -140 -124 -240.5t-300 -119.5z" />
    <glyph glyph-name="ftligatur" unicode="ft" horiz-adv-x="1267" 
d="M383 -362q0 -15 -62.5 -41.5t-97.5 -26.5q-14 0 -14 6v1198h-182q-15 0 -15 6q0 17 63.5 41.5t96.5 24.5h37v291q0 144 134 252t329 108q89 0 156.5 -28t106.5 -77.5t58 -111t19 -135.5q0 -156 -84 -299h385q14 0 14 -6q0 -14 -65.5 -40t-94.5 -26h-245
q-2 -59 -16.5 -214.5t-14.5 -229.5q0 -142 48.5 -218.5t170.5 -76.5q25 0 39 2q20 0 20 -6q0 -10 -30 -25q-71 -43 -172 -43q-61 0 -106 16.5t-72.5 44t-43.5 70t-22 88.5t-6 107q0 81 15.5 246.5t17.5 238.5h-367v-1136zM383 846h401q54 124 54 239q0 69 -18.5 128.5
t-54.5 107.5t-96 76t-137 28h-32q-32 -3 -74.5 -78.5t-42.5 -148.5v-352z" />
    <glyph glyph-name="fudieresisligatur" unicode="f&#xfc;" horiz-adv-x="1632" 
d="M834 1227q16 26 16 53q0 65 -80.5 118.5t-171.5 53.5q-87 0 -152 -65.5t-65 -188.5v-358q43 -2 129 -2q148 0 217 20q58 16 96 16q68 0 90.5 -44t22.5 -128v-428q0 -100 68 -170.5t161 -70.5l21 2q9 0 35.5 27.5t53.5 83t28 112.5v397q0 146 -82 146l-43 -4q-13 0 -13 4
q0 9 31 26.5t79.5 32t88.5 14.5q37 0 60.5 -14t34.5 -41.5t14.5 -55.5t3.5 -69v-375q0 -55 2 -88.5t14 -78t35 -76.5q16 -23 37.5 -33.5t34 -12t12.5 -3.5q0 -21 -76 -43.5t-92 -22.5q-78 0 -115 98q-61 -43 -140 -70.5t-157 -27.5q-112 0 -191 69t-79 185v440
q0 146 -82 146h-10q-127 -35 -289 -35v-1128q0 -14 -62 -41t-98 -27q-14 0 -14 6v1194h-23q-9 0 -62 1.5t-82.5 3t-29.5 5.5q0 13 61 40.5t99 27.5q25 0 37 -2v293q0 82 51.5 155.5t131 121.5t173 76t180.5 28q95 0 171.5 -43t76.5 -107q0 -46 -51 -88l94 -96
q0 -18 -57 -67.5t-80 -49.5q-4 0 -6 2l-98 98q-2 0 -2 5q0 7 21 29t22 24zM1137 1169q-2 0 -2 5q0 17 58 66.5t79 49.5q4 0 6 -2l100 -102q0 -19 -57 -68t-80 -49q-4 0 -6 2z" />
    <glyph glyph-name="fftligatur" unicode="fft" horiz-adv-x="1806" 
d="M924 -362q0 -15 -62 -41.5t-100 -26.5q-14 0 -14 6v1198h-365v-1136q0 -15 -62 -41.5t-100 -26.5q-14 0 -14 6v1198h-182q-15 0 -15 6q0 16 64 41t98 25h35v291q0 96 65.5 180t170.5 133t219 49q110 0 182 -69q65 65 161 104t207 39q91 0 159 -33.5t106 -91t55.5 -124.5
t17.5 -144q0 -173 -82 -334h385q15 0 15 -6q0 -13 -66 -39.5t-96 -26.5h-244q-2 -26 -16 -191.5t-14 -246.5q0 -56 6 -99.5t20.5 -82.5t38.5 -64.5t62.5 -40t89.5 -14.5q25 0 39 2q22 0 22 -6q0 -9 -31 -25q-77 -43 -172 -43q-75 0 -126 22.5t-78 66.5t-37.5 97t-10.5 127
q0 77 16.5 246.5t16.5 251.5h-364v-1136zM748 846v340q0 95 -67 167t-163 72h-18q-53 -34 -85 -95t-32 -132v-352h365zM924 1245v-399h397q55 125 55 270q0 170 -81 276.5t-232 106.5h-25q-36 -3 -75 -84.5t-39 -169.5z" />
    <glyph glyph-name="fodieresisligatur" unicode="f&#xf6;" horiz-adv-x="1501" 
d="M1010 846q77 24 141 24q75 0 138 -36t100 -99q51 -84 51 -252q0 -93 -10 -159q-15 -104 -87.5 -188.5t-173.5 -129.5t-206 -45q-75 0 -137 36t-99 99q-32 53 -41.5 116t-9.5 146q0 88 10 152q17 119 106 207.5t218 128.5zM793 1169q-2 0 -2 5t28.5 41.5t28.5 64.5
q0 65 -80 117.5t-172 52.5q-87 0 -151 -64t-64 -188v-350h330q14 0 14 -6q0 -16 -64 -42t-96 -26h-184v-1136q0 -14 -62 -41t-98 -27q-14 0 -14 6v1198h-182q-15 0 -15 6q0 16 65 42t95 26h37v291q0 67 34 128t90.5 106t127 79t144.5 51t142 17q93 0 169.5 -44t76.5 -106
q0 -46 -51 -88l94 -96q0 -18 -57 -67.5t-80 -49.5q-4 0 -6 2zM1008 799h-15q-143 -97 -143 -379q0 -82 9.5 -143.5t39.5 -114.5q34 -60 87.5 -94.5t115.5 -34.5l18 2q146 90 146 389q0 159 -52 248q-36 59 -90 93t-116 34zM1137 1169q-2 0 -2 5q0 17 58 66.5t79 49.5
q4 0 6 -2l100 -102q0 -19 -57 -68t-80 -49q-4 0 -6 2z" />
    <glyph glyph-name="llligatur" unicode="ll" horiz-adv-x="997" 
d="M799 1153v-973q0 -147 82 -147l39 4q14 0 14 -6q0 -23 -77 -47.5t-124 -24.5q-50 0 -79 34.5t-29 125.5v1800q0 18 123 49q63 14 104 14q18 0 18 -4q-58 -387 -71 -825zM297 31q0 -15 -62.5 -41.5t-97.5 -26.5q-14 0 -14 6v1876q0 18 123 49q68 15 104 15q19 0 19 -4
q-59 -392 -72 -815v-1059z" />
    <glyph glyph-name="sjligatur" unicode="&#x17f;&#x237;" horiz-adv-x="1036" 
d="M225 559v16q0 78 -33 152t-75 74l-13 -2q-14 0 -14 6q0 12 49 34.5t86 28.5v269q0 98 67.5 182t172 131t215.5 47q106 0 178.5 -64t81.5 -165v-23q0 -15 -62.5 -41t-97.5 -26q-14 0 -14 6q0 98 -68.5 169.5t-165.5 71.5q-39 0 -71 -44.5t-47 -95.5t-15 -87v-1560
q0 -15 -62 -41.5t-97 -26.5q-15 0 -15 6v983zM516 -430q-20 0 -20 6q0 13 58.5 38t94.5 28q53 34 85 95t32 132v690q0 84 -30.5 163t-78.5 79l-12 -2q-14 0 -14 6q0 19 67 43t105 24q66 0 101.5 -77t35.5 -174v-691q0 -141 -123.5 -240.5t-296.5 -119.5h-4z" />
    <glyph glyph-name="skligatur" unicode="&#x17f;k" horiz-adv-x="1574" 
d="M942 29q0 -3 -24 -19t-65 -32.5t-75 -16.5q-12 0 -12 8v1219q0 100 -69.5 171t-164.5 71h-16q-117 -76 -117 -230v-1560q0 -6 -26.5 -23t-66.5 -33t-70 -16q-13 0 -13 8v983q0 31 -6 68.5t-17.5 76t-33.5 66t-49 31.5q-8 -2 -19 -2q-10 0 -10 4q0 13 45 34.5t90 30.5v273
q0 83 49 157t131 123q45 27 127.5 53.5t147.5 26.5q114 0 189 -75t75 -179v-760l170 84q56 27 79 55.5t23 67.5q0 50 -28 113l-2 2q0 12 61 41t98 29q22 0 35 -50.5t13 -76.5q0 -93 -179 -179l-180 -88q45 -1 85 -17.5t67.5 -38.5t55 -61t42.5 -67t37 -72q95 -194 260 -194
q21 0 31 2q26 0 26 -6q0 -23 -76.5 -45.5t-117.5 -22.5q-105 0 -172.5 45.5t-124.5 157.5l-23.5 47t-37 69t-41 65t-50.5 58t-51 23v-399z" />
    <glyph glyph-name="ffligatur" unicode="ff" horiz-adv-x="1157" 
d="M922 846h419q15 0 15 -6q0 -13 -66 -39.5t-96 -26.5h-272v-1136q0 -15 -62.5 -41.5t-97.5 -26.5q-14 0 -14 6v1198h-367v-1136q0 -15 -62.5 -41.5t-97.5 -26.5q-14 0 -14 6v1198h-182q-15 0 -15 6q0 16 64 41t98 25h35v291q0 96 65.5 180t170.5 133t219 49q110 0 182 -69
q67 67 164 105t194 38q104 0 177.5 -65.5t82.5 -164.5q0 -26 -30.5 -48.5t-64 -33t-52.5 -10.5q-25 0 -27 31q-9 91 -74.5 154t-156.5 63h-19q-29 -2 -72.5 -76t-43.5 -151v-426zM748 1186q0 95 -67 167t-163 72h-18q-54 -34 -86.5 -95t-32.5 -132v-352h367v340z" />
    <glyph glyph-name="filigatur" unicode="fi" horiz-adv-x="1069" 
d="M788 -18q-40 32 -40 137v440q0 127 -52 201l-12 14h-303v-1136q0 -15 -62.5 -41.5t-97.5 -26.5q-14 0 -14 6v1198h-182q-15 0 -15 6q0 17 64.5 41.5t95.5 24.5h37v291q0 95 63 178t168.5 132.5t223.5 49.5q105 0 178 -64t82 -165q0 -27 -31 -49t-64 -31.5t-53 -9.5
q-27 0 -29 28q-6 93 -75 156t-156 63h-14q-55 -34 -87 -95t-32 -132v-352h295q61 26 108 26q62 0 100 -71t38 -180v-441q0 -147 79 -147q7 0 21 2t18 2q17 0 17 -6q0 -23 -79.5 -46.5t-119.5 -23.5q-43 0 -70 21z" />
    <glyph glyph-name="flligatur" unicode="fl" horiz-adv-x="1120" 
d="M381 -362q0 -15 -62.5 -41.5t-97.5 -26.5q-14 0 -14 6v1198h-182q-15 0 -15 6q0 17 64.5 41.5t95.5 24.5h37v291q0 83 43 153t111 114t146.5 68.5t154.5 24.5q112 0 186 -75.5t74 -176.5v-1065q0 -147 82 -147q7 0 19.5 2t16.5 2q17 0 17 -6q0 -22 -77 -47t-124 -25
q-50 0 -79 34.5t-29 125.5v655h-367v-1136zM381 846h367v338q0 98 -68.5 169.5t-167.5 71.5h-14q-18 -2 -45.5 -35t-49.5 -87t-22 -105v-352z" />
    <glyph glyph-name="ffiligatur" unicode="ffi" horiz-adv-x="1619" 
d="M1294 559q0 123 -49 201l-14 14h-303v-1134q0 -6 -27.5 -23.5t-67.5 -33t-67 -15.5q-14 0 -14 8v1198h-365v-1134q0 -6 -25.5 -23t-65.5 -33t-71 -16q-12 0 -12 8v1198h-184q-19 0 -19 6q0 17 70 41.5t96 24.5h37v297q0 80 45.5 150t115 114.5t147.5 70t147 25.5
q110 0 182 -69q61 61 168 102t190 41q103 0 177 -64t83 -165v-25q0 -4 -24 -20t-63.5 -32t-71.5 -16q-15 0 -15 9q0 99 -68.5 170t-164.5 71h-17q-116 -76 -116 -229v-430h295q56 26 108 26q63 0 100 -74t37 -180v-440q0 -145 78 -145q8 0 26 2t23 2q15 0 15 -4
q0 -18 -68 -44t-127 -26q-35 0 -59 11t-36 25t-18 39t-7 40t-1 41v440zM752 1190q0 101 -70.5 171.5t-161.5 70.5h-16q-117 -76 -117 -230v-356h365v344z" />
    <glyph glyph-name="fflligatur" unicode="ffl" horiz-adv-x="1660" 
d="M381 -362q0 -15 -62.5 -41.5t-97.5 -26.5q-14 0 -14 6v1198h-182q-15 0 -15 6q0 17 64.5 41.5t95.5 24.5h37v293q0 82 43 152t110.5 114.5t146.5 69t155 24.5q110 0 182 -69q66 66 163.5 103.5t194.5 37.5q112 0 186 -75.5t74 -176.5v-1139q0 -147 82 -147l37 4
q16 0 16 -6q0 -23 -77.5 -46.5t-116.5 -23.5q-62 0 -88.5 37.5t-26.5 120.5v655h-366v-1136q0 -15 -62.5 -41.5t-97.5 -26.5q-14 0 -14 6v1198h-367v-1136zM381 846h367v340q0 95 -67.5 167t-164.5 72h-18q-18 -2 -45.5 -34.5t-49.5 -86.5t-22 -106v-352zM922 846h366v411
q0 97 -68.5 169.5t-166.5 72.5h-15q-29 -2 -72.5 -76.5t-43.5 -150.5v-426z" />
    <glyph glyph-name="stligatur" unicode="&#x17f;t" horiz-adv-x="1284" 
d="M399 -362q0 -15 -62 -41.5t-97 -26.5q-15 0 -15 6v983q0 82 -31 162t-77 80q-3 0 -8 -1l-5 -1q-14 0 -14 6q0 11 47.5 34t87.5 29v269q0 144 134 252t329 108q89 0 156.5 -28t106.5 -77.5t58 -111t19 -135.5q0 -156 -84 -299h385q14 0 14 -6q0 -14 -65 -40t-94 -26h-246
q-2 -59 -16.5 -214.5t-14.5 -229.5q0 -142 48.5 -218.5t170.5 -76.5q25 0 39 2q21 0 21 -6q0 -9 -31 -25q-71 -43 -172 -43q-61 0 -106 16.5t-72.5 44t-43.5 70t-22 88.5t-6 107q0 81 15.5 246.5t17.5 238.5h-344q-14 0 -14 6q0 17 64 41.5t95 24.5h234q53 122 53 239
q0 69 -18 128.5t-54 107.5t-96 76t-137 28h-33q-20 -2 -47.5 -36.5t-48.5 -88.5t-21 -102v-1560z" />
    <glyph glyph-name=".notdef" horiz-adv-x="839" 
d="M223 1288h541q14 0 14 -4v-1253q0 -9 -26 -24t-62 -27q-49 -17 -74 -17h-540q-13 0 -13 6v1254q-1 5 11 13.5t32.5 18t43.5 17.5q41 16 73 16zM604 1217h-366v-1182h366v1182z" />
    <glyph glyph-name=".null" horiz-adv-x="0" 
 />
    <glyph glyph-name="nonmarkingreturn" horiz-adv-x="682" 
 />
    <glyph glyph-name="space" unicode=" " horiz-adv-x="819" 
 />
    <glyph glyph-name="exclam" unicode="!" horiz-adv-x="610" 
d="M373 416q0 -8 -26 -23t-62 -28q-23 -8 -43 -12t-31.5 -4t-11.5 5v1532q0 18 123 49q35 9 76.5 14t45.5 -3q-37 -256 -51 -414q-20 -274 -20 -412v-704zM166 31q-4 3 2.5 13.5t21 26t33.5 31.5q29 25 53.5 39t30.5 9l99 -99q5 -6 -12 -28t-46 -46t-54 -37.5t-30 -7.5z" />
    <glyph glyph-name="quotedbl" unicode="&#x22;" horiz-adv-x="790" 
d="M307 1087q0 -9 -21 -32.5t-50 -46.5q-52 -41 -69 -37q-3 1 -3 4v442q0 23 72 80q52 44 68 38q2 -2 3 -5v-443zM627 1087q0 -9 -21 -32.5t-51 -46.5q-52 -41 -69 -37q-2 2 -3 4v442q0 23 72 80q51 43 68 38q4 -1 4 -5v-443z" />
    <glyph glyph-name="numbersign" unicode="#" horiz-adv-x="1341" 
d="M178 242q-26 0 -7 16q12 10 34 21q74 36 121 36h49l78 365h-181q-25 0 -10 15q12 10 35 22q80 35 121 35h51l55 262q2 9 28.5 24t63.5 27q72 24 81 11q1 -1 1 -3l-67 -321h166l55 262q2 9 28.5 24t63.5 27q69 23 82 12q2 -1 2 -4l-70 -321h203q24 0 11 -14
q-10 -10 -35 -21q-76 -37 -121 -37h-72l-78 -365h203q28 0 4 -18l-31 -18q-72 -37 -120 -37h-72l-55 -262q-2 -9 -29.5 -24.5t-63.5 -27.5q-77 -21 -81 -8l67 322h-166l-55 -262q-2 -9 -29 -24.5t-63 -27.5q-81 -22 -84 -8l69 322h-182zM537 315h168l75 365h-166z" />
    <glyph glyph-name="dollar" unicode="$" horiz-adv-x="1034" 
d="M700 1073q-23 41 -51 66q-24 24 -59 45v-465l6 -2q14 -4 48 -14t52.5 -16t45.5 -16t49.5 -21.5t42.5 -26.5q65 -46 102 -115.5t37 -145.5q0 -142 -115 -245q-111 -96 -268 -135v-123q0 -9 -21.5 -33t-50.5 -47q-58 -44 -72 -37q-2 1 -2 4v217q-161 -3 -274 82
q-41 33 -66 70q-43 -10 -43 2v147q0 17 86 49q24 9 44.5 13.5t32.5 4.5t12 -5q0 -99 58 -167.5t150 -99.5v586q-29 7 -73 21q-62 19 -109.5 58t-73.5 93q-28 58 -28 123q0 120 92 209q80 77 192 115v129q0 23 72 80q53 43 71 37q3 -1 3 -5v-217h22q119 3 205 -80
q27 6 41.5 7t15.5 -5v-73q0 -9 -25.5 -24.5t-60.5 -27.5q-23 -8 -43 -12t-32 -4t-13 4zM444 1212q-20 -12 -28 -20q-82 -76 -82 -191q0 -62 28 -120q36 -67 82 -99v430zM590 35q90 0 149.5 86t59.5 180q0 75 -36 142.5t-99 111.5q-40 28 -74 43v-563z" />
    <glyph glyph-name="percent" unicode="%" horiz-adv-x="1349" 
d="M348 -25q-23 -27 -104 -51q-64 -19 -68 -6q-1 2 2 6l826 1094q8 11 39 26.5t65 24.5q66 20 68 5q0 -2 -2 -5zM457 639q35 44 35 109v2q0 71 -48 122q-32 37 -69 46q-37 -47 -37 -109v-2q3 -76 47 -123q31 -36 72 -45zM489 995q75 0 129 -57q48 -55 48 -129
q0 -80 -52 -135q-102 -113 -270 -113q-80 0 -131 57q-49 52 -49 130q0 77 51 135q101 112 274 112zM893 356q-35 -51 -35 -110q0 -72 47 -125q34 -34 72 -45q35 44 35 110q0 72 -47 125q-34 34 -72 45zM862 0q-80 0 -129 55q-49 52 -49 129q0 78 51 135q102 113 273 113
q80 0 129 -55q49 -52 49 -131t-51 -133q-102 -113 -273 -113z" />
    <glyph glyph-name="ampersand" unicode="&#x26;" horiz-adv-x="1576" 
d="M1305 -18q-15 -5 -30 -9.5t-30.5 -7.5t-25 -2.5t-9.5 6.5q-60 155 -190 301q-65 -92 -128 -156t-146.5 -107t-172.5 -44q-199 -4 -311 103q-98 95 -98 247q0 45 12 85t28 70t48.5 60.5t57.5 50t70.5 44.5t72.5 38t79 37q-43 35 -68.5 58.5t-63.5 65t-57 83.5t-19 84
q0 70 37.5 128.5t96.5 94.5t127 56t134 20q101 0 174.5 -68.5t73.5 -168.5q0 -106 -63 -176.5t-177 -129.5l100 -81q150 -122 197 -162q52 88 80 133.5t68.5 99.5t72.5 80q37 33 117 51q52 12 49 -2q-1 -4 -8 -10q-29 -24 -71 -82t-67 -100.5t-85 -143.5q-16 -29 -66 -110
q195 -192 270 -385q7 -7 -21.5 -23.5t-57.5 -27.5zM938 354q-94 94 -283 242l-88 74q-52 -25 -87 -47.5t-70 -57t-52.5 -82.5t-17.5 -108q0 -152 94 -242q103 -98 285 -98q31 0 219 319zM500 1051q0 -62 47.5 -127t138.5 -144q105 81 105 209q0 93 -71 165.5t-157 51.5
q-63 -60 -63 -155z" />
    <glyph glyph-name="quotesingle" unicode="'" horiz-adv-x="473" 
d="M309 1090q0 -22 -73 -80q-72 -57 -72 -33v444q0 17 72 80q73 55 73 31v-442z" />
    <glyph glyph-name="parenleft" unicode="(" horiz-adv-x="569" 
d="M471 -434q-1 0 -12 -4t-23 -7.5t-25.5 -7t-23.5 -3t-12 4.5q-73 113 -127 240q-146 336 -146 703q0 254 72 499q67 231 201 445q6 10 36 25t66 26q64 19 71 7q1 -2 -1 -5q-132 -210 -199 -440q-72 -242 -72 -496q0 -361 144 -700q54 -121 127 -238q3 -5 -3 -11.5t-24 -16
t-49 -21.5z" />
    <glyph glyph-name="parenright" unicode=")" horiz-adv-x="569" 
d="M98 1468q1 0 12 4t23.5 7.5t26 7t23.5 3t12 -4.5q73 -113 127 -240q145 -334 145 -702q0 -255 -72 -500q-67 -232 -200 -444q-6 -10 -37 -25.5t-66 -26.5q-65 -19 -70 -7q-1 2 1 5q129 206 198 441q72 242 72 495q0 365 -143 701q-53 117 -127 237q-3 5 3 11.5t23.5 16
t48.5 21.5z" />
    <glyph glyph-name="asterisk" unicode="*" horiz-adv-x="1101" 
d="M168 1391q-11 7 29 30q16 8 36 17q36 14 67 20t38 0l127 -72v181q0 8 25.5 22.5t60.5 26.5q82 26 88 12v-297l248 144q38 22 34 4q-1 -6 -10 -19q-48 -56 -100 -86l-164 -94l287 -166q14 -7 -28 -29q-16 -8 -36 -16q-85 -33 -106 -22l-125 71v-178q0 -9 -26 -24t-62 -27
q-23 -8 -43 -12t-31.5 -3.5t-11.5 5.5v295l-250 -144q-35 -19 -32 -5q1 6 10 19q15 22 44 47t54 39l164 95z" />
    <glyph glyph-name="plus" unicode="+" horiz-adv-x="1099" 
d="M463 840q0 8 25.5 22.5t60.5 26.5q24 9 44.5 13.5t32 4t11.5 -5.5v-283h293q16 0 -10 -31q-11 -14 -29 -30q-27 -25 -55 -43t-39 -18h-160v-222q0 -9 -26 -24t-62 -27q-23 -8 -43 -12t-31.5 -3.5t-11.5 5.5v283h-293q-22 0 29 51l10 10q68 61 94 61h160v222z" />
    <glyph glyph-name="comma" unicode="," horiz-adv-x="555" 
d="M274 -342q-23 -25 -51 -45.5t-45 -24.5q-16 -5 -14 4q3 13 31 41q53 53 53 179q0 137 -82 219q-8 8 20.5 37.5t36.5 33.5q1 1 10 8t19 14.5t21.5 15t21 10.5t12.5 0q84 -84 84 -226q0 -69 -30 -139t-87 -127z" />
    <glyph glyph-name="hyphen" unicode="-" horiz-adv-x="1099" 
d="M170 496q-18 0 18 40l21 21q28 25 56 43t38 18h627q18 0 -13 -35q-11 -12 -26 -26q-27 -26 -54.5 -43.5t-39.5 -17.5h-627z" />
    <glyph glyph-name="period" unicode="." horiz-adv-x="571" 
d="M166 31q-3 3 3 13.5t20.5 26t33.5 31.5q28 24 53.5 38.5t30.5 9.5l99 -99q6 -6 -11 -27.5t-47 -46.5q-29 -25 -53.5 -38t-30.5 -7z" />
    <glyph glyph-name="slash" unicode="/" horiz-adv-x="917" 
d="M176 -389q-5 -15 -63.5 -40.5t-96.5 -25.5q-14 0 -14 6v3l737 1880q5 13 65.5 38t96.5 25q12 0 12 -4v-2z" />
    <glyph glyph-name="zero" unicode="0" horiz-adv-x="1091" 
d="M621 870q182 0 307 -125q123 -123 123 -296q0 -179 -127 -306q-88 -88 -205.5 -134t-245.5 -46q-182 0 -307 125t-125 299q0 176 127 303q88 88 206.5 134t246.5 46zM756 680q-119 119 -283 119q-75 0 -139 -64q-57 -57 -88 -131.5t-31 -154.5q0 -172 121 -293t282 -121
q77 0 142 65q117 117 117 287q0 172 -121 293z" />
    <glyph glyph-name="one" unicode="1" horiz-adv-x="399" 
d="M338 31q0 -9 -25.5 -24t-60.5 -27q-24 -8 -44.5 -12t-32 -4t-11.5 5v768q-49 -23 -101 -37q-44 -9 -42 5q1 6 14 14l141 100q27 20 76 35q23 9 43 13.5t31.5 4t11.5 -5.5v-835z" />
    <glyph glyph-name="two" unicode="2" horiz-adv-x="802" 
d="M260 764q-45 -68 -45 -148v-2q0 -8 -26 -22.5t-62 -26.5t-60.5 -15.5t-25.5 5.5q0 105 70 182q117 133 315 133q105 0 174 -75q66 -72 66 -181q0 -105 -70 -184l-320 -319h480q18 0 -12 -35q-11 -13 -27 -27q-27 -26 -54.5 -43.5t-39.5 -17.5h-562q-25 0 -14 14l383 383
q62 62 62 170q0 102 -66 174q-38 44 -90 62q-45 15 -76 -27z" />
    <glyph glyph-name="three" unicode="3" horiz-adv-x="876" 
d="M735 743l-377 -391q62 15 113 15q33 0 68 -7q97 -21 155 -100q58 -77 58 -186q0 -133 -78 -254q-79 -124 -216.5 -199.5t-291.5 -75.5q-69 0 -133 31q-98 48 -133 162q-1 5 9.5 13t29.5 17.5t43 18.5q35 12 62 16t30 -2q35 -108 127 -157q59 -27 110 -27q44 0 96 42
t95 110q76 116 76 243q0 105 -56 183q-54 75 -145 94q-20 8 -47 5t-37.5 -6t-37 -12t-44.5 -14q-56 -15 -59 -2q-1 3 4 8l440 457h-483q-32 0 -54 21t-22 53q0 21 72 82q59 44 71 34q2 -1 2 -4q0 -27 18 -45t46 -18h583q15 0 -7 -29q-12 -16 -31 -33q-21 -21 -56 -43z" />
    <glyph glyph-name="four" unicode="4" horiz-adv-x="1040" 
d="M707 -387q0 -9 -26 -24t-63 -27q-24 -8 -44.5 -12t-32 -4t-11.5 5v437h-542q-22 0 20 45l524 774q5 9 29.5 23t56.5 24q23 9 44 13.5t33 4t12 -5.5v-755h321q17 0 -7 -31q-13 -15 -30 -31q-27 -26 -55.5 -43.5t-40.5 -17.5h-188v-375zM530 111v493l-333 -493h333z" />
    <glyph glyph-name="five" unicode="5" horiz-adv-x="905" 
d="M791 848q3 3 17.5 16t22.5 19q52 42 69 37q4 -1 3 -5q0 -45 -49 -94q-92 -96 -162 -96h-319l-140 -393q70 18 121 18q147 0 246 -110q98 -113 98 -263q-3 -156 -100 -264q-72 -80 -172.5 -124t-218.5 -44q-83 0 -156 39q-47 25 -90 72q-3 4 5.5 12t27 17.5t41.5 17.5
q35 13 64.5 18.5t33.5 -0.5q41 -44 88 -67q66 -37 133 -37q33 0 76 49q94 104 93 254t-95 254q-98 105 -221 105q-19 0 -77 -33q-34 -20 -35 -9q0 2 1 5l172 489q3 16 45 55q70 62 95 62h383z" />
    <glyph glyph-name="six" unicode="6" horiz-adv-x="1042" 
d="M852 1257q76 35 117 31q19 -2 -3 -19q-14 -10 -38 -20q-443 -206 -613 -477q-100 -160 -100 -352q0 -125 76 -227q53 -73 133 -115.5t170 -42.5q66 0 123 57q110 110 110 270q0 77 -29.5 149.5t-84.5 125.5q-113 113 -267 113q-34 0 -57 -7q-55 -15 -57 -1q-1 3 4 8
q28 28 113 51q78 20 145 20q172 0 291 -116q116 -116 116 -281q0 -167 -120 -287q-85 -85 -198.5 -129.5t-236.5 -44.5q-97 0 -184 43t-145 121q-76 105 -76 231q0 196 102 363q188 298 709 536z" />
    <glyph glyph-name="seven" unicode="7" horiz-adv-x="929" 
d="M324 -369q-8 -15 -33.5 -40.5t-54.5 -45.5q-51 -36 -54 -21q-1 3 2 9l576 1192h-680q-34 0 -57 22t-23 56q0 10 21.5 33t52.5 47q50 43 67 37q4 -1 4 -5q0 -29 19.5 -48t48.5 -19h688q10 0 4 -14z" />
    <glyph glyph-name="eight" unicode="8" horiz-adv-x="1044" 
d="M829 362q-3 99 -41 173q-48 98 -141 157q-92 58 -196 58q-65 0 -123 -58q-111 -108 -111 -268q0 -164 113 -277q112 -112 266 -112q66 0 123 57q113 113 110 270zM449 -37q-172 0 -291 119q-56 56 -86.5 129t-30.5 151q0 163 121 287q76 76 182 123q-41 18 -72 49
q-71 68 -71 168q0 99 73 172q59 60 142.5 93.5t179.5 33.5q107 0 178 -71q70 -70 70 -166q0 -100 -74 -174q-36 -36 -84 -64q118 -25 201 -108q56 -56 86.5 -129.5t30.5 -151.5q0 -166 -121 -287q-81 -81 -193.5 -127.5t-240.5 -46.5zM668 989q0 96 -66 162t-153 66
q-2 0 -9 -11q-63 -63 -63 -155q0 -97 67 -164q25 -25 84.5 -54t75.5 -2q64 61 64 158z" />
    <glyph glyph-name="nine" unicode="9" horiz-adv-x="1042" 
d="M190 -422q-79 -37 -116 -33q-21 2 6 21q14 10 35 20q441 202 612 475q100 160 100 355q0 126 -75 227q-53 72 -133.5 114t-169.5 42q-65 0 -123 -58q-111 -108 -111 -268q0 -161 115 -276q113 -113 264 -113q30 0 57 6q63 16 60 1q-1 -3 -4 -7q-28 -28 -113 -51
q-82 -21 -145 -21q-172 0 -291 119q-117 117 -117 281q0 79 32 154t89 132q85 85 197 128.5t235 43.5q98 0 186 -42.5t146 -118.5q75 -104 75 -232q0 -198 -102 -362q-188 -301 -709 -537z" />
    <glyph glyph-name="colon" unicode=":" horiz-adv-x="573" 
d="M166 727q-3 3 3.5 14t21.5 26.5t34 31.5q29 24 53.5 38t30.5 9l99 -98q4 -6 -13.5 -27.5t-46.5 -46.5t-53.5 -38t-30.5 -7zM166 31q-5 5 12.5 26t46.5 45q29 25 53.5 39t30.5 9l99 -99q4 -6 -13.5 -27.5t-46.5 -46.5t-53.5 -38t-30.5 -7z" />
    <glyph glyph-name="semicolon" unicode=";" horiz-adv-x="571" 
d="M283 -342q-60 -60 -99 -70q-14 -5 -13 4q2 13 30 41q55 55 55 179q0 135 -84 219q-6 8 21.5 37.5t35.5 33.5q1 1 10 8t19 14.5t21.5 15t21 10.5t12.5 0q86 -86 86 -226q0 -150 -116 -266zM166 727q-4 3 2.5 14t21 26.5t33.5 31.5q29 24 53.5 38t30.5 9l99 -98
q5 -6 -12.5 -28t-47.5 -46q-29 -25 -53 -38t-29 -7z" />
    <glyph glyph-name="less" unicode="&#x3c;" horiz-adv-x="1212" 
d="M1028 909q23 8 17 -6q-4 -11 -23 -33q-57 -60 -102 -77l-527 -211l651 -260q13 -5 -25 -44q-12 -12 -26 -24q-28 -25 -54 -40.5t-34 -12.5l-737 295q-12 6 22 43q52 55 101 75z" />
    <glyph glyph-name="equal" unicode="=" horiz-adv-x="1105" 
d="M174 373q-25 0 39 61q65 62 94 62h627q26 0 -39 -62q-64 -61 -94 -61h-627zM174 616q-25 0 20 46q9 9 19 18q62 59 94 59h627q26 0 -39 -59q-67 -64 -94 -64h-627z" />
    <glyph glyph-name="greater" unicode="&#x3e;" horiz-adv-x="1212" 
d="M184 207q-23 -8 -17 6q5 12 23 33q57 61 103 78l526 211l-651 260q-13 5 28 46q10 10 23 21q28 25 54 40.5t34 12.5l737 -294q12 -6 -22 -43q-22 -23 -51.5 -46t-48.5 -30z" />
    <glyph glyph-name="question" unicode="?" horiz-adv-x="1161" 
d="M772 381q25 0 10 -15q-11 -10 -34 -22q-80 -35 -121 -35q-98 0 -167.5 51t-86.5 140q-12 63 6 122.5t59 106.5t90 83.5t107 64.5q82 40 135 107t53 151q0 122 -95 206t-220 84q-64 0 -84 -16q-86 -67 -86 -180q0 -17 -86 -51q-1 0 -10.5 -3t-22 -6t-25.5 -5.5t-21.5 -2
t-8.5 5.5q0 125 106 207q160 123 383 123q139 0 241.5 -84.5t102.5 -216.5q0 -59 -24 -110t-67 -91t-86.5 -68t-98.5 -55q-94 -47 -143 -132t-31 -177q15 -79 78.5 -130.5t146.5 -51.5zM461 -10q-4 3 2.5 13.5t21 26t33.5 31.5q29 25 53.5 39t30.5 9l98 -99
q5 -6 -11.5 -27.5t-45.5 -45.5q-29 -25 -54 -38.5t-30 -7.5z" />
    <glyph glyph-name="at" unicode="@" horiz-adv-x="1968" 
d="M1128 700l226 -446q53 -102 121.5 -151t169.5 -42q28 0 49.5 76t29 146.5t7.5 103.5q0 169 -64 321.5t-178 266.5t-261.5 178t-299.5 64q-266 0 -453 -187q-118 -118 -178.5 -268.5t-60.5 -312.5q0 -163 62 -317t181 -273q116 -114 265 -178t313 -64q82 0 172 23
q31 9 108.5 46.5t124.5 43.5q27 3 26 -6q-2 -9 -24 -21q-137 -79 -293 -121q-138 -37 -262 -37q-174 0 -330 65t-272 181q-121 121 -183.5 275.5t-62.5 318.5q0 166 63.5 322.5t184.5 277.5q145 145 337.5 224t395.5 79q174 0 334.5 -62t284.5 -186q116 -116 181 -268.5
t65 -322.5q0 -149 -43 -248q-88 -190 -353 -211q-99 -9 -169 24.5t-125 112.5q-89 -58 -201 -98q-186 -67 -281 -27q-70 33 -76 111q-6 56 25 129q112 251 266 405q-54 97 -121 141q-66 43 -161 37q-24 -3 -22 6q3 10 30 25q70 34 123 41q124 9 200 -41q72 -46 129 -156z
M1180 190l-183 359q-11 -17 -41.5 -65t-48.5 -78.5t-40 -74t-30.5 -83t-5.5 -74.5q7 -65 62 -96t119 -12q81 31 172 116z" />
    <glyph glyph-name="A" unicode="A" horiz-adv-x="1347" 
d="M469 1167q-19 0 14 38q10 12 23 24q28 25 56 43t38 18h148q6 0 6 -4l467 -1251h92q29 0 1 -19q-11 -7 -28 -16q-69 -34 -115 -37h-202q-26 0 -8 16q11 10 34 21q21 9 45 18l-200 535h-377l-187 -502q-2 -4 -10 -16h111q30 0 0 -21l-25 -14q-76 -37 -121 -37h-196
q-27 0 -7 18q11 9 31 19q63 29 107 35l424 1132h-121zM813 625l-162 434l-162 -434h324z" />
    <glyph glyph-name="B" unicode="B" horiz-adv-x="1163" 
d="M719 1288q123 0 205 -82q80 -80 80 -192q0 -118 -84 -199q-41 -43 -101 -76q102 -24 176 -98q107 -107 107 -254q0 -109 -62 -203q-69 -102 -188.5 -161.5t-265.5 -59.5h-529q-25 0 -10 15q10 10 35 22q63 29 108 35v1182h-133q-27 0 -7 16q10 9 32 20q80 35 121 35h516z
M365 1217v-469h354q52 27 81 84t29 120q0 109 -77 189q-76 76 -179 76h-208zM365 676v-641h366q72 0 137 98q60 88 60 193q0 142 -105 247q-100 103 -237 103h-221z" />
    <glyph glyph-name="C" unicode="C" horiz-adv-x="1337" 
d="M1268 1137q49 10 49 0v-50q0 -18 -86 -51q-2 0 -16.5 -4.5t-26.5 -7.5t-27.5 -4.5t-17.5 4.5q-85 91 -201 142t-240 51q-104 0 -194 -52t-148 -134t-91 -180t-33 -194q0 -124 48.5 -238.5t130.5 -198.5t195.5 -134.5t237.5 -50.5q94 0 162 32.5t137 104.5q10 12 42 27
t66 24q29 8 45 8.5t17 -6.5v-47q0 -13 -48 -35.5t-79 -27.5q-55 -37 -137 -72q-190 -80 -351 -80q-128 0 -246.5 50t-205 134.5t-138 202t-51.5 246.5q0 122 44 232t120.5 192.5t176.5 143.5t214.5 92.5t231.5 31.5q240 0 420 -151z" />
    <glyph glyph-name="D" unicode="D" horiz-adv-x="1454" 
d="M752 1288q133 0 250 -48.5t206 -137.5q87 -89 136 -203.5t49 -241.5t-49.5 -244.5t-139.5 -207.5q-115 -115 -269 -178.5t-329 -63.5h-530q-23 0 -8 15q10 10 34 22q63 29 109 35v1182h-133q-26 0 -9 15q9 10 33 21q80 35 121 35h529zM385 1217v-1182h367q161 0 286 125
q88 88 134.5 200.5t46.5 235.5q0 127 -48 240t-135 200q-87 85 -197.5 133t-232.5 48h-221z" />
    <glyph glyph-name="E" unicode="E" horiz-adv-x="1167" 
d="M223 1288h836q14 0 14 -4v-49q0 -9 -26 -24t-62 -27q-23 -8 -43 -12t-31.5 -3.5t-11.5 5.5v43h-514v-519h551q33 0 -5 -22l-22 -12q-72 -37 -121 -37h-403v-592h604q22 16 70 33q24 9 44.5 13.5t32 4t11.5 -5.5v-49q0 -13 -41 -31q-72 -37 -121 -37h-909q-23 0 -8 15
q10 10 34 22q63 29 109 35v1182h-135q-24 0 -8 15q11 10 34 21q80 35 121 35z" />
    <glyph glyph-name="F" unicode="F" horiz-adv-x="1093" 
d="M223 1288h836q14 0 14 -4v-49q0 -9 -26 -24t-62 -27q-23 -8 -43 -12t-31.5 -3.5t-11.5 5.5v43h-514v-519h551q33 0 -5 -22l-22 -12q-72 -37 -121 -37h-403v-592h84q30 0 0 -21l-25 -14q-76 -37 -120 -37h-197q-25 0 -10 15q12 10 35 22q37 16 59 23v1194h-135
q-24 0 -8 15q11 10 34 21q80 35 121 35z" />
    <glyph glyph-name="G" unicode="G" horiz-adv-x="1419" 
d="M1268 1137q49 10 49 0v-50q0 -19 -88 -51q-1 0 -10.5 -3t-20 -6t-22 -5.5t-21 -2t-12.5 4.5l-51 49q-35 27 -58 41q-148 103 -334 103q-161 0 -286 -125q-86 -86 -132 -199.5t-46 -235.5q0 -127 48 -240.5t134 -199.5q85 -86 196 -134t234 -48q89 0 159 33t136 100v360
h-357q-23 0 -8 15q12 10 35 22q72 35 121 35h369q14 0 14 -4v-371l-4 -6q-104 -109 -260 -176q-190 -80 -353 -80q-128 0 -246 48.5t-208 138.5q-89 89 -137 204.5t-48 241.5q0 127 48.5 244t138.5 207q116 115 270.5 178t329.5 63q201 0 358 -106q38 -26 58 -43z" />
    <glyph glyph-name="H" unicode="H" horiz-adv-x="1460" 
d="M223 1288h197q24 0 9 -14q-10 -10 -36 -21q-23 -13 -57 -24v-531h782v519h-84q-28 0 -4 18q11 8 31 18q80 35 121 35h200q24 0 11 -14q-10 -10 -35 -21q-24 -12 -64 -24v-1194h84q28 0 4 -18l-30 -17q-72 -37 -121 -37h-197q-26 0 -7 16q12 10 34 21q36 16 57 23v604
h-782v-592h84q29 0 1 -19q-11 -7 -28 -16q-72 -37 -121 -37h-196q-23 0 -8 15q10 10 34 22q33 15 58 23v1194h-84q-26 0 -7 16q11 9 33 20q80 35 121 35z" />
    <glyph glyph-name="I" unicode="I" horiz-adv-x="624" 
d="M334 -37h-197q-26 0 -7 16q11 10 34 21q36 16 57 23v1194h-84q-28 0 -4 18q11 8 31 18q80 35 121 35h200q24 0 11 -14q-9 -10 -35 -21q-24 -12 -64 -24v-1194h84q28 0 4 -18l-30 -17q-76 -37 -121 -37z" />
    <glyph glyph-name="J" unicode="J" horiz-adv-x="624" 
d="M137 1217q-28 0 -4 18q11 8 31 18q80 35 121 35h200q24 0 11 -14q-9 -10 -35 -21q-24 -12 -64 -24v-1198q0 -175 -127 -305q-84 -86 -201.5 -133.5t-250.5 -47.5h-6q-20 5 10 25q9 6 22 12q63 29 107 35q90 0 153 66q117 117 117 286v1248h-84z" />
    <glyph glyph-name="K" unicode="K" horiz-adv-x="1290" 
d="M223 1288h201q24 0 11 -14q-10 -10 -36 -21q-25 -13 -63 -24v-625q98 63 229 187q166 160 353 426h-80q-26 0 -7 16q11 9 33 20q80 35 121 35h197q24 0 9 -14q-11 -10 -36 -21q-57 -28 -102 -34q-167 -231 -324 -383q-75 -75 -168 -146q160 -129 290 -274t316 -381h88
q28 0 4 -18l-30 -17q-76 -37 -121 -37h-197q-26 0 -7 16q11 10 34 21q15 8 25 10q-111 139 -178.5 219.5t-165.5 183t-195 183.5l-88 -49v-512h84q29 0 1 -19q-11 -7 -28 -16q-76 -37 -121 -37h-196q-26 0 -8 16q11 10 34 21q33 15 58 23v1194h-84q-26 0 -7 16q11 9 33 20
q80 35 121 35z" />
    <glyph glyph-name="L" unicode="L" horiz-adv-x="1118" 
d="M272 1288h197q24 0 9 -14q-10 -10 -36 -21q-23 -13 -57 -24v-1194h553q20 15 72 33q23 9 43.5 13.5t32.5 4t12 -5.5v-49q0 -13 -41 -31q-76 -37 -121 -37h-860q-26 0 -8 16q11 10 34 21q63 29 107 35v1182h-84q-28 0 -4 18q11 8 31 18q80 35 120 35z" />
    <glyph glyph-name="M" unicode="M" horiz-adv-x="1732" 
d="M98 1167q-17 0 15 37l24 25q68 61 94 61h148q6 0 6 -4l508 -1079l469 997q16 33 88 86q52 36 55 19l76 -1274h96q26 0 5 -17q-10 -8 -31 -18q-76 -37 -121 -37h-197q-26 0 -7 16q12 10 34 21q37 18 70 27l-60 995l-432 -920q-10 -23 -64 -67q-29 -25 -52 -36.5t-27 -4.5
l-445 942l-53 -901h102q28 0 4 -18l-30 -17q-76 -37 -121 -37h-197q-26 0 -7 16q11 10 34 21q43 21 78 29l67 1138h-129z" />
    <glyph glyph-name="N" unicode="N" horiz-adv-x="1576" 
d="M272 -37h-196q-26 0 -8 16q11 10 34 21q47 21 74 27v1190h-100q-26 0 -7 16q11 9 33 20q76 35 121 35h197q22 0 9 -14q-10 -10 -36 -21q-8 -5 -16 -8l880 -1020v992h-100q-28 0 -4 18q11 8 31 18q76 35 121 35h196q21 0 10 -12q-9 -11 -36 -23q-36 -19 -74 -28v-1170
q0 -9 -21.5 -33t-50.5 -47q-18 -14 -34.5 -23.5t-25.5 -11.5t-12 1l-938 1087v-993h101q26 0 4 -17q-10 -8 -31 -18q-76 -37 -121 -37z" />
    <glyph glyph-name="O" unicode="O" horiz-adv-x="1550" 
d="M850 1288q132 0 250 -48.5t205 -137.5q88 -88 136 -202t48 -243q0 -130 -49.5 -246t-139.5 -206q-115 -115 -269 -178.5t-329 -63.5q-133 0 -251 49t-205 138t-136 203.5t-49 242.5t50 245t139 206q115 115 269 178t331 63zM1133 1036q-85 85 -197 133t-234 48
q-164 0 -286 -125q-85 -85 -132.5 -197.5t-47.5 -237.5q0 -127 48 -240.5t134 -199.5q87 -87 197.5 -134.5t234.5 -47.5q78 0 152.5 33.5t134.5 91.5q85 85 131.5 197t46.5 239t-48 240.5t-134 199.5z" />
    <glyph glyph-name="P" unicode="P" horiz-adv-x="1083" 
d="M653 1288q156 0 265 -106q104 -104 104 -254q0 -151 -109 -260q-77 -77 -182 -120.5t-225 -43.5q-51 0 -123 14v-483h86q26 0 4 -17q-10 -8 -31 -18q-76 -37 -120 -37h-197q-26 0 -7 16q11 10 34 21q30 15 57 23v1194h-133q-26 0 -7 16q11 9 33 20q76 35 121 35h430z
M383 1217v-576q139 -66 270 -66q47 0 95 48q100 95 100 243q0 150 -103 250q-104 101 -239 101h-123z" />
    <glyph glyph-name="Q" unicode="Q" horiz-adv-x="1548" 
d="M1305 1102q89 -87 136.5 -203.5t47.5 -241.5q0 -127 -49 -244t-140 -208q-131 -131 -311 -195q44 -17 91.5 -49.5t80 -61t82.5 -75.5q48 -45 67 -62.5t63.5 -52.5t73 -50t69.5 -28.5t81 -13.5q28 0 7 -17q-10 -8 -31 -18q-76 -37 -121 -37q-46 0 -91.5 13.5t-77.5 29.5
t-76.5 50.5t-67 54.5t-68.5 63q-57 53 -86 78.5t-79 61.5t-96 51.5t-95 15.5h-13q-132 0 -249 49.5t-205 137.5q-90 90 -138.5 205.5t-48.5 240.5q0 127 49.5 244t139.5 207q114 114 268 177.5t330 63.5q130 0 248.5 -48t208.5 -138zM1133 1036q-85 85 -197 133t-234 48
q-161 0 -286 -125q-87 -86 -133.5 -199t-46.5 -236q0 -127 48 -240.5t134 -199.5t197 -134t233 -48q164 0 289 125q86 87 132 200.5t46 235.5q0 127 -48 240.5t-134 199.5z" />
    <glyph glyph-name="R" unicode="R" horiz-adv-x="1288" 
d="M651 1288q158 0 267 -106q104 -104 104 -254q0 -154 -109 -260q-67 -67 -157 -111q51 -20 107 -66t93 -87t95 -111q114 -132 160 -174q92 -84 165 -84q29 0 3 -19l-27 -16q-76 -37 -121 -37q-32 0 -62.5 9t-63.5 31.5t-55.5 40t-59.5 57.5t-53.5 58.5t-57.5 67.5
q-56 67 -89.5 103.5t-84 83.5t-96.5 68.5t-91 21.5h-12q-60 0 -123 14v-483h84q29 0 5 -18q-11 -8 -30 -17q-76 -37 -120 -37h-197q-27 0 -6 18q11 9 31 19q37 16 59 23v1194h-133q-27 0 -6 18l30 18q80 35 121 35h430zM383 1217v-576q135 -66 268 -66q49 0 97 48
q100 95 100 243q0 145 -103 248t-239 103h-123z" />
    <glyph glyph-name="S" unicode="S" horiz-adv-x="1034" 
d="M700 1073q-38 64 -99.5 104t-131.5 40q-36 0 -68 -36.5t-49.5 -86t-17.5 -93.5q0 -62 28 -120q26 -52 69.5 -87t94.5 -53t102.5 -32t108.5 -35t97 -51q65 -48 102 -116.5t37 -144.5q0 -114 -78.5 -207t-200.5 -142.5t-256 -49.5q-101 0 -191 38t-143 114q-12 -4 -28 -4
q-15 0 -15 6v147q0 18 40 35t80 25l40 8q15 0 15 -6q0 -92 54 -160t132.5 -99.5t167.5 -31.5q90 0 149.5 86t59.5 180q0 75 -36 142.5t-99 111.5q-30 21 -71 39.5t-69 27.5t-82 24t-71 20q-94 28 -152.5 103t-58.5 171q0 98 65.5 179t168.5 125t218 44q122 0 205 -80
q27 6 45 6q12 0 12 -4v-73q0 -17 -62.5 -42.5t-98.5 -25.5q-13 0 -13 4z" />
    <glyph glyph-name="T" unicode="T" horiz-adv-x="1296" 
d="M721 1288h541q14 0 14 -4v-49q0 -9 -25.5 -24t-60.5 -27q-24 -8 -44.5 -12t-32 -3.5t-11.5 5.5v43h-367v-1182h84q29 0 3 -19q-10 -7 -27 -16q-76 -37 -121 -37h-197q-27 0 -6 18q11 9 31 19q37 16 59 23v1194h-383q-33 -21 -69 -33q-24 -8 -44.5 -12t-32.5 -3.5t-12 5.5
v49q0 8 25.5 22.5t60.5 26.5q41 16 74 16h541z" />
    <glyph glyph-name="U" unicode="U" horiz-adv-x="1533" 
d="M1044 129q69 69 108.5 161t39.5 195v732h-84q-27 0 -7 16q11 10 32 20q80 35 120 35h197q25 0 8 -15q-10 -9 -33 -20q-25 -14 -59 -24v-1194h133q29 0 3 -19l-27 -16q-76 -37 -121 -37h-148q-14 0 -14 6v187q-102 -94 -232 -143.5t-270 -49.5q-106 0 -205 40.5
t-174 113.5q-72 72 -111.5 167t-39.5 201v732h-84q-27 0 -6 18l30 18q80 35 121 35h197q25 0 8 -15q-11 -10 -33 -20q-25 -14 -59 -24v-682q0 -105 39.5 -199t109.5 -164t161.5 -109.5t191.5 -39.5q114 0 208 94z" />
    <glyph glyph-name="V" unicode="V" horiz-adv-x="1396" 
d="M313 1235l398 -1012l389 994h-80q-14 0 -14 6q0 16 63.5 40.5t95.5 24.5h197q14 0 14 -6q0 -10 -43 -30.5t-78 -28.5l-469 -1194q-6 -17 -67 -41.5t-94 -24.5q-13 0 -13 4l-489 1250h-86q-14 0 -14 6q0 16 63.5 40.5t95.5 24.5h197q14 0 14 -6q0 -13 -80 -47z" />
    <glyph glyph-name="W" unicode="W" horiz-adv-x="2134" 
d="M313 1235l373 -999l295 788l-72 193h-12q-14 0 -14 6q0 16 63.5 40.5t95.5 24.5h197q14 0 14 -6q0 -12 -34 -27l-64 -170l318 -849l364 981h-82q-14 0 -14 6q0 16 64.5 40.5t97.5 24.5h196q15 0 15 -6q0 -8 -42 -29t-79 -30l-445 -1194q-6 -17 -68 -41.5t-94 -24.5
q-12 0 -12 4l-317 852l-295 -790q-6 -17 -68 -41.5t-94 -24.5q-12 0 -12 4l-465 1250h-86q-14 0 -14 6q0 16 63.5 40.5t95.5 24.5h197q14 0 14 -6q0 -13 -39 -29z" />
    <glyph glyph-name="X" unicode="X" horiz-adv-x="1519" 
d="M379 1243l407 -481l383 455h-77q-24 0 -8 15q11 10 34 21q80 35 121 35h197q24 0 9 -14q-11 -10 -36 -21q-55 -28 -111 -36l-448 -531l547 -651h88q29 0 1 -19q-11 -7 -28 -16q-72 -37 -121 -37h-196q-34 0 16 30q21 12 33 17l-455 539l-434 -514h78q29 0 1 -19
q-11 -7 -28 -16q-72 -37 -121 -37h-196q-23 0 -8 15q10 10 34 22q65 32 113 35l498 590l-500 592h-88q-25 0 -5 16q10 9 32 20q80 35 120 35h197q37 0 -18 -30q-19 -11 -31 -15z" />
    <glyph glyph-name="Y" unicode="Y" horiz-adv-x="1339" 
d="M283 1239l415 -655l383 633h-80q-25 0 -5 16q10 9 32 20q80 35 121 35h197q24 0 9 -14q-11 -10 -36 -21q-45 -25 -94 -32l-455 -750v-436h84q29 0 1 -19l-28 -16q-72 -37 -120 -37h-197q-23 0 -8 15q11 10 35 22q37 16 59 23v387l-514 807h-88q-24 0 -8 15q11 10 34 21
q80 35 121 35h197q24 0 9 -14q-10 -10 -36 -21q-8 -6 -28 -14z" />
    <glyph glyph-name="Z" unicode="Z" horiz-adv-x="1269" 
d="M68 45l903 1122h-787q-13 -13 -49.5 -35.5t-36.5 -9.5v47q-3 17 43 60q28 25 56.5 43t40.5 18h958q22 0 -38 -59q-17 -18 -25 -23l-902 -1122h932q58 39 68 43q18 8 18 0v-49q0 -10 -21 -34t-50 -46q-47 -37 -66 -37h-1106q-16 0 12 31.5t50 50.5z" />
    <glyph glyph-name="bracketleft" unicode="[" horiz-adv-x="587" 
d="M553 1497q22 0 9 -14q-11 -10 -36 -21q-76 -37 -120 -37h-130v-1808h277q26 0 4 -17q-11 -8 -31 -18q-76 -37 -120 -37h-289q-15 0 -15 6v1881q0 11 39 30q80 35 121 35h291z" />
    <glyph glyph-name="backslash" unicode="\" horiz-adv-x="831" 
d="M870 -387q2 -4 -8 -12t-29 -17.5t-42 -17.5q-36 -13 -64 -18t-31 1l-735 1881q-3 8 20.5 23t59.5 28q36 12 63 15.5t29 -3.5z" />
    <glyph glyph-name="bracketright" unicode="]" horiz-adv-x="587" 
d="M35 -455q-21 0 -10 12q9 11 36 23q76 37 121 37h129v1808h-276q-26 0 -5 17q10 8 31 18q76 37 121 37h289q14 0 14 -6v-1880q0 -12 -39 -31q-80 -35 -120 -35h-291z" />
    <glyph glyph-name="asciicircum" unicode="^" horiz-adv-x="645" 
d="M236 1094q-8 -11 -39 -26.5t-66 -25.5q-62 -18 -67 -5l2 7l172 222q22 26 106 51q59 17 66 6l172 -221q3 -4 -5.5 -12.5t-27.5 -18.5t-41 -18q-36 -13 -65 -18t-33 1l-111 140z" />
    <glyph glyph-name="underscore" unicode="_" horiz-adv-x="1724" 
d="M178 -221q-14 0 -14 6q0 16 64 42t96 26h1222q15 0 15 -7q0 -17 -64.5 -42t-95.5 -25h-1223z" />
    <glyph glyph-name="grave" unicode="`" horiz-adv-x="544" 
d="M481 1090q4 -4 -3.5 -12t-25.5 -17.5t-42 -18.5q-35 -13 -65 -18.5t-36 0.5l-246 246q-3 4 5.5 11.5t26.5 17t42 18.5q35 13 65 18.5t34 -0.5z" />
    <glyph glyph-name="a" unicode="a" horiz-adv-x="937" 
d="M1008 35q1 0 7 0.5t13.5 1t15 0.5t12.5 -1.5t5 -4.5q0 -9 -31 -25q-77 -43 -166 -43q-166 0 -252 139q-218 -139 -401 -139q-72 0 -115 36.5t-43 98.5q0 87 82.5 240.5t183.5 259.5q1 1 9 8t16 15q-94 180 -258 180q-45 0 -45 4q0 27 79 47t120 20q104 0 170.5 -53.5
t115.5 -148.5l224 -441q99 -194 258 -194zM580 158q-5 5 -5 8l-182 358q-8 -10 -26 -41q-140 -212 -140 -323q0 -56 36 -90.5t102 -34.5q79 0 215 123z" />
    <glyph glyph-name="b" unicode="b" horiz-adv-x="931" 
d="M436 848q77 24 142 24q76 0 137.5 -36t99.5 -99q47 -81 51 -213l2 -69q0 -284 -202 -408q-141 -84 -275 -84q-76 0 -138 35.5t-99 99.5q-52 90 -52 262v1485q0 18 123 49q67 15 105 15q18 0 18 -4q-72 -495 -72 -815v-318q68 46 160 76zM436 801h-14q-146 -99 -146 -379
q0 -170 52 -258q34 -60 87 -94.5t115 -34.5q50 0 95 77t57 154q10 82 10 148v49q-8 140 -49 211q-36 59 -90.5 93t-116.5 34z" />
    <glyph glyph-name="c" unicode="c" horiz-adv-x="800" 
d="M672 733q-55 -22 -86 -22q-13 0 -15 4q-76 86 -178 86h-12q-145 -98 -145 -389q0 -162 51 -248q34 -59 88.5 -94t116.5 -35q95 0 184 69q24 18 72.5 37.5t76.5 18.5q17 0 17 -6q0 -18 -64 -54t-121 -61q-171 -76 -307 -76q-108 0 -184.5 70.5t-93.5 181.5q-11 67 -11 147
q0 189 74 304.5t260 181.5q65 24 142 24q125 0 206 -90v-2q0 -4 -7 -11.5t-24 -17.5t-40 -18z" />
    <glyph glyph-name="d" unicode="d" horiz-adv-x="970" 
d="M907 35q14 0 39 4q15 0 15 -6q0 -23 -78.5 -46.5t-120.5 -23.5q-96 0 -107 107q-62 -46 -147 -76.5t-154 -30.5q-76 0 -140 36.5t-101 100.5q-52 88 -52 260q0 58 11 152q20 149 157.5 254.5t305.5 105.5q64 0 116 -24v997q0 18 123 49q68 15 105 15q18 0 18 -4
q-72 -491 -72 -815v-908q0 -147 82 -147zM651 389q0 64 -1.5 100.5t-13 91t-34.5 93.5q-36 59 -90.5 93t-116.5 34h-14q-145 -93 -145 -379q0 -167 64.5 -276t188.5 -109l19 2q71 46 107 138t36 212z" />
    <glyph glyph-name="e" unicode="e" 
d="M870 651q15 0 15 -6q1 -5 -12 -13.5t-33 -18t-43 -17.5l-559 -205q3 -18 6.5 -70t13 -88t31.5 -71q36 -59 90.5 -93t118.5 -34q56 0 94.5 15.5t85.5 53.5q22 16 71.5 35t77.5 19q15 0 15 -6t-8 -11q-96 -77 -224.5 -127.5t-259.5 -50.5q-74 0 -136 36t-99 99
q-54 91 -54 260q0 153 47.5 261t161.5 174q135 79 267 79q119 0 198 -79q12 -13 34 -52.5t46 -64.5t55 -25zM676 592q-17 9 -30 21.5t-20 22.5t-18.5 28.5t-17.5 27.5q-34 51 -87 80t-110 29h-12q-143 -96 -143 -369z" />
    <glyph glyph-name="f" unicode="f" horiz-adv-x="614" 
d="M922 1270v-25q0 -13 -65 -40t-97 -27q-12 0 -12 6v24q-9 91 -76.5 154t-153.5 63h-18q-55 -34 -87 -95t-32 -132v-352h330q14 0 14 -6q0 -14 -65.5 -40t-94.5 -26h-184v-1136q0 -15 -62.5 -41.5t-97.5 -26.5q-14 0 -14 6v1198h-182q-15 0 -15 6q0 17 64.5 41.5t95.5 24.5
h37v291q0 99 68.5 183.5t173 131.5t213.5 47q104 0 177.5 -65t82.5 -164z" />
    <glyph glyph-name="g" unicode="g" horiz-adv-x="1003" 
d="M1085 872q21 0 21 -6q0 -14 -59 -39t-95 -26q-52 -35 -83 -95t-31 -124v-33q0 -49 -19 -127q-10 -36 -43 -98t-43 -95q-18 -61 -18 -123q0 -184 153 -321q53 -46 83 -111t30 -135q0 -93 -50.5 -172.5t-130 -130.5t-174.5 -79.5t-188 -28.5q-100 0 -190 42t-148.5 124
t-58.5 184q0 114 77 208.5t197.5 146.5t253.5 54q-30 77 -30 158q0 53 12 102q-99 -36 -203 -36q-94 0 -162 48.5t-98.5 120.5t-30.5 156q0 57 17 116t55 117t92.5 102.5t137.5 72.5t182 28q162 0 239 -122q50 43 136 78t165 44h4zM631 641q-33 73 -92 116.5t-140 43.5h-20
q-36 -3 -70 -49t-55 -114.5t-21 -135.5q0 -81 28 -152t88.5 -119.5t142.5 -48.5q39 0 72.5 32.5t51 70t29.5 80.5q17 63 17 118q0 82 -31 158zM584 -801q63 0 115.5 43.5t80 107t27.5 128.5q0 139 -109.5 238.5t-259.5 99.5q-64 0 -116.5 -43.5t-79.5 -106.5t-27 -127
q0 -140 108 -238.5t261 -101.5z" />
    <glyph glyph-name="h" unicode="h" horiz-adv-x="958" 
d="M569 -106q-71 -29 -104 -29q-14 0 -14 6q0 5 14.5 16t38.5 21q53 22 94.5 106t61.5 188.5t20 207.5q0 79 -10 151q-15 102 -85 171t-163 69h-6q-7 1 -12.5 -3.5t-32.5 -31.5q-80 -80 -95 -195v-540q0 -12 -60.5 -40t-98.5 -28q-15 0 -15 6v1876q0 18 123 49q67 15 105 15
q18 0 18 -4q-67 -457 -72 -766v-357q134 90 289 90q103 0 169 -53.5t93 -139t27 -202.5q0 -461 -285 -583z" />
    <glyph glyph-name="i" unicode="i" horiz-adv-x="464" 
d="M145 559q0 93 -32.5 167.5t-75.5 74.5q-27 -2 -27 4q0 19 65 43t107 24q62 0 99.5 -71t37.5 -180v-439q0 -147 80 -147q7 0 21 2t18 2q17 0 17 -6q0 -23 -79.5 -46.5t-119.5 -23.5q-36 0 -60 14.5t-34 41t-13.5 49.5t-3.5 53v438zM113 1219l-2 2q0 20 59 68t80 48h4
l98 -98l2 -4q0 -20 -58 -68.5t-79 -48.5q-6 0 -6 2z" />
    <glyph glyph-name="j" unicode="j" horiz-adv-x="405" 
d="M-115 -430q-20 0 -20 6q0 13 58.5 38t94.5 28q53 34 85 95t32 132v690q0 93 -32.5 167.5t-75.5 74.5q-27 -2 -27 4q0 19 66.5 43t105.5 24q62 0 99.5 -71t37.5 -180v-691q0 -94 -59 -173t-155 -127t-210 -60zM102 1219l-2 2q0 20 59.5 68t80.5 48h4l98 -98l2 -4
q0 -20 -58 -68.5t-79 -48.5q-6 0 -6 2z" />
    <glyph glyph-name="k" unicode="k" horiz-adv-x="905" 
d="M276 31q0 -15 -62 -41.5t-97 -26.5q-15 0 -15 6v1876q0 18 123 49q67 15 105 15q18 0 18 -4q-72 -495 -72 -815v-605l173 88q57 29 80.5 55t23.5 66q0 37 -33 115v2q0 13 66 39.5t96 26.5q21 0 33 -50.5t12 -72.5q0 -52 -42 -92.5t-136 -86.5l-180 -90q29 0 55 -5.5
t49 -18.5t40.5 -24.5t36 -35t29.5 -37.5t28.5 -45t24 -43.5t23.5 -46.5q99 -194 258 -194q21 0 31 2q23 0 23 -6q0 -25 -81 -46.5t-116 -21.5q-100 0 -168.5 49.5t-120.5 153.5q-5 9 -20.5 41.5t-27 56t-31.5 56t-38 53.5t-41.5 37.5t-46.5 17.5v-397z" />
    <glyph glyph-name="l" unicode="l" horiz-adv-x="493" 
d="M399 39l19 2q14 0 14 -6q0 -23 -77 -47.5t-124 -24.5q-50 0 -79 34.5t-29 125.5v1722q0 18 123 49q68 15 104 15q19 0 19 -4q-69 -453 -72 -815v-906q0 -147 82 -147q14 0 20 2z" />
    <glyph glyph-name="m" unicode="m" horiz-adv-x="1548" 
d="M862 573v-542q0 -14 -62 -41t-100 -27q-14 0 -14 6v590q0 98 -68 170t-165 72h-15q-53 -34 -84.5 -95.5t-31.5 -132.5v-542q0 -14 -62 -41t-100 -27q-15 0 -15 6v590q0 95 -32.5 168.5t-73.5 73.5q-1 0 -4.5 -0.5t-7.5 -1t-8 -0.5t-6.5 1.5t-2.5 4.5q0 20 67.5 43.5
t106.5 23.5q74 0 111 -100q67 47 149.5 73.5t155.5 26.5q139 0 219 -110q119 95 291 110h31q106 0 178.5 -65t81.5 -164l2 -459q0 -147 82 -147q53 5 53 -2q0 -23 -78 -47.5t-125 -24.5q-51 0 -80 34t-28 126v459q-9 93 -76.5 156t-155.5 63h-16q-19 -1 -46.5 -33.5t-49 -87
t-21.5 -107.5z" />
    <glyph glyph-name="n" unicode="n" horiz-adv-x="1005" 
d="M145 -31v590q0 92 -33.5 167t-74.5 75q-1 0 -4.5 -0.5l-7 -1t-7 -0.5t-6 1.5t-2.5 4.5q0 20 68 43.5t104 23.5t66 -26t45 -72q116 83 276 98h31q104 0 177.5 -65t82.5 -164v-459q0 -147 80 -147q55 4 55 -2q0 -24 -77.5 -48t-122.5 -24q-52 0 -80.5 35t-28.5 125v436
q0 98 -68 170t-165 72h-17q-19 -2 -46.5 -37t-49 -89t-21.5 -102v-542q0 -15 -62 -41.5t-97 -26.5q-15 0 -15 6z" />
    <glyph glyph-name="o" unicode="o" 
d="M395 848q77 24 142 24q75 0 137.5 -36t99.5 -99q51 -84 51 -252q0 -93 -10 -159q-15 -104 -87.5 -188.5t-173.5 -129.5t-206 -45q-74 0 -136 36t-99 99q-52 86 -52 262q0 82 11 152q17 119 105.5 207.5t217.5 128.5zM393 801h-14q-143 -97 -143 -379q0 -82 9.5 -143.5
t39.5 -114.5q34 -60 87 -94.5t115 -34.5l19 2q145 90 145 389q0 160 -51 248q-36 59 -90.5 93t-116.5 34z" />
    <glyph glyph-name="p" unicode="p" horiz-adv-x="972" 
d="M322 -805q0 -14 -61.5 -40.5t-98.5 -26.5q-15 0 -15 6v1425q0 92 -33.5 167t-74.5 75q-1 0 -4.5 -0.5t-7.5 -1t-8 -0.5t-6.5 1.5t-2.5 4.5q0 21 69.5 44t104.5 23q82 0 117 -116q170 114 322 114q74 0 137 -36.5t100 -98.5q51 -88 51 -264q0 -65 -10 -147
q-22 -152 -158.5 -256.5t-308.5 -104.5q-59 0 -112 23v-791zM332 274q15 -103 83.5 -172t157.5 -69l19 2q143 89 143 381q0 78 -8 141q-15 102 -86.5 172t-161.5 70h-14q-143 -97 -143 -375q0 -89 10 -150z" />
    <glyph glyph-name="q" unicode="q" horiz-adv-x="972" 
d="M928 -799q8 2 22 2q13 0 13 -4q0 -25 -78.5 -48t-122.5 -23q-111 0 -111 157v781q-57 -42 -144.5 -72.5t-162.5 -30.5q-146 0 -229 135q-52 84 -52 264q-2 151 46 258t161 173q58 33 131 56t131 23q85 0 150 -38q29 15 70 27.5t61 12.5q14 0 14 -6v-1521q0 -148 84 -148
q11 0 17 2zM395 801h-14q-143 -97 -143 -379q0 -87 10 -146q15 -103 83.5 -172t157.5 -69l19 2q145 93 145 385q0 62 -10 137q-15 102 -86.5 172t-161.5 70z" />
    <glyph glyph-name="r" unicode="r" horiz-adv-x="798" 
d="M322 31q0 -14 -61.5 -41t-98.5 -27q-17 0 -17 6v590q0 85 -29.5 163.5t-76.5 78.5q-3 0 -7 -1t-5 -1q-17 0 -17 6q0 20 67.5 43.5t106.5 23.5q42 0 74 -35t47 -98q63 48 163 89.5t183 41.5q13 0 15 -4q9 -49 67 -82.5t133 -33.5h17q18 0 18 -7q0 -20 -73.5 -43.5
t-102.5 -23.5q-89 0 -152.5 33.5t-78.5 87.5l-7 -2q-47 -19 -81.5 -60.5t-51.5 -96t-24.5 -107t-7.5 -107.5v-393z" />
    <glyph glyph-name="s" unicode="s" horiz-adv-x="839" 
d="M778 621q0 -14 -62 -41t-100 -27q-14 0 -14 6v23q-10 101 -81.5 160t-170.5 59q-43 0 -65.5 -45.5t-22.5 -108.5q0 -44 28.5 -77t74 -52.5t100.5 -36t110 -33.5t100.5 -37.5t74 -54.5t28.5 -80v-2q0 -129 -132.5 -220t-321.5 -91q-106 0 -179 64t-82 163l-2 25
q0 12 65 39t99 27q13 0 13 -5v-24q9 -90 75 -153.5t156 -63.5q50 0 91.5 49.5t41.5 130.5q0 51 -38 87.5t-95.5 55.5t-124.5 39.5t-124.5 40t-95.5 57.5t-38 91q0 70 34.5 124t94 86t126 50.5t144.5 25.5h31q112 0 187 -72t75 -179z" />
    <glyph glyph-name="t" unicode="t" horiz-adv-x="843" 
d="M391 846q54 26 94 26q15 0 15 -6v-20h391q14 0 14 -6q0 -13 -66 -39.5t-96 -26.5h-245q-2 -46 -15.5 -197t-13.5 -225t9.5 -128t33 -98.5t67.5 -67.5t109 -23q25 0 37 2q23 0 23 -6q0 -9 -31 -25q-77 -43 -170 -43q-75 0 -126 23.5t-78.5 69t-38.5 101.5t-11 132
q0 79 16 246t17 239h-394q-14 0 -14 6q0 16 64.5 41t97.5 25h311z" />
    <glyph glyph-name="u" unicode="u" horiz-adv-x="1007" 
d="M862 276v-16q0 -79 33.5 -152t73.5 -73h12q14 0 14 -6q0 -18 -67 -42t-105 -24q-37 0 -66 28t-44 70q-65 -46 -146 -72t-159 -26q-113 0 -188 71.5t-75 180.5v440q0 146 -79 146q-6 0 -21 -2t-18 -2q-17 0 -17 6q0 22 79 45.5t122 23.5q44 0 68 -18l2 -2q41 -33 41 -137
v-439q0 -96 66.5 -168.5t164.5 -72.5h16q30 2 73.5 75t43.5 150v395q0 146 -80 146q-6 0 -21 -2t-18 -2q-16 0 -16 6q0 22 79 45.5t122 23.5t67 -18l2 -2q41 -33 41 -137v-439z" />
    <glyph glyph-name="v" unicode="v" horiz-adv-x="985" 
d="M862 715v-391q0 -136 -120.5 -241t-303.5 -120h-30q-113 0 -188 72.5t-75 179.5v440q0 146 -77 146q-8 0 -22 -2t-19 -2q-17 0 -17 6q0 22 79 45.5t122 23.5q30 0 51.5 -11t32.5 -26t17.5 -38t8 -41t1.5 -41v-461q9 -93 76 -156t155 -63h16q31 2 74 76.5t43 152.5v391
q0 146 -80 146q-6 0 -21 -2t-18 -2q-16 0 -16 6q0 22 79 45.5t122 23.5q30 0 51.5 -11t32.5 -26t17 -38.5t7.5 -40.5t1.5 -41z" />
    <glyph glyph-name="w" unicode="w" horiz-adv-x="1525" 
d="M862 713v-459q9 -93 76.5 -156t155.5 -63h16q31 2 74 77.5t43 149.5v391q0 146 -80 146q-7 0 -21 -2t-18 -2q-16 0 -16 6q0 23 76.5 47t125.5 24q51 0 80 -34t29 -125v-389q0 -136 -121 -241t-303 -120h-31q-138 0 -219 111q-121 -96 -291 -111h-30q-112 0 -187.5 72.5
t-75.5 179.5v438q0 146 -79 146q-6 0 -21 -2t-18 -2q-17 0 -17 6q0 23 77 47t126 24q51 0 80 -34t29 -125v-459q9 -93 76 -156t155 -63h16q30 2 73.5 75t43.5 150v393q0 146 -80 146q-6 0 -21 -2t-18 -2q-16 0 -16 6q0 23 77 47t126 24q51 0 79.5 -34t28.5 -125z" />
    <glyph glyph-name="x" unicode="x" horiz-adv-x="980" 
d="M979 37q20 0 20 -6q0 -11 -28 -25q-77 -43 -166 -43q-100 -1 -167 48.5t-122 154.5l-41 78l-10 -19q-46 -93 -121 -154t-151 -84.5t-158 -23.5q-53 0 -53 6q0 16 64.5 42t94.5 26q17 0 27 -6l10 -6q0 2 2 2q62 41 113 143l110 219l-110 217q-50 98 -114 145.5t-152 47.5
h-35q-10 0 -10 4q0 25 77.5 47t112.5 22q102 -2 171 -48t124 -154l39 -78l10 18q46 92 120.5 153t151 85t158.5 24q55 0 55 -8q0 -16 -64 -40.5t-97 -24.5q-13 0 -21 2t-11.5 4t-4.5 2h-2q-63 -42 -113 -141l-110 -217l112 -220q99 -194 258 -194q21 0 31 2z" />
    <glyph glyph-name="y" unicode="y" horiz-adv-x="997" 
d="M412 -31l-125 441q-113 393 -289 393q-9 0 -25 -2t-20 -2q-14 0 -14 6q0 22 77.5 44.5t118.5 22.5q117 1 191 -94.5t135 -306.5l47 -162l29 103q69 250 178 357.5t262 107.5q80 0 80 -13q0 -14 -64.5 -39.5t-93.5 -25.5h-14q-40 0 -88 -98.5t-86 -231.5l-250 -881
q-72 -253 -179.5 -358.5t-258.5 -103.5q-84 0 -84 10q0 17 66.5 42t96.5 25h9q42 0 89.5 96.5t86.5 231.5z" />
    <glyph glyph-name="z" unicode="z" horiz-adv-x="870" 
d="M31 901q0 9 26 24t62 27q23 8 43 12t31.5 4t11.5 -5q0 -87 47 -150q56 -74 154 -96q90 -22 167 -4q56 13 121 90q30 34 115 59q2 1 9 3t11 3t10.5 2.5t10.5 1.5t8.5 -0.5t7.5 -3.5t4 -8l-591 -715q78 23 98 27q135 34 252 6q105 -25 164 -102q47 -62 47 -156
q1 -5 -10.5 -13.5t-32 -18t-43.5 -17.5q-38 -12 -62.5 -15.5t-25.5 5.5q0 89 -48 149q-53 74 -153 96q-93 23 -168 5q-55 -13 -119 -88q-28 -33 -110 -56q-61 -18 -66 -5q-2 3 2 7l590 711q-65 -21 -98 -29q-137 -34 -254 -6q-104 24 -164 103q-47 66 -47 153z" />
    <glyph glyph-name="braceleft" unicode="{" horiz-adv-x="686" 
d="M651 -383q15 0 15 -6t-25.5 -21.5t-66.5 -30t-74 -14.5q-89 0 -161.5 86.5t-72.5 200.5q0 46 9.5 144t9.5 151q0 210 -117 305q-9 6 -36 20.5t-49 26.5t-22 13q0 11 62 38q162 69 162 314q0 47 -9.5 150t-9.5 157q0 100 58 181t145.5 123t181.5 42q15 0 15 -6
q0 -7 -30 -23t-67 -28q-60 -21 -94.5 -86.5t-34.5 -141.5q0 -53 10.5 -154.5t10.5 -148.5q0 -125 -44 -212.5t-163 -149.5q207 -78 207 -350q0 -47 -10.5 -150t-10.5 -156q0 -64 28.5 -127.5t78.5 -105t104 -41.5z" />
    <glyph glyph-name="bar" unicode="|" horiz-adv-x="585" 
d="M381 -387q0 -14 -62 -41t-100 -27q-14 0 -14 6v1881q0 12 61 39.5t101 27.5q14 0 14 -6v-1880z" />
    <glyph glyph-name="braceright" unicode="}" horiz-adv-x="686" 
d="M35 1423q-15 0 -15 7q0 6 25.5 21t66.5 29.5t74 14.5q89 0 161.5 -86.5t72.5 -200.5q0 -46 -9.5 -144t-9.5 -151q0 -210 117 -305q9 -6 36 -20.5t49 -26t22 -12.5q0 -12 -62 -39q-162 -69 -162 -313q0 -47 9.5 -150.5t9.5 -157.5q0 -100 -58 -181t-145.5 -123t-181.5 -42
q-15 0 -15 6q0 8 30 24t67 28q60 21 94.5 86t34.5 141q0 53 -10.5 154.5t-10.5 148.5q0 125 44 213t163 150q-207 78 -207 350q0 47 10.5 149.5t10.5 155.5q0 64 -28.5 127.5t-78.5 105t-104 41.5z" />
    <glyph glyph-name="asciitilde" unicode="~" horiz-adv-x="1034" 
d="M303 532q-82 -36 -123 -36q-31 0 0 21q9 6 23 13q95 48 163 72t113 23t67.5 -8.5t55.5 -26.5q28 -14 39 -18.5t38 -4.5t54 13q70 36 121 36q17 1 15 -6q-2 -10 -38 -28q-77 -38 -138 -60t-97.5 -29.5t-71 -3t-50 11t-42.5 21.5q-23 13 -37 19t-39.5 5.5t-52.5 -14.5z" />
    <glyph glyph-name="uni007F" horiz-adv-x="888" 
d="M817 326q-15 -105 -87.5 -189.5t-173.5 -129t-206 -44.5q-76 0 -138 36t-97 99q-54 90 -54 262q0 315 209 433q137 79 269 79q36 0 67 -8q-49 176 -121 324l-333 -121q-4 -2 -11 -2q-6 0 -6 4q0 19 51.5 63t79.5 54l185 67q-113 212 -289 385l-2 2q0 13 63.5 39.5
t95.5 26.5q13 0 15 -2q175 -169 291 -387l333 121q4 2 11 2q4 0 4 -4q0 -18 -49.5 -63t-77.5 -54l-187 -68q175 -361 175 -710q0 -93 -17 -215zM395 801h-14q-36 -24 -62.5 -58.5t-42 -71t-24.5 -82t-11.5 -83.5t-2.5 -84q0 -69 10 -129.5t34.5 -122.5t76 -98.5t124.5 -36.5
l25 2q45 29 75.5 72.5t45 97t19.5 101.5t5 106q0 83 -9.5 145t-41.5 115q-36 59 -90.5 93t-116.5 34z" />
    <glyph glyph-name="exclamdown" unicode="&#xa1;" horiz-adv-x="296" 
d="M61 709q0 12 61 39.5t99 27.5q15 0 15 -6v-1327q0 -14 -65 -41t-97 -27q-13 0 -13 7v1327zM268 1094q2 -2 2 -4q0 -18 -59 -67.5t-80 -49.5l-4 2l-98 98l-2 2q0 20 58 69.5t81 49.5l4 -2z" />
    <glyph glyph-name="cent" unicode="&#xa2;" horiz-adv-x="800" 
d="M672 733q-55 -22 -86 -22q-8 0 -18.5 7.5t-23.5 20.5t-18 17v-719q72 6 150 67q23 17 70 36.5t75 19.5q21 0 21 -6q0 -18 -64 -54t-121 -61q-93 -39 -131 -49v-144q0 -18 -58 -67t-81 -49q-4 0 -4 4v231q-12 -2 -33 -2q-108 0 -184.5 70.5t-93.5 181.5q-11 67 -11 147
q0 186 71 301t251 181v119q0 16 57 67t80 51q6 0 6 -6v-203h11q125 0 206 -90v-2q0 -4 -7 -11.5t-24 -17.5t-40 -18zM287 164q39 -68 96 -101v738h-2q-145 -98 -145 -389q0 -162 51 -248z" />
    <glyph glyph-name="sterling" unicode="&#xa3;" horiz-adv-x="987" 
d="M16 496q-6 0 -6 4q0 19 60 68.5t80 49.5h94v285q0 107 46 185.5t118 144.5q18 16 71.5 35.5t83.5 19.5q15 0 15 -6q0 -1 -7 -8q-68 -59 -110.5 -131t-42.5 -178v-347h358q6 0 6 -6q0 -20 -59 -68t-80 -48h-225v-148q0 -80 -29 -148.5t-74 -113.5h646q4 0 4 -4
q0 -22 -59 -70.5t-79 -48.5h-712q-31 0 -31 6q0 5 6 11q154 134 154 307v209h-228z" />
    <glyph glyph-name="yen" unicode="&#xa5;" horiz-adv-x="1339" 
d="M55 496q-14 0 -14 6q0 16 64.5 40.5t97.5 24.5h291l-412 650h-88q-14 0 -14 6q0 15 64.5 40t96.5 25h197q14 0 14 -6q0 -3 -8.5 -10t-25 -16.5t-35.5 -16.5l415 -655l383 633h-80q-14 0 -14 6q0 14 65 39.5t97 25.5h197q14 0 14 -6q0 -10 -49.5 -32.5t-87.5 -30.5
l-394 -652h455q14 0 14 -6q0 -13 -65.5 -39t-95.5 -26h-353l-14 -25v-100h514q14 0 14 -6q0 -13 -65.5 -39.5t-95.5 -26.5h-367v-264h84q14 0 14 -6q0 -13 -65.5 -39.5t-95.5 -26.5h-197q-14 0 -14 6q0 9 30 25.5t68 28.5v276h-539q-14 0 -14 6q0 15 65 40.5t97 25.5h391v39
l-53 86h-486z" />
    <glyph glyph-name="brokenbar" unicode="&#xa6;" horiz-adv-x="296" 
d="M236 -387q0 -9 -26 -24t-63 -27q-23 -8 -43 -12t-31.5 -4t-11.5 5v627q0 8 25.5 22.5t60.5 26.5q24 9 44.5 13.5t32.5 4.5t12 -5v-627zM236 866q0 -9 -26 -24t-63 -27q-23 -8 -43 -12t-31.5 -3.5t-11.5 5.5v627q0 8 25.5 22.5t60.5 26.5q24 9 44.5 13.5t32.5 4t12 -5.5
v-627z" />
    <glyph glyph-name="Paragraph" unicode="&#xa7;" horiz-adv-x="972" 
d="M819 1151v-2q0 -16 -63.5 -42t-96.5 -26q-8 0 -12 4q-85 132 -213 132q-32 0 -70 -60t-38 -133q0 -56 26 -109q30 -60 84.5 -95t107.5 -47t122 -34.5t116 -56.5q62 -45 94.5 -107.5t32.5 -130.5q0 -102 -73 -191t-195 -136q84 -30 131 -98.5t47 -149.5q0 -89 -61 -164.5
t-158.5 -117.5t-206.5 -42q-75 0 -138.5 37.5t-100.5 102.5v2q0 13 62.5 39t94.5 26q11 0 15 -4q83 -129 206 -129q32 0 72.5 55t40.5 136q0 59 -24 108q-25 49 -63.5 81t-84.5 48t-92 28t-99 31.5t-92 47.5q-63 44 -95 106.5t-32 130.5q0 102 73 190t196 138
q-84 28 -131 97t-47 151q0 87 60.5 162t158.5 117t207 42q76 0 138 -36t101 -101zM549 145q25 1 35 2.5t26.5 8t32.5 20.5q92 80 92 203q0 94 -60 174t-163 111q-5 2 -28.5 10t-40.5 12t-29 4q-69 0 -122.5 -72t-53.5 -167q0 -143 122 -230q16 -12 33 -22t40 -18.5t35 -12
t42.5 -12.5t38.5 -11z" />
    <glyph glyph-name="dieresis" unicode="&#xa8;" horiz-adv-x="714" 
d="M66 1167q-16 16 57 74q69 57 82 47l98 -98q15 -12 -57 -74q-69 -60 -84 -45zM410 1167q-15 12 57 74q66 58 84 47l98 -98q15 -15 -59 -74q-66 -61 -82 -45z" />
    <glyph glyph-name="copyright" unicode="&#xa9;" horiz-adv-x="1550" 
d="M1135 160q89 89 134.5 202t45.5 234q0 122 -46.5 236.5t-135.5 203.5q-87 85 -198.5 133t-234.5 48q-161 0 -286 -125q-88 -88 -133 -201t-45 -234q0 -122 46.5 -236.5t135.5 -203.5q85 -86 196 -134t234 -48q162 0 287 125zM1300 205q-114 -114 -269 -178t-316 -64
q-282 0 -469 187q-91 91 -138 206.5t-47 237.5q0 125 48.5 243t140.5 210q114 114 268.5 177.5t315.5 63.5q285 0 471 -186q91 -91 137.5 -206t46.5 -239q0 -125 -48.5 -242.5t-140.5 -209.5zM1075 922l29 -21q29 4 29 -4v-25q0 -9 -26 -24t-63 -27q-76 -25 -86 -12l-24 25
l-29 20q-77 49 -162 49q-32 0 -65 -33q-86 -86 -86 -211q0 -131 90 -221q95 -95 227 -92q26 13 54 41q10 12 42 27t66 24q29 8 45 8.5t17 -6.5v-22q0 -9 -26 -24t-63 -27h-4q-15 -11 -28 -19q-6 -3 -41 -18q-123 -54 -228 -54q-135 0 -233 95q-94 94 -94 223q0 133 98 231
q71 71 168 110.5t209 39.5q104 0 184 -53z" />
    <glyph glyph-name="guillemotleft" unicode="&#xab;" horiz-adv-x="1216" 
d="M541 834q48 33 118 49q50 12 47 -3q0 -4 -8 -10l-356 -284l363 -291q11 -9 -30 -30l-38 -17q-87 -32 -102 -21l-369 295q-6 6 6 17zM885 834q48 33 119 49q49 11 47 -2q-3 -5 -9 -11l-356 -284l365 -291q8 -8 -27 -27q-18 -11 -43 -20q-35 -13 -65.5 -19.5t-36.5 -1.5
l-369 295q-6 6 8 17z" />
    <glyph glyph-name="uni00AD" unicode="&#xad;" horiz-adv-x="1099" 
d="M170 496q-18 0 18 40l21 21q28 25 56 43t38 18h627q18 0 -13 -35q-11 -12 -26 -26q-27 -26 -54.5 -43.5t-39.5 -17.5h-627z" />
    <glyph glyph-name="registered" unicode="&#xae;" horiz-adv-x="1550" 
d="M1135 580q89 89 134.5 202t45.5 234q0 122 -46.5 236.5t-135.5 203.5q-87 85 -198 132.5t-233 47.5q-161 0 -286 -125q-89 -89 -134.5 -201t-45.5 -233q0 -122 46.5 -236.5t135.5 -203.5q86 -86 197 -134t233 -48q162 0 287 125zM1300 625q-117 -117 -273.5 -179.5
t-324.5 -62.5q-133 0 -250.5 49t-205.5 137q-91 91 -138 207t-47 238q0 125 48.5 242.5t140.5 209.5q117 118 272.5 180t325.5 62q134 0 252 -48.5t205 -137.5q91 -91 137.5 -206t46.5 -239q0 -125 -48.5 -242.5t-140.5 -209.5zM608 1395h215q84 0 140 -56q55 -56 53 -131
t-58 -131q-21 -24 -67 -53q57 -28 139 -129q35 -42 54.5 -63.5t49 -42.5t52.5 -21q30 0 0 -21l-25 -14q-76 -37 -121 -37q-34 0 -69 21.5t-56.5 44t-58.5 67.5q-33 41 -53.5 63.5t-50.5 46t-56 28.5v-199h35q29 0 3 -19q-10 -7 -27 -16q-76 -37 -121 -37h-99q-37 0 21 34
l14 7v586h-59q-27 0 -7 18q12 9 31 19q80 35 121 35zM696 1321v-252q55 -23 105 -29q44 52 40 120t-50 114q-41 41 -95 47z" />
    <glyph glyph-name="macron" unicode="&#xaf;" horiz-adv-x="925" 
d="M76 1012q-26 0 -8 16q11 10 34 21q66 34 121 34h627q23 0 8 -14q-11 -9 -35 -20q-76 -37 -121 -37h-626z" />
    <glyph glyph-name="degree" unicode="&#xb0;" horiz-adv-x="829" 
d="M457 1112q35 54 35 111q0 61 -33.5 108t-85.5 62q-35 -51 -35 -109v-2q0 -60 34 -107.5t85 -62.5zM487 1468q74 0 126.5 -52t52.5 -132q0 -106 -97 -177t-227 -71q-76 0 -127 55t-51 132q0 106 97.5 175.5t225.5 69.5z" />
    <glyph glyph-name="plusminus" unicode="&#xb1;" horiz-adv-x="894" 
d="M68 250q-7 0 -7 4q0 18 59.5 68.5t80.5 50.5h626q4 0 4 -4q0 -22 -59 -70.5t-78 -48.5h-626zM360 1085q0 14 64 41t96 27q15 0 15 -6v-283h292q4 0 4 -4q0 -22 -59 -70.5t-78 -48.5h-159v-221q0 -14 -61.5 -40.5t-98.5 -26.5q-15 0 -15 6v282h-292q-7 0 -7 4
q0 18 59.5 68.5t80.5 50.5h159v221z" />
    <glyph glyph-name="uni00B2" unicode="&#xb2;" horiz-adv-x="733" 
d="M150 1452q-50 -16 -74 -16q-15 0 -15 6q0 115 101.5 190.5t240.5 75.5q82 0 138.5 -59.5t56.5 -147.5q0 -90 -57 -147l-248 -248h373q4 0 4 -4q0 -22 -59.5 -70.5t-78.5 -48.5h-448q-4 0 -11 3t-7 7t4 8l305 306q47 53 47 133q0 66 -39 124t-100 70q-45 -51 -45 -131
q1 -6 -12 -15t-28 -15.5t-31 -13.5t-17 -7z" />
    <glyph glyph-name="uni00B3" unicode="&#xb3;" horiz-adv-x="806" 
d="M354 1305q-68 -29 -108 -29q-13 0 -13 4q0 3 5 8l284 295h-307q-23 0 -38 14.5t-15 36.5q0 19 57.5 69t79.5 50q2 0 6.5 -11.5t15.5 -23.5t27 -12h391q6 0 6 -6q0 -13 -20 -33l-289 -299q27 6 58 6q86 0 143 -53.5t57 -144.5q0 -152 -135 -264.5t-311 -112.5
q-66 0 -115.5 34t-69.5 97q0 14 65 40.5t99 26.5q11 0 11 -4q19 -56 60.5 -89.5t96.5 -33.5q15 0 44 35t55 94.5t26 114.5q0 86 -45 130t-121 61z" />
    <glyph glyph-name="acute" unicode="&#xb4;" horiz-adv-x="544" 
d="M231 1079q-11 -12 -43 -27t-67 -24q-62 -17 -58 -1q1 3 5 7l245 246q10 12 43 27t68 24q62 17 58 1q-1 -3 -5 -7z" />
    <glyph glyph-name="mu" unicode="&#xb5;" horiz-adv-x="991" 
d="M299 -805q0 -5 -26.5 -21.5t-67 -32t-70.5 -15.5q-12 0 -12 8v1671q0 6 26.5 21.5t67 30.5t70.5 15q12 0 12 -6v-592q0 -99 67 -170t166 -71q39 0 71.5 44t47.5 95t15 86v547q0 13 61 40t100 27q13 0 13 -6v-592q0 -203 108 -241q5 2 18 2.5t15 -4.5q0 -19 -66.5 -43.5
t-111.5 -24.5q-40 0 -70 27.5t-41 68.5q-125 -87 -276 -96l-117 10v-778z" />
    <glyph glyph-name="paragraph" unicode="&#xb6;" horiz-adv-x="1011" 
d="M936 1497q14 0 14 -4v-1880q0 -14 -61 -41t-98 -27q-15 0 -15 6v1874h-170v-1812q0 -14 -61.5 -41t-98.5 -27q-14 0 -14 6v1475q-77 -43 -135 -43q-101 0 -168.5 68t-67.5 159q0 82 56.5 149t143.5 102.5t183 35.5h492z" />
    <glyph glyph-name="periodcentered" unicode="&#xb7;" horiz-adv-x="571" 
d="M166 547q-3 3 3 13.5t20.5 26t33.5 31.5q28 24 53.5 38.5t30.5 9.5l99 -99q6 -6 -11 -27t-47 -46q-29 -25 -53.5 -38t-30.5 -7z" />
    <glyph glyph-name="cedilla" unicode="&#xb8;" horiz-adv-x="456" 
d="M109 -121q-7 -1 -12.5 -2t-15 -2t-14 1t-1.5 7q11 19 23.5 44.5t18 34t19 22t33 22t53.5 19.5q77 22 75 5q0 -1 -1 -3l-41 -76q49 3 85.5 -19.5t51.5 -56.5t8 -75t-39 -72q-47 -47 -121 -75.5t-143 -19.5q-2 1 -9 2.5t-9 2.5q-24 7 33 34q58 28 104 35q29 58 -4 115
t-94 57z" />
    <glyph glyph-name="uni00B9" unicode="&#xb9;" horiz-adv-x="407" 
d="M346 1075q0 -15 -62 -41t-100 -26q-14 0 -14 6v567q-61 -22 -94 -22q-13 0 -13 4q0 6 13 16l108 76q25 16 76 34t74 17q12 0 12 -4v-627z" />
    <glyph glyph-name="ordmasculine" unicode="&#xba;" horiz-adv-x="829" 
d="M457 1112q35 54 35 111q0 61 -33.5 108t-85.5 62q-35 -51 -35 -109v-2q0 -60 34 -107.5t85 -62.5zM487 1468q74 0 126.5 -52t52.5 -132q0 -106 -97 -177t-227 -71q-76 0 -127 55t-51 132q0 106 97.5 175.5t225.5 69.5z" />
    <glyph glyph-name="guillemotright" unicode="&#xbb;" horiz-adv-x="1218" 
d="M676 281q-50 -35 -119 -50q-50 -12 -47 3q2 5 8 10l356 284l-362 291q-11 9 30 30l38 17q87 32 102 21l369 -295q5 -5 -7 -17zM332 281q-50 -35 -119 -50q-50 -12 -47 3q2 5 8 10l356 284l-364 291q-8 8 27 27l43 20q35 13 65.5 19.5t36.5 1.5l369 -295q5 -5 -9 -17z" />
    <glyph glyph-name="onequarter" unicode="&#xbc;" horiz-adv-x="1587" 
d="M492 657q0 -15 -62.5 -41t-97.5 -26q-15 0 -15 6v569q-53 -24 -94 -24q-12 0 -12 4q0 7 12 16l107 76q23 17 74 35t73 18q15 0 15 -6v-627zM233 23q-16 -16 -70 -38t-87 -22q-15 0 -15 6q0 1 7 8l1253 1254q16 16 69 36.5t85 20.5q16 0 16 -6q0 -2 -4 -6zM1520 186
q4 0 4 -4q0 -22 -59.5 -70.5t-78.5 -48.5h-75v-221q0 -13 -62.5 -39t-97.5 -26q-14 0 -14 6v280h-357q-4 0 -4 7q0 20 8 28l353 523q4 15 65.5 39t93.5 24q15 0 15 -6v-492h209zM979 186h158v232z" />
    <glyph glyph-name="onehalf" unicode="&#xbd;" horiz-adv-x="1552" 
d="M492 657q0 -14 -62 -40.5t-100 -26.5q-15 0 -15 6v569q-21 -11 -50.5 -17.5t-43.5 -6.5q-12 0 -12 4q0 8 14 16l107 76q19 16 72 34.5t75 18.5q15 0 15 -6v-627zM231 23q-13 -17 -68.5 -38.5t-86.5 -21.5q-15 0 -15 6q0 1 7 8l1251 1254q14 16 68 36.5t88 20.5
q14 0 14 -4q0 -6 -4 -8zM1468 80q7 0 7 -4q0 -23 -59 -70t-81 -47h-446q-6 0 -13.5 3.5t-7.5 8.5q0 2 4 6l306 306q49 55 49 133q0 67 -38.5 122t-101.5 72q-47 -57 -47 -131q1 -8 -20 -20.5t-41 -20.5t-27 -10q-46 -16 -73 -16q-13 0 -13 4q0 65 32 118t83 84.5t109.5 48.5
t115.5 17q84 0 139.5 -58.5t55.5 -144.5q0 -90 -55 -151l-248 -250h370z" />
    <glyph glyph-name="threequarters" unicode="&#xbe;" horiz-adv-x="1699" 
d="M1409 -158q0 -14 -63 -39.5t-97 -25.5q-14 0 -14 6v280h-356q-5 0 -5 7q0 19 9 28l352 523q8 15 68.5 39t91.5 24q14 0 14 -6v-492h209q4 0 4 -4q0 -22 -58.5 -70.5t-78.5 -48.5h-76v-221zM381 23q-18 -18 -71.5 -39t-86.5 -21q-14 0 -14 6q0 2 6 8l1253 1254
q16 16 69 36.5t85 20.5q16 0 16 -6q0 -2 -4 -6zM739 1288q4 0 4 -4q0 -15 -20 -35l-289 -299q35 6 68 6q86 0 139 -56t53 -142q0 -100 -63 -187.5t-166.5 -138.5t-218.5 -51q-51 0 -92 20q-31 15 -61 47.5t-30 65.5q0 12 64 39t98 27q8 0 13 -5q17 -56 60 -89t95 -33
q23 0 55 47t48 84q22 55 22 112q0 77 -45 133t-119 56q-12 0 -55 -13.5t-53 -13.5q-15 0 -15 4q0 1 7 8l282 295h-307q-22 0 -36.5 15t-14.5 37q0 16 57 67t80 51q2 0 6.5 -11.5t15 -23.5t25.5 -12h393zM1235 186v232l-158 -232h158z" />
    <glyph glyph-name="questiondown" unicode="&#xbf;" horiz-adv-x="1079" 
d="M266 487q-25 0 -10 15q10 10 35 22q80 35 121 35q99 0 168 -50.5t86 -139.5q12 -63 -6 -122.5t-59 -106.5t-90.5 -83.5t-107.5 -64.5q-82 -40 -135 -107t-53 -151q0 -122 95 -206.5t220 -84.5q64 0 84 16q86 67 86 181q0 17 86 51q1 0 10.5 3t22 6t25.5 5.5t21.5 1.5
t8.5 -6q0 -125 -106 -207q-160 -123 -383 -123q-139 0 -241.5 84.5t-102.5 216.5q0 59 24 110t67 91t86.5 68t98.5 55q94 47 143.5 132t31.5 177q-15 79 -79 130.5t-147 51.5zM578 879q6 -4 -11.5 -25.5t-46.5 -46.5q-29 -24 -53.5 -38t-30.5 -9l-98 98q-5 6 11.5 28
t45.5 46t54 37.5t30 7.5z" />
    <glyph glyph-name="AE" unicode="&#xc6;" horiz-adv-x="1853" 
d="M240 49q-3 -6 -11 -14h113q51 0 -27 -35q-70 -37 -120 -37h-197q-45 0 25 37q66 32 114 35l535 1182h-156q-38 0 1 23q10 6 24 13q72 35 121 35h837q12 0 12 -4v-49q3 -21 -86 -51q-88 -30 -88 -10v43h-501l168 -568h495q49 0 -26 -35q-73 -36 -121 -36h-328l160 -543
h612q42 23 72 33q88 34 88 12v-51q0 -11 -41 -29q-70 -37 -121 -37h-909q-46 0 24 37q59 27 99 33l-162 545h-367zM825 649l-125 420l-190 -420h315z" />
    <glyph glyph-name="Edieresis" unicode="&#xcb;" horiz-adv-x="1167" 
d="M223 1288h836q14 0 14 -4v-49q0 -9 -26 -24t-62 -27q-23 -8 -43 -12t-31.5 -3.5t-11.5 5.5v43h-514v-519h551q33 0 -5 -22l-22 -12q-72 -37 -121 -37h-403v-592h604q22 16 70 33q24 9 44.5 13.5t32 4t11.5 -5.5v-49q0 -13 -41 -31q-72 -37 -121 -37h-909q-23 0 -8 15
q10 10 34 22q63 29 109 35v1182h-135q-24 0 -8 15q11 10 34 21q80 35 121 35zM676 1581q-2 0 -2 4q0 17 59.5 67t79.5 50l102 -100q3 -3 3 -5q0 -18 -58.5 -67t-81.5 -49q-4 0 -4 2zM332 1581q-2 0 -2 4q0 17 58.5 67t78.5 50l6 -2l98 -101q0 -18 -56.5 -68t-80.5 -50
q-4 0 -4 2z" />
    <glyph glyph-name="Eth" unicode="&#xd0;" horiz-adv-x="1454" 
d="M754 1290q132 -1 249.5 -50.5t204.5 -137.5q88 -88 136.5 -204.5t48.5 -240.5q0 -130 -49.5 -246t-139.5 -206q-115 -115 -269 -178.5t-329 -63.5h-528q-25 0 -10 15q10 10 34 22q63 29 109 35v592h-268q-27 0 -7 18q11 9 31 19q74 36 121 36h123v517h-133q-27 0 -6 18
l30 18q76 37 121 37h531zM385 1217v-517h268q27 0 6 -18q-11 -8 -30 -18q-76 -37 -121 -37h-123v-590h367q163 0 288 125q86 86 132.5 199t46.5 235q0 124 -47.5 238t-135.5 202q-86 86 -196.5 133.5t-233.5 47.5h-221z" />
    <glyph glyph-name="multiply" unicode="&#xd7;" horiz-adv-x="741" 
d="M231 217q-11 -11 -44 -25.5t-66 -23.5q-62 -17 -58 -1q1 3 5 7l213 213l-218 219q-7 7 25 26q20 11 47 21q87 33 101 19l165 -164l109 108q12 12 45 27.5t66 24.5q62 16 59 1q-1 -3 -4 -7l-215 -216l217 -217q4 -4 -4.5 -12t-26.5 -17.5t-41 -17.5q-34 -13 -64 -19
t-36 -1l-164 166z" />
    <glyph glyph-name="Oslash" unicode="&#xd8;" horiz-adv-x="1554" 
d="M850 1288q220 0 397 -133l76 76q25 25 111 51q59 14 58 1q-1 -3 -5 -7l-176 -178q182 -182 182 -443q0 -128 -50.5 -244.5t-139.5 -205.5q-112 -114 -267 -178t-331 -64q-223 0 -398 135l-74 -75q-32 -32 -112 -52q-58 -11 -58 -3q0 2 5 7l176 179q-183 186 -183 442
q0 262 189 451q113 113 269 177t331 64zM1188 977l-764 -764q178 -178 426 -178q162 0 289 127q178 178 178 434q0 212 -129 381zM367 276l763 764q-183 177 -425 177q-164 0 -289 -125q-178 -178 -178 -437q0 -207 129 -379z" />
    <glyph glyph-name="Thorn" unicode="&#xde;" horiz-adv-x="1144" 
d="M76 1217q-32 0 2 21q10 6 24 13q72 37 121 37h197q23 0 8 -15q-12 -10 -35 -22q-9 -4 -59 -24v-148h317q183 0 310 -127q122 -122 122 -297q0 -176 -127 -303q-85 -86 -201 -134t-249 -48q-68 0 -172 23v-158h86q23 0 8 -15q-11 -10 -35 -22q-76 -37 -121 -37h-196
q-26 0 -8 16q11 10 34 21q23 12 58 22v1197h-84zM334 317q71 -33 158 -53q84 -20 159 -20q80 0 140 63q118 115 118 287q0 169 -121 293q-119 119 -282 119h-172v-689z" />
    <glyph glyph-name="germandbls" unicode="&#xdf;" horiz-adv-x="1226" 
d="M225 559q0 34 -6.5 73.5t-19 78.5t-34 64.5t-48.5 25.5l-13 -2q-14 0 -14 6q0 12 49 34.5t86 28.5v269q0 96 65.5 180t170.5 133t219 49q108 0 184 -73t76 -181q0 -79 -15 -144.5t-38.5 -108.5t-52.5 -79.5t-58 -65.5t-52.5 -57t-38.5 -64.5t-15 -78.5q0 -44 28.5 -77
t74 -52.5t100.5 -36t110 -33.5t100.5 -37.5t74 -54.5t28.5 -80q0 -87 -69.5 -160.5t-173 -113t-210.5 -39.5q-113 0 -187.5 74t-74.5 180q0 12 64 39t98 27q12 0 12 -4l2 -25q9 -92 75.5 -155.5t156.5 -63.5q61 0 97 45.5t36 134.5q0 51 -38 87.5t-95.5 55.5t-124.5 39.5
t-124.5 40t-95.5 57.5t-38 91q0 62 28 110t67.5 86.5t79 84.5t67.5 127t28 190q0 96 -66.5 168.5t-162.5 72.5h-19q-54 -34 -86.5 -95t-32.5 -132v-1560q0 -15 -62 -41.5t-97 -26.5q-15 0 -15 6v983z" />
    <glyph glyph-name="ae" unicode="&#xe6;" horiz-adv-x="1308" 
d="M1268 651h6q10 0 10 -6q0 -15 -72 -43l-536 -209q15 -55 33 -108q35 -108 119.5 -178t177.5 -70q48 0 80.5 15.5t72.5 51.5q19 16 71 36t83 20q14 0 14 -4q0 -5 -6 -11q-70 -66 -199.5 -124t-259.5 -58q-82 0 -155 41t-121 111q-251 -152 -436 -152q-140 0 -140 115
q0 57 51 141q133 218 359 404q-29 85 -94.5 132.5t-149.5 47.5l-39 -2q-12 0 -12 4q0 24 78 45.5t119 21.5q170 0 245 -129q60 57 154.5 93t179.5 36q120 0 207 -79q17 -16 44.5 -51.5t54 -58.5t61.5 -32zM1077 590q-31 13 -53.5 35.5t-45.5 52.5t-42 47q-89 76 -178 76h-13
q-47 -33 -74.5 -90t-27.5 -127t23 -154zM481 406q-5 23 -35 135q-52 -54 -91.5 -99t-81 -101.5t-64.5 -110t-23 -97.5q0 -52 27 -76t70 -24q69 0 158 47t116 86q-47 100 -76 240z" />
    <glyph glyph-name="eth" unicode="&#xf0;" horiz-adv-x="892" 
d="M393 801h-14q-4 0 -39 -35q-102 -104 -102 -342q0 -89 10 -148q14 -101 82.5 -171t158.5 -70q1 0 8 -1t10 1t14 10.5t28 26.5q102 107 102 342q0 69 -10 147q-15 102 -85 171t-163 69zM264 1055q-4 -2 -10 -2t-6 4q0 19 50 61t81 53l98 37q-118 195 -256 215
q-5 1 -14.5 2t-15 2t-5.5 5q0 14 66.5 40.5t97.5 26.5l31 -4q144 -20 268 -223l248 90q4 2 10 2t6 -6q0 -17 -51 -61.5t-78 -53.5l-100 -37q20 -33 31 -65q116 -279 116 -611q0 -112 -14 -204q-22 -151 -155 -257t-314 -106q-79 0 -136.5 33t-89.5 91t-46.5 126t-14.5 149
q0 83 11 150q22 149 153 254.5t310 105.5q42 0 75 -8q-37 149 -98 281z" />
    <glyph glyph-name="divide" unicode="&#xf7;" horiz-adv-x="1208" 
d="M68 496q-23 0 29 54l7 7q28 25 56.5 43t40.5 18h940q16 0 -10 -31q-12 -15 -29 -30q-27 -25 -55 -43t-39 -18h-940zM483 252q-3 3 3.5 13.5t21 26.5t33.5 32q28 24 53.5 38t30.5 9l98 -99q13 -13 -57 -73q-29 -25 -53.5 -38t-30.5 -7zM483 842q-3 3 3.5 13.5t21 26
t33.5 31.5q30 25 55 39.5t29 8.5l98 -99q6 -6 -10.5 -27.5t-46.5 -46.5q-29 -25 -53.5 -38t-30.5 -7z" />
    <glyph glyph-name="oslash" unicode="&#xf8;" horiz-adv-x="888" 
d="M406 848q77 24 139 24q127 0 209 -92l34 35q16 16 70 36.5t86 20.5q14 0 14 -4q0 -6 -4 -8l-153 -155q35 -88 35 -220q0 -89 -11 -159q-16 -103 -88 -187.5t-172 -130t-205 -45.5q-124 0 -208 94l-35 -34q-18 -18 -71.5 -39t-84.5 -21q-14 0 -14 6l4 8l153 154
q-34 84 -34 229q0 194 81 314.5t255 173.5zM254 281l369 368q-31 67 -90 109.5t-127 42.5h-17q-143 -97 -143 -379q0 -94 8 -141zM651 557l-368 -369q30 -67 88.5 -110t124.5 -43l20 2q143 93 143 360q0 118 -8 160z" />
    <glyph glyph-name="thorn" unicode="&#xfe;" horiz-adv-x="927" 
d="M436 848q77 24 142 24q75 0 137.5 -36t99.5 -99q51 -84 51 -252q0 -93 -10 -159q-15 -103 -87 -187.5t-172.5 -130t-205.5 -45.5q-60 0 -115 25v-793q0 -14 -61 -40.5t-98 -26.5q-15 0 -15 6v2711q0 18 123 49q67 15 105 15q18 0 18 -4q-59 -392 -72 -815v-318
q63 44 160 76zM434 801h-14q-144 -98 -144 -379q0 -174 50 -258q34 -60 87 -94.5t115 -34.5l19 2q145 90 145 389q0 163 -51 248q-36 59 -90.5 93t-116.5 34z" />
    <glyph glyph-name="Ccircumflex" unicode="&#x108;" horiz-adv-x="1337" 
d="M1268 1137q49 10 49 0v-50q0 -18 -86 -51q-2 0 -16.5 -4.5t-26.5 -7.5t-27.5 -4.5t-17.5 4.5q-85 91 -201 142t-240 51q-104 0 -194 -52t-148 -134t-91 -180t-33 -194q0 -124 48.5 -238.5t130.5 -198.5t195.5 -134.5t237.5 -50.5q94 0 162 32.5t137 104.5q10 12 42 27
t66 24q29 8 45 8.5t17 -6.5v-47q0 -13 -48 -35.5t-79 -27.5q-55 -37 -137 -72q-190 -80 -351 -80q-128 0 -246.5 50t-205 134.5t-138 202t-51.5 246.5q0 122 44 232t120.5 192.5t176.5 143.5t214.5 92.5t231.5 31.5q240 0 420 -151zM664 1505q-11 -15 -67.5 -38t-88.5 -23
q-16 0 -16 6q0 4 2 6l172 221q13 15 69.5 38.5t87.5 23.5q11 0 15 -4l172 -224q0 -17 -62 -42t-96 -25q-10 0 -14 4l-111 139z" />
    <glyph glyph-name="ccircumflex" unicode="&#x109;" horiz-adv-x="800" 
d="M672 733q-55 -22 -86 -22q-13 0 -15 4q-76 86 -178 86h-12q-145 -98 -145 -389q0 -162 51 -248q34 -59 88.5 -94t116.5 -35q95 0 184 69q24 18 72.5 37.5t76.5 18.5q17 0 17 -6q0 -18 -64 -54t-121 -61q-171 -76 -307 -76q-108 0 -184.5 70.5t-93.5 181.5q-11 67 -11 147
q0 189 74 304.5t260 181.5q65 24 142 24q125 0 206 -90v-2q0 -4 -7 -11.5t-24 -17.5t-40 -18zM383 1094q-11 -15 -67.5 -38.5t-88.5 -23.5q-16 0 -16 6q0 4 2 6l172 222q13 15 69.5 38t88.5 23q10 0 14 -4l172 -223q0 -17 -62 -42.5t-96 -25.5q-10 0 -14 4l-111 140z" />
    <glyph glyph-name="Dcroat" unicode="&#x110;" horiz-adv-x="1454" 
d="M754 1290q132 -1 249.5 -50.5t204.5 -137.5q88 -88 136.5 -204.5t48.5 -240.5q0 -130 -49.5 -246t-139.5 -206q-115 -115 -269 -178.5t-329 -63.5h-528q-25 0 -10 15q10 10 34 22q63 29 109 35v592h-268q-27 0 -7 18q11 9 31 19q74 36 121 36h123v517h-133q-27 0 -6 18
l30 18q76 37 121 37h531zM385 1217v-517h268q27 0 6 -18q-11 -8 -30 -18q-76 -37 -121 -37h-123v-590h367q163 0 288 125q86 86 132.5 199t46.5 235q0 124 -47.5 238t-135.5 202q-86 86 -196.5 133.5t-233.5 47.5h-221z" />
    <glyph glyph-name="dcroat" unicode="&#x111;" horiz-adv-x="970" 
d="M358 1167q-27 0 39 60q64 61 95 61h159v557q0 18 123 49q68 15 105 15q18 0 18 -4q-53 -347 -66 -617h287q23 0 -22 -45q-8 -7 -17 -16q-66 -60 -94 -60h-160v-985q0 -147 82 -147q14 0 39 4q15 0 15 -6q0 -23 -78.5 -46.5t-120.5 -23.5q-96 0 -107 107
q-62 -46 -147 -76.5t-154 -30.5q-76 0 -140 36.5t-101 100.5q-52 88 -52 260q0 58 11 152q20 149 157.5 254.5t305.5 105.5q64 0 116 -24v319h-293zM651 389q0 64 -1.5 100.5t-13 91t-34.5 93.5q-36 59 -90.5 93t-116.5 34h-14q-145 -93 -145 -379q0 -167 64.5 -276
t188.5 -109l19 2q71 46 107 138t36 212z" />
    <glyph glyph-name="Gcircumflex" unicode="&#x11c;" horiz-adv-x="1419" 
d="M1268 1137q49 10 49 0v-50q0 -19 -88 -51q-1 0 -10.5 -3t-20 -6t-22 -5.5t-21 -2t-12.5 4.5l-51 49q-35 27 -58 41q-148 103 -334 103q-161 0 -286 -125q-86 -86 -132 -199.5t-46 -235.5q0 -127 48 -240.5t134 -199.5q85 -86 196 -134t234 -48q89 0 159 33t136 100v360
h-357q-23 0 -8 15q12 10 35 22q72 35 121 35h369q14 0 14 -4v-371l-4 -6q-104 -109 -260 -176q-190 -80 -353 -80q-128 0 -246 48.5t-208 138.5q-89 89 -137 204.5t-48 241.5q0 127 48.5 244t138.5 207q116 115 270.5 178t329.5 63q201 0 358 -106q38 -26 58 -43zM674 1505
q-11 -15 -67.5 -38t-88.5 -23q-16 0 -16 6q0 4 2 6l172 221q13 15 69.5 38.5t88.5 23.5q10 0 14 -4l172 -224q0 -17 -62 -42t-96 -25q-10 0 -14 4l-111 139z" />
    <glyph glyph-name="gcircumflex" unicode="&#x11d;" horiz-adv-x="1003" 
d="M1085 872q21 0 21 -6q0 -14 -59 -39t-95 -26q-52 -35 -83 -95t-31 -124v-33q0 -49 -19 -127q-10 -36 -43 -98t-43 -95q-18 -61 -18 -123q0 -184 153 -321q53 -46 83 -111t30 -135q0 -93 -50.5 -172.5t-130 -130.5t-174.5 -79.5t-188 -28.5q-100 0 -190 42t-148.5 124
t-58.5 184q0 114 77 208.5t197.5 146.5t253.5 54q-30 77 -30 158q0 53 12 102q-99 -36 -203 -36q-94 0 -162 48.5t-98.5 120.5t-30.5 156q0 57 17 116t55 117t92.5 102.5t137.5 72.5t182 28q162 0 239 -122q50 43 136 78t165 44h4zM631 641q-33 73 -92 116.5t-140 43.5h-20
q-36 -3 -70 -49t-55 -114.5t-21 -135.5q0 -81 28 -152t88.5 -119.5t142.5 -48.5q39 0 72.5 32.5t51 70t29.5 80.5q17 63 17 118q0 82 -31 158zM584 -801q63 0 115.5 43.5t80 107t27.5 128.5q0 139 -109.5 238.5t-259.5 99.5q-64 0 -116.5 -43.5t-79.5 -106.5t-27 -127
q0 -140 108 -238.5t261 -101.5zM416 1094q-11 -15 -67.5 -38.5t-88.5 -23.5q-16 0 -16 6q0 4 2 6l172 222q13 15 69 38t88 23q11 0 15 -4l172 -223q0 -17 -62 -42.5t-96 -25.5q-10 0 -14 4l-111 140z" />
    <glyph glyph-name="Gcommaaccent" unicode="&#x122;" horiz-adv-x="1419" 
d="M610 -121q-12 -4 -32 -4q-13 0 -13 4l2 4q9 16 18.5 35t16 31t12.5 20q-234 31 -393.5 209.5t-159.5 417.5q0 145 64 275t171 220.5t251.5 143.5t300.5 53q116 0 225 -38.5t191 -110.5l4 -2q28 4 35 4q14 0 14 -4v-50q0 -4 -21.5 -19.5t-61 -31.5t-77.5 -16q-12 0 -14 4
l-51 49q-187 144 -392 144q-99 0 -187.5 -50.5t-148 -130.5t-94 -180t-34.5 -199q0 -168 83 -311.5t224 -227t305 -83.5q89 0 159 33t136 100v360h-357q-14 0 -14 7q0 16 65 40.5t97 24.5h369q14 0 14 -4v-371l-4 -6q-103 -111 -255.5 -177t-301.5 -77l-8 -14h10
q62 0 99.5 -38t37.5 -91q0 -73 -86 -132t-188 -59q-18 0 -37 4t-19 9q0 12 53 34.5t91 28.5q12 24 12 53q0 47 -33 83t-78 36z" />
    <glyph glyph-name="gcommaaccent" unicode="&#x123;" horiz-adv-x="1003" 
d="M1085 872q21 0 21 -6q0 -14 -59 -39t-95 -26q-52 -35 -83 -95t-31 -124v-33q0 -49 -19 -127q-10 -36 -43 -98t-43 -95q-18 -61 -18 -123q0 -184 153 -321q53 -46 83 -111t30 -135q0 -93 -50.5 -172.5t-130 -130.5t-174.5 -79.5t-188 -28.5q-100 0 -190 42t-148.5 124
t-58.5 184q0 114 77 208.5t197.5 146.5t253.5 54q-30 77 -30 158q0 53 12 102q-99 -36 -203 -36q-94 0 -162 48.5t-98.5 120.5t-30.5 156q0 57 17 116t55 117t92.5 102.5t137.5 72.5t182 28q162 0 239 -122q50 43 136 78t165 44h4zM631 641q-33 73 -92 116.5t-140 43.5h-20
q-36 -3 -70 -49t-55 -114.5t-21 -135.5q0 -81 28 -152t88.5 -119.5t142.5 -48.5q39 0 72.5 32.5t51 70t29.5 80.5q17 63 17 118q0 82 -31 158zM584 -801q63 0 115.5 43.5t80 107t27.5 128.5q0 139 -109.5 238.5t-259.5 99.5q-64 0 -116.5 -43.5t-79.5 -106.5t-27 -127
q0 -140 108 -238.5t261 -101.5zM500 1466q26 26 59 49t45 23q6 0 6 -6q0 -13 -28 -41q-56 -58 -56 -180q0 -133 84 -217v-4q0 -4 -4 -11t-10 -14t-14 -15l-14 -14t-12 -11l-5 -5q-8 -8 -36.5 -27.5t-41.5 -19.5q-4 0 -4 2q-86 83 -86 223q0 70 30 140.5t87 127.5z" />
    <glyph glyph-name="Hcircumflex" unicode="&#x124;" horiz-adv-x="1460" 
d="M223 1288h197q24 0 9 -14q-10 -10 -36 -21q-23 -13 -57 -24v-531h782v519h-84q-28 0 -4 18q11 8 31 18q80 35 121 35h200q24 0 11 -14q-10 -10 -35 -21q-24 -12 -64 -24v-1194h84q28 0 4 -18l-30 -17q-72 -37 -121 -37h-197q-26 0 -7 16q12 10 34 21q36 16 57 23v604
h-782v-592h84q29 0 1 -19q-11 -7 -28 -16q-72 -37 -121 -37h-196q-23 0 -8 15q10 10 34 22q33 15 58 23v1194h-84q-26 0 -7 16q11 9 33 20q80 35 121 35zM643 1505q-11 -15 -67.5 -38t-88.5 -23q-16 0 -16 6q0 4 2 6l172 221q13 15 69.5 38.5t88.5 23.5q10 0 14 -4l172 -224
q0 -17 -62 -42t-96 -25q-10 0 -14 4l-110 139z" />
    <glyph glyph-name="hcircumflex" unicode="&#x125;" horiz-adv-x="958" 
d="M569 -106q-71 -29 -104 -29q-14 0 -14 6q0 5 14.5 16t38.5 21q53 22 94.5 106t61.5 188.5t20 207.5q0 79 -10 151q-15 102 -85 171t-163 69h-6q-7 1 -12.5 -3.5t-32.5 -31.5q-80 -80 -95 -195v-540q0 -12 -60.5 -40t-98.5 -28q-15 0 -15 6v1876q0 18 123 49q67 15 105 15
q18 0 18 -4q-67 -457 -72 -766v-357q134 90 289 90q103 0 169 -53.5t93 -139t27 -202.5q0 -461 -285 -583zM516 1094q-10 -15 -60 -38.5t-79 -23.5q-15 0 -15 6q0 3 3 6l153 222q13 15 64 38t80 23q8 0 12 -4l155 -223q0 -17 -56 -42.5t-87 -25.5q-8 0 -12 4l-101 140z" />
    <glyph glyph-name="Hbar" unicode="&#x126;" horiz-adv-x="1460" 
d="M45 901q-14 0 -14 6q0 13 43.5 32.5t85.5 29.5v248h-84q-26 0 -7 16q11 9 33 20q80 35 121 35h197q24 0 9 -14q-10 -10 -36 -21q-23 -13 -57 -24v-254h782v242h-84q-28 0 -4 18q11 8 31 18q80 35 121 35h200q24 0 11 -14q-10 -10 -35 -21q-24 -12 -64 -24v-254h119
q14 0 14 -6q0 -14 -46 -35t-87 -29v-870h84q28 0 4 -18l-30 -17q-72 -37 -121 -37h-197q-26 0 -7 16q12 10 34 21q36 16 57 23v604h-782v-592h84q29 0 1 -19q-11 -7 -28 -16q-72 -37 -121 -37h-196q-23 0 -8 15q10 10 34 22q33 15 58 23v878h-115zM336 698h782v203h-782
v-203z" />
    <glyph glyph-name="hbar" unicode="&#x127;" horiz-adv-x="958" 
d="M-195 1217q-28 0 -4 18q11 8 31 18q68 35 121 35h149v557q0 18 123 49q67 15 105 15q3 0 6.5 0.5t5 1t3.5 0.5t2.5 -0.5t0.5 -1.5q-50 -327 -67 -621h299q22 0 9 -14q-11 -10 -36 -21q-74 -36 -121 -36h-153q-3 -41 -3 -78v-357q134 90 289 90q103 0 169 -53.5t93 -139
t27 -202.5q0 -461 -285 -583q-71 -29 -104 -29q-14 0 -14 6q0 5 14.5 16t38.5 21q53 22 94.5 106t61.5 188.5t20 207.5q0 79 -10 151q-15 102 -85 171t-163 69h-6q-7 1 -12.5 -3.5t-32.5 -31.5q-80 -80 -95 -195v-540q0 -12 -60.5 -40t-98.5 -28q-3 0 -7 -1t-6 -1t-2 2v1254
h-297z" />
    <glyph glyph-name="dotlessi" unicode="&#x131;" horiz-adv-x="466" 
d="M147 123v436q0 128 -51 201q-18 25 -39.5 34t-34 9t-12.5 4q0 10 54.5 33.5t87.5 29.5q10 2 28 2q46 0 79.5 -40t48 -95.5t14.5 -115.5v-437q0 -147 81 -147q7 0 21 2t18 2q15 0 15 -6q0 -8 -30.5 -25t-78.5 -32t-88 -15q-30 0 -52 11t-33.5 26t-18 38.5t-8 42t-1.5 42.5
z" />
    <glyph glyph-name="Jcircumflex" unicode="&#x134;" horiz-adv-x="624" 
d="M137 1217q-28 0 -4 18q11 8 31 18q80 35 121 35h200q24 0 11 -14q-9 -10 -35 -21q-24 -12 -64 -24v-1198q0 -175 -127 -305q-84 -86 -201.5 -133.5t-250.5 -47.5h-6q-20 5 10 25q9 6 22 12q63 29 107 35q90 0 153 66q117 117 117 286v1248h-84zM225 1505q-11 -15 -67 -38
t-88 -23q-17 0 -17 6q0 4 2 6l172 221q13 15 69.5 38.5t88.5 23.5q10 0 14 -4l172 -224q0 -17 -61.5 -42t-95.5 -25q-11 0 -15 4l-110 139z" />
    <glyph glyph-name="jcircumflex" unicode="&#x135;" horiz-adv-x="405" 
d="M-115 -430q-20 0 -20 6q0 13 58.5 38t94.5 28q53 34 85 95t32 132v690q0 93 -32.5 167.5t-75.5 74.5q-27 -2 -27 4q0 19 66.5 43t105.5 24q62 0 99.5 -71t37.5 -180v-691q0 -94 -59 -173t-155 -127t-210 -60zM117 1094q-11 -15 -67.5 -38.5t-88.5 -23.5q-16 0 -16 6
q0 4 2 6l172 222q13 15 69 38t88 23q11 0 15 -4l172 -223q0 -17 -62 -42.5t-96 -25.5q-10 0 -14 4l-111 140z" />
    <glyph glyph-name="Kcommaaccent" unicode="&#x136;" horiz-adv-x="1290" 
d="M223 1288h201q24 0 11 -14q-10 -10 -36 -21q-25 -13 -63 -24v-625q98 63 229 187q166 160 353 426h-80q-26 0 -7 16q11 9 33 20q80 35 121 35h197q24 0 9 -14q-11 -10 -36 -21q-57 -28 -102 -34q-167 -231 -324 -383q-75 -75 -168 -146q160 -129 290 -274t316 -381h88
q28 0 4 -18l-30 -17q-76 -37 -121 -37h-197q-26 0 -7 16q11 10 34 21q15 8 25 10q-111 139 -178.5 219.5t-165.5 183t-195 183.5l-88 -49v-512h84q29 0 1 -19q-11 -7 -28 -16q-76 -37 -121 -37h-196q-26 0 -8 16q11 10 34 21q33 15 58 23v1194h-84q-26 0 -7 16q11 9 33 20
q80 35 121 35zM623 -342q-56 -59 -97 -70q-16 -5 -14 4q3 13 31 41q53 53 53 179q0 137 -82 219q-8 8 20.5 37.5t36.5 33.5q1 1 10 8t19 14.5t21.5 15t21 10.5t12.5 0q84 -84 84 -226q0 -150 -116 -266z" />
    <glyph glyph-name="kcommaaccent" unicode="&#x137;" horiz-adv-x="905" 
d="M276 31q0 -15 -62 -41.5t-97 -26.5q-15 0 -15 6v1876q0 18 123 49q67 15 105 15q18 0 18 -4q-72 -495 -72 -815v-605l173 88q57 29 80.5 55t23.5 66q0 37 -33 115v2q0 13 66 39.5t96 26.5q21 0 33 -50.5t12 -72.5q0 -52 -42 -92.5t-136 -86.5l-180 -90q29 0 55 -5.5
t49 -18.5t40.5 -24.5t36 -35t29.5 -37.5t28.5 -45t24 -43.5t23.5 -46.5q99 -194 258 -194q21 0 31 2q23 0 23 -6q0 -25 -81 -46.5t-116 -21.5q-100 0 -168.5 49.5t-120.5 153.5q-5 9 -20.5 41.5t-27 56t-31.5 56t-38 53.5t-41.5 37.5t-46.5 17.5v-397zM397 -330
q-53 -50 -96 -61q-18 -6 -14 5q6 13 30 36q54 47 54 160q0 122 -82 198q-8 6 20.5 33t36.5 31l6 4q5 4 11 8t15 9.5t16 10t15 8.5t12.5 4t8.5 -1q84 -75 84 -203q0 -134 -117 -242z" />
    <glyph glyph-name="kgreenlandic" unicode="&#x138;" horiz-adv-x="905" 
d="M276 31q0 -15 -62 -41.5t-97 -26.5q-15 0 -15 6v590q0 128 -51 201q-18 25 -39.5 34t-34 9t-12.5 4q0 10 54 33.5t87 29.5q10 2 29 2q46 0 79.5 -40t47.5 -95.5t14 -115.5v-136l173 88q57 29 80.5 55t23.5 66q0 37 -33 115v2q0 13 66 39.5t96 26.5q21 0 33 -50.5
t12 -72.5q0 -52 -42 -92.5t-136 -86.5l-180 -90q29 0 55 -5.5t49 -18.5t40.5 -24.5t36 -35t29.5 -37.5t28.5 -45t24 -43.5t23.5 -46.5q99 -194 258 -194q21 0 31 2q23 0 23 -6q0 -25 -81 -46.5t-116 -21.5q-100 0 -168.5 49.5t-120.5 153.5q-5 9 -20.5 41.5t-27 56t-31.5 56
t-38 53.5t-41.5 37.5t-46.5 17.5v-397z" />
    <glyph glyph-name="Lcommaaccent" unicode="&#x13b;" horiz-adv-x="1118" 
d="M561 -406q-55 -58 -96 -69q-18 -6 -14 7q4 12 30 38q54 54 54 178q0 131 -78 215h-381q-26 0 -8 16q11 10 34 21q63 29 107 35v1182h-84q-28 0 -4 18q11 8 31 18q80 35 120 35h197q24 0 9 -14q-10 -10 -36 -21q-23 -13 -57 -24v-1194h119q4 4 6 4q1 0 10 7.5t18.5 14.5
t22.5 15t20.5 10t12.5 0q21 -24 39 -51h305q20 15 72 33q23 9 43.5 13.5t32.5 4t12 -5.5v-49q0 -13 -41 -31q-76 -37 -121 -37h-272q14 -46 14 -102q0 -69 -30 -139.5t-87 -127.5z" />
    <glyph glyph-name="lcommaaccent" unicode="&#x13c;" horiz-adv-x="493" 
d="M227 -342q-23 -25 -51 -45.5t-45 -24.5q-18 -6 -14 7q4 12 30 38q54 54 54 179q0 137 -82 219q-5 5 8 24q-4 36 -4 64v1726q0 18 123 49q68 15 104 15q19 0 19 -4q-69 -453 -72 -815v-910q0 -147 82 -147q14 0 20 2l19 2q14 0 14 -6q0 -24 -92 -51q4 -36 4 -56
q0 -69 -30 -139t-87 -127z" />
    <glyph glyph-name="Ldot" unicode="&#x13f;" horiz-adv-x="1118" 
d="M555 547q-3 3 3 13.5t20.5 26t33.5 31.5q28 24 53.5 38.5t30.5 9.5l99 -99q6 -6 -11 -27t-47 -46q-29 -25 -53.5 -38t-30.5 -7zM272 1288h197q24 0 9 -14q-10 -10 -36 -21q-23 -13 -57 -24v-1194h553q20 15 72 33q23 9 43.5 13.5t32.5 4t12 -5.5v-49q0 -13 -41 -31
q-76 -37 -121 -37h-860q-26 0 -8 16q11 10 34 21q63 29 107 35v1182h-84q-28 0 -4 18q11 8 31 18q80 35 120 35z" />
    <glyph glyph-name="ldot" unicode="&#x140;" horiz-adv-x="696" 
d="M399 39l19 2q14 0 14 -6q0 -23 -77 -47.5t-124 -24.5q-50 0 -79 34.5t-29 125.5v1722q0 18 123 49q68 15 104 15q19 0 19 -4q-69 -453 -72 -815v-906q0 -147 82 -147q14 0 20 2zM393 547q-3 3 3.5 13.5t21 26t33.5 31.5q28 24 53.5 38.5t30.5 9.5l98 -99q6 -6 -11 -27
t-47 -46t-53.5 -38t-29.5 -7z" />
    <glyph glyph-name="Lslash" unicode="&#x141;" horiz-adv-x="1118" 
d="M272 1288h197q24 0 9 -14q-10 -10 -36 -21q-23 -13 -57 -24v-619l82 82q29 29 111 51q64 16 60 1q-1 -3 -5 -7l-248 -248v-454h553q20 15 72 33q23 9 43.5 13.5t32.5 4t12 -5.5v-49q0 -13 -41 -31q-76 -37 -121 -37h-860q-26 0 -8 16q11 10 34 21q63 29 107 35v278
l-86 -86q-29 -29 -111 -51q-62 -16 -59 -1l4 7l252 252v783h-84q-28 0 -4 18q11 8 31 18q80 35 120 35z" />
    <glyph glyph-name="lslash" unicode="&#x142;" horiz-adv-x="493" 
d="M399 39l19 2q14 0 14 -6q0 -23 -77 -47.5t-124 -24.5q-50 0 -79 34.5t-29 125.5v391l-82 -82q-29 -29 -111 -51q-62 -16 -59 -1q1 3 4 7l248 248v1210q0 18 123 49q68 15 104 15q19 0 19 -4q-69 -453 -72 -815v-281l88 88q29 29 111 51q64 16 60 1q-1 -3 -5 -7l-254 -254
v-504q0 -147 82 -147q14 0 20 2z" />
    <glyph glyph-name="Ncommaaccent" unicode="&#x145;" horiz-adv-x="1576" 
d="M272 -37h-196q-26 0 -8 16q11 10 34 21q47 21 74 27v1190h-100q-26 0 -7 16q11 9 33 20q76 35 121 35h197q22 0 9 -14q-10 -10 -36 -21q-8 -5 -16 -8l880 -1020v992h-100q-28 0 -4 18q11 8 31 18q76 35 121 35h196q21 0 10 -12q-9 -11 -36 -23q-36 -19 -74 -28v-1170
q0 -9 -21.5 -33t-50.5 -47q-18 -14 -34.5 -23.5t-25.5 -11.5t-12 1l-938 1087v-993h101q26 0 4 -17q-10 -8 -31 -18q-76 -37 -121 -37zM709 -342q-56 -59 -97 -70q-16 -5 -14 4q3 13 31 41q53 53 53 179q0 137 -82 219q-8 8 20.5 37.5t36.5 33.5q1 1 10 8t19 14.5t21.5 15
t21 10.5t12.5 0q84 -84 84 -226q0 -150 -116 -266z" />
    <glyph glyph-name="ncommaaccent" unicode="&#x146;" horiz-adv-x="1005" 
d="M145 -31v590q0 92 -33.5 167t-74.5 75q-1 0 -4.5 -0.5l-7 -1t-7 -0.5t-6 1.5t-2.5 4.5q0 20 68 43.5t104 23.5t66 -26t45 -72q116 83 276 98h31q104 0 177.5 -65t82.5 -164v-459q0 -147 80 -147q55 4 55 -2q0 -24 -77.5 -48t-122.5 -24q-52 0 -80.5 35t-28.5 125v436
q0 98 -68 170t-165 72h-17q-19 -2 -46.5 -37t-49 -89t-21.5 -102v-542q0 -15 -62 -41.5t-97 -26.5q-15 0 -15 6zM504 -342q-23 -25 -51 -45.5t-45 -24.5q-18 -6 -14 7q4 12 30 38q53 53 53 179q0 137 -82 219q-8 8 21 37.5t37 33.5q1 1 10 8t19 14.5t21.5 15t21 10.5t12.5 0
q84 -84 84 -226q0 -69 -30 -139t-87 -127z" />
    <glyph glyph-name="napostrophe" unicode="&#x149;" horiz-adv-x="1005" 
d="M145 -31v590q0 92 -33.5 167t-74.5 75q-1 0 -4.5 -0.5l-7 -1t-7 -0.5t-6 1.5t-2.5 4.5q0 20 68 43.5t104 23.5t66 -26t45 -72q116 83 276 98h31q104 0 177.5 -65t82.5 -164v-459q0 -147 80 -147q55 4 55 -2q0 -24 -77.5 -48t-122.5 -24q-52 0 -80.5 35t-28.5 125v436
q0 98 -68 170t-165 72h-17q-19 -2 -46.5 -37t-49 -89t-21.5 -102v-542q0 -15 -62 -41.5t-97 -26.5q-15 0 -15 6zM504 1038q-26 -26 -59.5 -48.5t-45.5 -22.5q-6 0 -6 4q0 11 29 43q55 57 55 180q0 133 -84 217q-2 2 -2 4q0 5 6 13.5t15 18t17.5 17.5t16.5 14l7 7
q8 8 36 27.5t39 19.5l7 -2q86 -83 86 -223q0 -70 -30 -141t-87 -128z" />
    <glyph glyph-name="Eng" unicode="&#x14a;" horiz-adv-x="1576" 
d="M272 -37h-196q-15 0 -15 6q0 9 38 28.5t77 29.5v1190h-100q-15 0 -15 6q0 15 64.5 40t97.5 25h197q12 0 12 -6q0 -2 -6 -8.5t-19.5 -15t-29.5 -13.5l880 -1020v992h-100q-14 0 -14 6q0 15 64.5 40t97.5 25h196q12 0 12 -6q0 -8 -38 -28.5t-74 -28.5v-1194
q0 -144 -80 -256.5t-209 -171t-281 -58.5h-6q-8 0 -8 6q0 13 55.5 37t92.5 29q85 0 151 47.5t100 120t39 158.5l-936 1085v-993h101q12 0 12 -6q0 -14 -64.5 -40t-95.5 -26z" />
    <glyph glyph-name="eng" unicode="&#x14b;" horiz-adv-x="958" 
d="M438 -428q-47 -3 11 31q28 16 63 27.5t57 13.5q117 76 117 229v686q0 98 -68 170t-165 72h-17q-19 -2 -46.5 -37t-49 -89t-21.5 -102v-542q0 -15 -62 -41.5t-97 -26.5q-15 0 -15 6v590q0 92 -33.5 167t-74.5 75q-1 0 -4.5 -0.5l-7 -1t-7 -0.5t-6 1.5t-2.5 4.5
q0 20 68 43.5t104 23.5t66 -26t45 -72q116 83 276 98h31q104 0 178.5 -65.5t83.5 -163.5v-711q0 -84 -48.5 -159t-131.5 -121q-59 -30 -129 -55q-61 -17 -115 -25z" />
    <glyph glyph-name="ohungarumlaut" unicode="&#x151;" 
d="M395 848q77 24 142 24q75 0 137.5 -36t99.5 -99q51 -84 51 -252q0 -93 -10 -159q-15 -104 -87.5 -188.5t-173.5 -129.5t-206 -45q-74 0 -136 36t-99 99q-52 86 -52 262q0 82 11 152q17 119 105.5 207.5t217.5 128.5zM393 801h-14q-143 -97 -143 -379q0 -82 9.5 -143.5
t39.5 -114.5q34 -60 87 -94.5t115 -34.5l19 2q145 90 145 389q0 160 -51 248q-36 59 -90.5 93t-116.5 34zM604 1079q-14 -16 -68.5 -37.5t-86.5 -21.5q-15 0 -15 6q0 2 6 8l246 246q16 16 70.5 37.5t85.5 21.5q12 0 12 -6q0 -4 -4 -8zM338 1079q-14 -16 -69 -37.5t-87 -21.5
q-14 0 -14 6q0 2 6 8l246 246q16 16 70 37.5t85 21.5q13 0 13 -6q0 -4 -4 -8z" />
    <glyph glyph-name="OE" unicode="&#x152;" horiz-adv-x="2127" 
d="M705 1217q-164 0 -289 -125q-178 -178 -178 -437q0 -257 180 -440q180 -180 430 -180q164 0 291 127q178 178 178 434q0 258 -182 440q-181 181 -430 181zM850 1288h1167q17 0 17 -4v-49q0 -24 -88 -51q-88 -30 -88 -10v43h-709q79 -39 158 -115q169 -163 184 -404h403
q22 0 21 -5q-2 -8 -45 -29q-79 -37 -121 -37h-258q-12 -246 -188 -422q-105 -105 -250 -170h895q43 24 71 33q88 34 88 12v-51q0 -8 -41 -29q-73 -37 -120 -37h-1241q-268 0 -457 189q-187 187 -187 444q0 262 189 451q113 113 269 177t331 64z" />
    <glyph glyph-name="oe" unicode="&#x153;" horiz-adv-x="1476" 
d="M1458 651q17 0 17 -6q0 -7 -27 -22t-62 -27l-559 -205q4 -150 52 -227q36 -59 90 -93t118 -34q56 0 94 15.5t85 53.5q22 17 73 35.5t78 18.5q15 0 15 -4q0 -6 -11 -13q-91 -75 -220 -127.5t-255 -52.5q-76 0 -140 36.5t-101 100.5q-4 4 -5 4q-66 -62 -162 -101.5
t-188 -39.5q-76 0 -138 35.5t-99 99.5q-52 90 -52 262q0 69 13 152q22 150 157.5 255t305.5 105q75 0 138 -37t101 -100l2 -4q60 63 159.5 102t188.5 39q118 0 197 -79q15 -16 36 -51.5t43.5 -59.5t55.5 -31zM651 397v29q0 79 -9.5 138t-39.5 110q-36 59 -90.5 93t-116.5 34
h-14q-143 -97 -143 -379q0 -82 9.5 -143.5t39.5 -114.5q34 -60 87 -94.5t115 -34.5l19 2q72 45 107.5 140.5t35.5 219.5zM1266 592q-34 19 -67.5 69t-47.5 64q-76 76 -168 76h-12q-75 -51 -107 -141t-39 -228z" />
    <glyph glyph-name="Rcommaaccent" unicode="&#x156;" horiz-adv-x="1288" 
d="M651 1288q158 0 267 -106q104 -104 104 -254q0 -154 -109 -260q-67 -67 -157 -111q51 -20 107 -66t93 -87t95 -111q114 -132 160 -174q92 -84 165 -84q29 0 3 -19l-27 -16q-76 -37 -121 -37q-32 0 -62.5 9t-63.5 31.5t-55.5 40t-59.5 57.5t-53.5 58.5t-57.5 67.5
q-56 67 -89.5 103.5t-84 83.5t-96.5 68.5t-91 21.5h-12q-60 0 -123 14v-483h84q29 0 5 -18q-11 -8 -30 -17q-76 -37 -120 -37h-197q-27 0 -6 18q11 9 31 19q37 16 59 23v1194h-133q-27 0 -6 18l30 18q80 35 121 35h430zM383 1217v-576q135 -66 268 -66q49 0 97 48
q100 95 100 243q0 145 -103 248t-239 103h-123zM645 -342q-23 -25 -51 -45.5t-45 -24.5q-18 -6 -14 7q6 13 30 38q53 53 53 179q0 138 -81 219q-8 8 20.5 37.5t36.5 33.5q1 1 10 8t19 14.5t21.5 15t21 10.5t12.5 0q84 -84 84 -226q0 -69 -30 -139t-87 -127z" />
    <glyph glyph-name="rcommaaccent" unicode="&#x157;" horiz-adv-x="798" 
d="M279 -342q-56 -59 -97 -70q-16 -5 -14 4q3 13 31 41q53 53 53 179q0 85 -39 161q-33 -10 -51 -10q-17 0 -17 6v590q0 85 -29.5 163.5t-76.5 78.5q-3 0 -7 -1t-5 -1q-17 0 -17 6q0 20 67.5 43.5t106.5 23.5q42 0 74 -35t47 -98q63 48 163 89.5t183 41.5q13 0 15 -4
q9 -49 67 -82.5t133 -33.5h17q18 0 18 -7q0 -20 -73.5 -43.5t-102.5 -23.5q-89 0 -152.5 33.5t-78.5 87.5l-7 -2q-47 -19 -81.5 -60.5t-51.5 -96t-24.5 -107t-7.5 -107.5v-287q73 -82 73 -213q0 -150 -116 -266z" />
    <glyph glyph-name="Scircumflex" unicode="&#x15c;" horiz-adv-x="993" 
d="M680 1073q-38 64 -99.5 104t-131.5 40q-36 0 -68.5 -36.5t-50 -86t-17.5 -93.5q0 -60 29 -120q26 -52 69.5 -87t94.5 -53t102 -32t108 -35t97 -51q65 -48 102 -116.5t37 -144.5q0 -114 -78.5 -207t-200 -142.5t-255.5 -49.5q-101 0 -191 38t-143 114q-12 -4 -29 -4
q-14 0 -14 6v147q0 18 40 35t80 25l40 8q14 0 14 -6q0 -92 54 -160t132.5 -99.5t167.5 -31.5q90 0 149.5 86t59.5 180q0 75 -36 142.5t-99 111.5q-30 21 -71 39.5t-69 27.5t-82 24t-71 20q-94 28 -152.5 103t-58.5 171q0 98 65.5 179t169 125t218.5 44q122 0 205 -80
q27 6 45 6q12 0 12 -4v-73q0 -17 -63 -42.5t-99 -25.5q-12 0 -12 4zM410 1505q-11 -15 -67.5 -38t-88.5 -23q-16 0 -16 6q0 4 2 6l172 221q13 15 69.5 38.5t87.5 23.5q11 0 15 -4l172 -224q0 -17 -62 -42t-96 -25q-10 0 -14 4l-111 139z" />
    </font>
</defs>
</svg>
